{"glyphs":{"0":{"ha":931,"x_min":96,"x_max":833,"o":"m 464 -11 q 210 28 286 -11 q 115 162 135 68 q 96 478 96 256 q 115 794 96 700 q 210 927 135 888 q 464 967 286 967 q 719 927 643 967 q 814 794 794 888 q 833 478 833 700 q 814 162 833 256 q 719 28 794 68 q 464 -11 643 -11 m 464 131 q 616 147 576 131 q 667 229 656 164 q 678 478 678 294 q 667 726 678 661 q 616 808 656 792 q 464 825 576 825 q 313 808 351 825 q 263 727 274 792 q 251 478 251 663 q 263 228 251 293 q 313 147 274 164 q 464 131 351 131 z "},"1":{"ha":532,"x_min":43,"x_max":393,"o":"m 236 0 l 236 769 l 43 683 l 43 828 l 285 956 l 393 956 l 393 0 l 236 0 z "},"2":{"ha":850,"x_min":89,"x_max":758,"o":"m 242 143 l 758 143 l 758 0 l 89 0 l 89 121 q 99 299 89 240 q 143 395 108 357 q 256 464 178 433 q 489 558 374 514 q 562 595 539 579 q 593 634 585 611 q 601 700 601 657 q 583 783 601 757 q 519 817 564 808 q 381 825 475 825 q 256 819 333 825 q 108 806 178 814 l 108 939 q 264 958 172 950 q 432 967 356 967 q 606 949 538 967 q 717 876 675 932 q 758 713 758 821 q 740 576 758 628 q 686 494 722 525 q 586 438 650 463 l 318 331 q 258 290 274 314 q 245 253 249 275 q 242 190 242 231 l 242 143 z "},"3":{"ha":840,"x_min":79,"x_max":744,"o":"m 371 -11 q 222 -3 304 -11 q 79 17 139 6 l 79 147 q 358 131 246 131 q 493 138 447 131 q 563 176 539 146 q 586 269 586 206 q 549 382 586 351 q 418 413 513 413 l 244 413 l 244 554 l 418 554 q 536 582 497 554 q 575 689 575 610 q 553 781 575 753 q 487 817 532 810 q 344 825 442 825 q 214 819 288 825 q 85 807 140 814 l 85 939 q 223 959 142 951 q 372 967 304 967 q 588 938 508 967 q 701 855 668 910 q 735 715 735 800 q 694 561 735 614 q 571 490 653 508 l 571 485 q 701 416 658 467 q 744 256 744 365 q 714 112 744 169 q 601 22 683 54 q 371 -11 519 -11 z "},"4":{"ha":897,"x_min":58,"x_max":840,"o":"m 549 0 l 549 210 l 58 210 l 58 335 l 425 956 l 597 956 l 231 350 l 549 350 l 586 639 l 704 639 l 704 350 l 840 350 l 840 210 l 704 210 l 704 0 l 549 0 z "},"5":{"ha":864,"x_min":108,"x_max":775,"o":"m 108 147 q 389 131 279 131 q 532 144 485 131 q 597 190 579 157 q 615 288 615 224 q 596 390 615 358 q 528 432 576 422 q 375 442 479 442 q 253 437 325 442 q 119 424 182 432 l 119 956 l 704 956 l 704 813 l 261 813 l 261 571 q 461 582 367 582 q 657 551 589 582 q 750 462 725 521 q 775 304 775 403 q 744 118 775 185 q 633 20 714 51 q 401 -11 553 -11 q 250 -3 333 -11 q 108 17 167 4 l 108 147 z "},"6":{"ha":921,"x_min":96,"x_max":836,"o":"m 481 -11 q 313 -3 376 -11 q 206 31 249 6 q 138 107 163 57 q 105 243 114 157 q 96 471 96 329 q 105 676 96 593 q 136 811 114 758 q 252 933 171 900 q 490 967 333 967 q 626 959 544 967 q 782 939 708 951 l 782 806 q 522 825 624 825 q 344 803 397 825 q 273 719 290 781 q 256 515 256 657 l 264 515 q 515 585 326 585 q 703 563 635 585 q 803 483 771 542 q 836 310 836 424 q 808 114 836 181 q 705 18 781 47 q 481 -11 629 -11 m 469 131 q 605 140 563 131 q 664 181 647 150 q 681 283 681 213 q 665 392 681 360 q 607 433 649 424 q 469 443 565 443 q 331 430 375 443 q 273 390 286 417 q 260 311 260 364 q 278 189 260 226 q 338 141 296 151 q 469 131 379 131 z "},"7":{"ha":788,"x_min":53,"x_max":726,"o":"m 176 0 l 554 813 l 53 813 l 53 956 l 726 956 l 726 826 l 350 0 l 176 0 z "},"8":{"ha":950,"x_min":94,"x_max":854,"o":"m 475 -11 q 238 20 321 -11 q 125 108 156 51 q 94 256 94 165 q 114 379 94 333 q 170 448 133 425 q 269 485 207 471 l 269 490 q 142 560 182 508 q 103 715 103 613 q 136 856 103 801 q 251 939 169 911 q 475 967 332 967 q 698 939 617 967 q 813 856 779 911 q 846 715 846 801 q 806 560 846 613 q 681 490 767 508 l 681 485 q 778 448 742 471 q 835 379 815 425 q 854 256 854 333 q 824 108 854 165 q 710 20 793 51 q 475 -11 628 -11 m 475 553 q 608 563 565 553 q 669 602 651 574 q 686 689 686 631 q 670 777 686 749 q 610 816 654 806 q 475 826 567 826 q 340 816 383 826 q 280 777 296 806 q 264 689 264 749 q 281 602 264 631 q 341 563 297 574 q 475 553 385 553 m 475 131 q 612 140 568 131 q 675 177 656 149 q 694 268 694 206 q 676 364 694 333 q 614 404 658 394 q 475 414 569 414 q 335 404 379 414 q 273 364 290 394 q 256 268 256 333 q 274 177 256 206 q 337 140 293 149 q 475 131 381 131 z "},"9":{"ha":921,"x_min":85,"x_max":824,"o":"m 431 -11 q 292 -3 375 -11 q 138 17 210 6 l 138 150 q 399 131 299 131 q 576 153 522 131 q 648 237 631 175 q 665 440 665 299 l 657 440 q 406 371 594 371 q 217 392 285 371 q 117 473 150 414 q 85 646 85 532 q 113 842 85 775 q 216 938 140 908 q 440 967 292 967 q 619 956 553 967 q 727 915 685 946 q 792 821 769 883 q 817 690 810 769 q 824 485 824 610 q 813 264 824 350 q 775 122 801 178 q 658 18 738 47 q 431 -11 579 -11 m 451 513 q 590 526 546 513 q 648 565 635 539 q 661 644 661 592 q 642 767 661 729 q 583 815 624 804 q 451 825 542 825 q 316 815 358 825 q 256 774 274 806 q 239 672 239 743 q 256 564 239 596 q 313 522 272 532 q 451 513 354 513 z "},"\u0000":{"ha":0,"x_min":0,"x_max":0,"o":""},"\r":{"ha":335,"x_min":0,"x_max":0,"o":""}," ":{"ha":335,"x_min":0,"x_max":0,"o":""},"A":{"ha":951,"x_min":31,"x_max":921,"o":"m 760 0 l 675 231 l 271 231 l 189 0 l 31 0 l 374 956 l 578 956 l 921 0 l 760 0 m 476 797 l 469 797 l 317 371 l 629 371 l 476 797 z "},"Á":{"ha":951,"x_min":31,"x_max":921,"o":"m 760 0 l 675 231 l 271 231 l 189 0 l 31 0 l 374 956 l 578 956 l 921 0 l 760 0 m 476 797 l 469 797 l 317 371 l 629 371 l 476 797 m 383 1042 l 383 1049 l 519 1240 l 674 1240 l 674 1233 l 492 1042 l 383 1042 z "},"Ă":{"ha":951,"x_min":31,"x_max":921,"o":"m 760 0 l 675 231 l 271 231 l 189 0 l 31 0 l 374 956 l 578 956 l 921 0 l 760 0 m 476 797 l 469 797 l 317 371 l 629 371 l 476 797 m 675 1233 q 662 1122 675 1164 q 606 1054 649 1079 q 475 1029 563 1029 q 345 1054 388 1029 q 290 1121 303 1079 q 278 1233 278 1163 l 367 1233 q 372 1169 367 1190 q 401 1135 378 1147 q 475 1124 424 1124 q 549 1135 525 1124 q 578 1169 572 1147 q 583 1233 583 1190 l 675 1233 z "},"Ắ":{"ha":951,"x_min":31,"x_max":921,"o":"m 760 0 l 675 231 l 271 231 l 189 0 l 31 0 l 374 956 l 578 956 l 921 0 l 760 0 m 476 797 l 469 797 l 317 371 l 629 371 l 476 797 m 676 1233 q 663 1122 676 1164 q 607 1054 650 1079 q 476 1029 564 1029 q 347 1054 389 1029 q 292 1121 304 1079 q 279 1233 279 1163 l 368 1233 q 374 1169 368 1190 q 402 1135 379 1147 q 476 1124 425 1124 q 550 1135 526 1124 q 579 1169 574 1147 q 585 1233 585 1190 l 676 1233 m 413 1275 l 413 1282 l 549 1474 l 703 1474 l 703 1467 l 521 1275 l 413 1275 z "},"Ặ":{"ha":951,"x_min":31,"x_max":921,"o":"m 760 0 l 675 231 l 271 231 l 189 0 l 31 0 l 374 956 l 578 956 l 921 0 l 760 0 m 476 797 l 469 797 l 317 371 l 629 371 l 476 797 m 393 -253 l 393 -86 l 560 -86 l 560 -253 l 393 -253 m 675 1233 q 662 1122 675 1164 q 606 1054 649 1079 q 475 1029 563 1029 q 345 1054 388 1029 q 290 1121 303 1079 q 278 1233 278 1163 l 367 1233 q 372 1169 367 1190 q 401 1135 378 1147 q 475 1124 424 1124 q 549 1135 525 1124 q 578 1169 572 1147 q 583 1233 583 1190 l 675 1233 z "},"Ằ":{"ha":951,"x_min":31,"x_max":921,"o":"m 760 0 l 675 231 l 271 231 l 189 0 l 31 0 l 374 956 l 578 956 l 921 0 l 760 0 m 476 797 l 469 797 l 317 371 l 629 371 l 476 797 m 685 1233 q 672 1122 685 1164 q 615 1054 658 1079 q 485 1029 572 1029 q 355 1054 397 1029 q 300 1121 313 1079 q 288 1233 288 1163 l 376 1233 q 382 1169 376 1190 q 410 1135 388 1147 q 485 1124 433 1124 q 558 1135 535 1124 q 588 1169 582 1147 q 593 1233 593 1190 l 685 1233 m 450 1275 l 268 1467 l 268 1474 l 421 1474 l 558 1282 l 558 1275 l 450 1275 z "},"Ẳ":{"ha":951,"x_min":31,"x_max":921,"o":"m 760 0 l 675 231 l 271 231 l 189 0 l 31 0 l 374 956 l 578 956 l 921 0 l 760 0 m 476 797 l 469 797 l 317 371 l 629 371 l 476 797 m 675 1233 q 662 1122 675 1164 q 606 1054 649 1079 q 475 1029 563 1029 q 345 1054 388 1029 q 290 1121 303 1079 q 278 1233 278 1163 l 367 1233 q 372 1169 367 1190 q 401 1135 378 1147 q 475 1124 424 1124 q 549 1135 525 1124 q 578 1169 572 1147 q 583 1233 583 1190 l 675 1233 m 400 1244 q 413 1300 400 1285 q 464 1325 425 1315 l 493 1333 q 547 1354 535 1344 q 558 1386 558 1364 q 538 1426 558 1418 q 458 1433 518 1433 q 303 1428 400 1433 l 303 1503 q 469 1515 385 1515 q 576 1508 538 1515 q 636 1475 615 1500 q 657 1397 657 1450 q 638 1324 657 1346 q 567 1288 619 1303 l 536 1279 q 491 1262 499 1269 q 483 1233 483 1254 l 400 1233 l 400 1244 z "},"Ẵ":{"ha":951,"x_min":31,"x_max":921,"o":"m 760 0 l 675 231 l 271 231 l 189 0 l 31 0 l 374 956 l 578 956 l 921 0 l 760 0 m 476 797 l 469 797 l 317 371 l 629 371 l 476 797 m 672 1233 q 659 1122 672 1164 q 603 1054 646 1079 q 472 1029 560 1029 q 342 1054 385 1029 q 288 1121 300 1079 q 275 1233 275 1163 l 364 1233 q 369 1169 364 1190 q 398 1135 375 1147 q 472 1124 421 1124 q 546 1135 522 1124 q 575 1169 569 1147 q 581 1233 581 1190 l 672 1233 m 733 1475 q 726 1372 733 1408 q 696 1317 719 1336 q 622 1299 672 1299 q 547 1306 585 1299 q 458 1329 510 1314 q 394 1344 426 1338 q 339 1351 363 1351 q 305 1339 311 1351 q 299 1283 299 1326 l 217 1283 q 224 1386 217 1350 q 255 1441 231 1422 q 329 1460 279 1460 q 404 1452 367 1460 q 493 1429 442 1444 q 557 1414 525 1421 q 613 1407 589 1407 q 647 1419 640 1407 q 653 1475 653 1432 l 733 1475 z "},"Ǎ":{"ha":951,"x_min":31,"x_max":921,"o":"m 760 0 l 675 231 l 271 231 l 189 0 l 31 0 l 374 956 l 578 956 l 921 0 l 760 0 m 476 797 l 469 797 l 317 371 l 629 371 l 476 797 m 401 1033 l 264 1224 l 264 1233 l 363 1233 l 475 1108 l 588 1233 l 688 1233 l 688 1224 l 550 1033 l 401 1033 z "},"Â":{"ha":951,"x_min":31,"x_max":921,"o":"m 760 0 l 675 231 l 271 231 l 189 0 l 31 0 l 374 956 l 578 956 l 921 0 l 760 0 m 476 797 l 469 797 l 317 371 l 629 371 l 476 797 m 264 1042 l 264 1051 l 401 1242 l 550 1242 l 688 1051 l 688 1042 l 588 1042 l 475 1167 l 363 1042 l 264 1042 z "},"Ấ":{"ha":951,"x_min":31,"x_max":921,"o":"m 760 0 l 675 231 l 271 231 l 189 0 l 31 0 l 374 956 l 578 956 l 921 0 l 760 0 m 476 797 l 469 797 l 317 371 l 629 371 l 476 797 m 260 1035 l 260 1044 l 397 1235 l 546 1235 l 683 1044 l 683 1035 l 583 1035 l 471 1160 l 358 1035 l 260 1035 m 517 1271 l 517 1278 l 653 1469 l 807 1469 l 807 1463 l 625 1271 l 517 1271 z "},"Ậ":{"ha":951,"x_min":31,"x_max":921,"o":"m 760 0 l 675 231 l 271 231 l 189 0 l 31 0 l 374 956 l 578 956 l 921 0 l 760 0 m 476 797 l 469 797 l 317 371 l 629 371 l 476 797 m 393 -253 l 393 -86 l 560 -86 l 560 -253 l 393 -253 m 264 1033 l 264 1043 l 401 1233 l 550 1233 l 688 1043 l 688 1033 l 588 1033 l 475 1158 l 363 1033 l 264 1033 z "},"Ầ":{"ha":951,"x_min":31,"x_max":921,"o":"m 760 0 l 675 231 l 271 231 l 189 0 l 31 0 l 374 956 l 578 956 l 921 0 l 760 0 m 476 797 l 469 797 l 317 371 l 629 371 l 476 797 m 263 1035 l 263 1044 l 400 1235 l 549 1235 l 686 1044 l 686 1035 l 586 1035 l 474 1160 l 361 1035 l 263 1035 m 575 1272 l 393 1464 l 393 1471 l 546 1471 l 683 1279 l 683 1272 l 575 1272 z "},"Ẩ":{"ha":951,"x_min":31,"x_max":921,"o":"m 760 0 l 675 231 l 271 231 l 189 0 l 31 0 l 374 956 l 578 956 l 921 0 l 760 0 m 476 797 l 469 797 l 317 371 l 629 371 l 476 797 m 264 1035 l 264 1044 l 401 1235 l 550 1235 l 688 1044 l 688 1035 l 588 1035 l 475 1160 l 363 1035 l 264 1035 m 522 1269 q 535 1325 522 1310 q 586 1350 547 1340 l 615 1358 q 669 1379 657 1369 q 681 1411 681 1389 q 660 1451 681 1443 q 581 1458 640 1458 q 425 1453 522 1458 l 425 1528 q 592 1540 507 1540 q 699 1533 660 1540 q 758 1500 738 1525 q 779 1422 779 1475 q 760 1349 779 1371 q 689 1313 742 1328 l 658 1304 q 613 1287 621 1294 q 606 1258 606 1279 l 522 1258 l 522 1269 z "},"Ẫ":{"ha":951,"x_min":31,"x_max":921,"o":"m 760 0 l 675 231 l 271 231 l 189 0 l 31 0 l 374 956 l 578 956 l 921 0 l 760 0 m 476 797 l 469 797 l 317 371 l 629 371 l 476 797 m 261 1035 l 261 1044 l 399 1235 l 547 1235 l 685 1044 l 685 1035 l 585 1035 l 472 1160 l 360 1035 l 261 1035 m 733 1476 q 726 1374 733 1410 q 696 1319 719 1338 q 622 1300 672 1300 q 547 1308 585 1300 q 458 1331 510 1315 q 394 1346 426 1339 q 339 1353 363 1353 q 305 1340 311 1353 q 299 1285 299 1328 l 217 1285 q 224 1388 217 1351 q 255 1442 231 1424 q 329 1461 279 1461 q 404 1453 367 1461 q 493 1431 442 1446 q 557 1415 525 1422 q 613 1408 589 1408 q 647 1421 640 1408 q 653 1476 653 1433 l 733 1476 z "},"Ȁ":{"ha":951,"x_min":31,"x_max":921,"o":"m 760 0 l 675 231 l 271 231 l 189 0 l 31 0 l 374 956 l 578 956 l 921 0 l 760 0 m 476 797 l 469 797 l 317 371 l 629 371 l 476 797 m 407 1046 l 315 1046 l 150 1217 l 150 1224 l 282 1224 l 407 1053 l 407 1046 m 674 1046 l 582 1046 l 418 1217 l 418 1224 l 547 1224 l 674 1053 l 674 1046 z "},"Ä":{"ha":951,"x_min":31,"x_max":921,"o":"m 760 0 l 675 231 l 271 231 l 189 0 l 31 0 l 374 956 l 578 956 l 921 0 l 760 0 m 476 797 l 469 797 l 317 371 l 629 371 l 476 797 m 275 1079 l 275 1210 l 407 1210 l 407 1079 l 275 1079 m 544 1079 l 544 1210 l 675 1210 l 675 1079 l 544 1079 z "},"Ạ":{"ha":951,"x_min":31,"x_max":921,"o":"m 760 0 l 675 231 l 271 231 l 189 0 l 31 0 l 374 956 l 578 956 l 921 0 l 760 0 m 476 797 l 469 797 l 317 371 l 629 371 l 476 797 m 393 -253 l 393 -86 l 560 -86 l 560 -253 l 393 -253 z "},"À":{"ha":951,"x_min":31,"x_max":921,"o":"m 760 0 l 675 231 l 271 231 l 189 0 l 31 0 l 374 956 l 578 956 l 921 0 l 760 0 m 476 797 l 469 797 l 317 371 l 629 371 l 476 797 m 457 1042 l 275 1233 l 275 1240 l 428 1240 l 565 1049 l 565 1042 l 457 1042 z "},"Ả":{"ha":951,"x_min":31,"x_max":921,"o":"m 760 0 l 675 231 l 271 231 l 189 0 l 31 0 l 374 956 l 578 956 l 921 0 l 760 0 m 476 797 l 469 797 l 317 371 l 629 371 l 476 797 m 397 1029 q 410 1085 397 1069 q 461 1111 422 1100 l 490 1119 q 544 1140 532 1131 q 556 1171 556 1149 q 545 1205 556 1194 q 513 1217 535 1215 q 443 1219 492 1219 q 300 1213 372 1219 l 300 1288 q 467 1300 382 1300 q 574 1293 536 1300 q 633 1260 613 1286 q 654 1182 654 1235 q 635 1110 654 1131 q 564 1074 617 1089 l 533 1065 q 488 1048 496 1056 q 481 1018 481 1040 l 397 1018 l 397 1029 z "},"Ȃ":{"ha":951,"x_min":31,"x_max":921,"o":"m 760 0 l 675 231 l 271 231 l 189 0 l 31 0 l 374 956 l 578 956 l 921 0 l 760 0 m 476 797 l 469 797 l 317 371 l 629 371 l 476 797 m 278 1038 q 291 1149 278 1107 q 347 1217 304 1192 q 478 1242 390 1242 q 608 1217 565 1242 q 663 1150 650 1192 q 675 1038 675 1108 l 586 1038 q 581 1102 586 1081 q 552 1135 575 1124 q 478 1147 529 1147 q 404 1135 428 1147 q 375 1102 381 1124 q 369 1038 369 1081 l 278 1038 z "},"Ā":{"ha":951,"x_min":31,"x_max":921,"o":"m 760 0 l 675 231 l 271 231 l 189 0 l 31 0 l 374 956 l 578 956 l 921 0 l 760 0 m 476 797 l 469 797 l 317 371 l 629 371 l 476 797 m 300 1093 l 300 1232 l 653 1232 l 653 1093 l 300 1093 z "},"Ą":{"ha":951,"x_min":31,"x_max":921,"o":"m 803 -125 q 868 -176 803 -176 l 892 -175 l 892 -268 q 825 -272 846 -272 q 710 -242 743 -272 q 676 -161 676 -212 q 699 -80 676 -122 q 758 1 721 -37 l 675 231 l 271 231 l 189 0 l 31 0 l 374 956 l 578 956 l 921 0 l 883 0 q 828 -60 853 -24 q 803 -125 803 -96 m 317 371 l 629 371 l 476 797 l 469 797 l 317 371 z "},"Å":{"ha":951,"x_min":31,"x_max":921,"o":"m 921 0 l 760 0 l 675 231 l 271 231 l 189 0 l 31 0 l 368 950 q 315 978 332 960 q 294 1022 299 996 q 289 1097 289 1049 q 299 1191 289 1160 q 349 1239 310 1222 q 475 1256 389 1256 q 602 1239 563 1256 q 653 1191 642 1222 q 664 1097 664 1160 q 659 1023 664 1050 q 637 978 654 996 q 582 950 619 960 l 921 0 m 475 1181 q 406 1174 426 1181 q 381 1151 386 1167 q 376 1097 376 1135 q 381 1044 376 1060 q 406 1021 386 1028 q 475 1014 426 1014 q 545 1021 525 1014 q 570 1043 565 1028 q 575 1097 575 1058 q 570 1151 575 1136 q 545 1174 565 1167 q 475 1181 525 1181 m 317 371 l 629 371 l 476 797 l 469 797 l 317 371 z "},"Ǻ":{"ha":951,"x_min":31,"x_max":921,"o":"m 921 0 l 760 0 l 675 231 l 271 231 l 189 0 l 31 0 l 368 950 q 315 978 332 960 q 294 1022 299 996 q 289 1097 289 1049 q 299 1191 289 1160 q 349 1239 310 1222 q 475 1256 389 1256 q 602 1239 563 1256 q 653 1191 642 1222 q 664 1097 664 1160 q 659 1023 664 1050 q 637 978 654 996 q 582 950 619 960 l 921 0 m 475 1181 q 406 1174 426 1181 q 381 1151 386 1167 q 376 1097 376 1135 q 381 1044 376 1060 q 406 1021 386 1028 q 475 1014 426 1014 q 545 1021 525 1014 q 570 1043 565 1028 q 575 1097 575 1058 q 570 1151 575 1136 q 545 1174 565 1167 q 475 1181 525 1181 m 317 371 l 629 371 l 476 797 l 469 797 l 317 371 m 415 1335 l 415 1342 l 551 1533 l 706 1533 l 706 1526 l 524 1335 l 415 1335 z "},"Ã":{"ha":951,"x_min":31,"x_max":921,"o":"m 760 0 l 675 231 l 271 231 l 189 0 l 31 0 l 374 956 l 578 956 l 921 0 l 760 0 m 476 797 l 469 797 l 317 371 l 629 371 l 476 797 m 733 1235 q 726 1132 733 1168 q 696 1077 719 1096 q 622 1058 672 1058 q 547 1066 585 1058 q 458 1089 510 1074 q 394 1104 426 1097 q 339 1111 363 1111 q 305 1099 311 1111 q 299 1043 299 1086 l 217 1043 q 224 1146 217 1110 q 255 1201 231 1182 q 329 1219 279 1219 q 404 1212 367 1219 q 493 1189 442 1204 q 557 1174 525 1181 q 613 1167 589 1167 q 647 1179 640 1167 q 653 1235 653 1192 l 733 1235 z "},"Æ":{"ha":1333,"x_min":-15,"x_max":1256,"o":"m 713 0 l 657 231 l 253 231 l 142 0 l -15 0 l 438 956 l 1256 956 l 1256 814 l 675 814 l 742 553 l 1190 553 l 1190 411 l 774 411 l 843 142 l 1256 142 l 1256 0 l 713 0 m 522 797 l 515 797 l 313 371 l 626 371 l 522 797 z "},"Ǽ":{"ha":1333,"x_min":-15,"x_max":1256,"o":"m 713 0 l 657 231 l 253 231 l 142 0 l -15 0 l 438 956 l 1256 956 l 1256 814 l 675 814 l 742 553 l 1190 553 l 1190 411 l 774 411 l 843 142 l 1256 142 l 1256 0 l 713 0 m 522 797 l 515 797 l 313 371 l 626 371 l 522 797 m 607 1035 l 607 1042 l 743 1233 l 897 1233 l 897 1226 l 715 1035 l 607 1035 z "},"B":{"ha":944,"x_min":128,"x_max":854,"o":"m 128 956 l 582 956 q 783 895 721 956 q 844 715 844 835 q 805 563 844 618 q 681 490 765 508 l 681 485 q 815 410 776 465 q 854 253 854 354 q 794 66 854 132 q 582 0 733 0 l 128 0 l 128 956 m 529 554 q 651 584 614 554 q 688 683 688 614 q 674 764 688 736 q 628 803 661 792 q 529 814 594 814 l 285 814 l 285 554 l 529 554 m 535 140 q 633 153 599 140 q 683 194 668 165 q 697 276 697 224 q 662 383 697 353 q 535 413 626 413 l 285 413 l 285 140 l 535 140 z "},"C":{"ha":797,"x_min":96,"x_max":724,"o":"m 724 10 q 612 -6 678 0 q 489 -11 546 -11 q 233 29 315 -11 q 124 169 151 69 q 96 478 96 269 q 124 786 96 686 q 233 926 151 886 q 489 967 315 967 q 612 960 547 967 q 718 943 676 953 l 718 811 q 528 825 607 825 q 339 804 392 825 q 269 717 286 783 q 253 478 253 650 q 269 239 253 306 q 339 151 286 172 q 528 131 392 131 q 724 144 636 131 l 724 10 z "},"Ć":{"ha":797,"x_min":96,"x_max":724,"o":"m 724 10 q 612 -6 678 0 q 489 -11 546 -11 q 233 29 315 -11 q 124 169 151 69 q 96 478 96 269 q 124 786 96 686 q 233 926 151 886 q 489 967 315 967 q 612 960 547 967 q 718 943 676 953 l 718 811 q 528 825 607 825 q 339 804 392 825 q 269 717 286 783 q 253 478 253 650 q 269 239 253 306 q 339 151 286 172 q 528 131 392 131 q 724 144 636 131 l 724 10 m 339 1035 l 339 1042 l 475 1233 l 629 1233 l 629 1226 l 447 1035 l 339 1035 z "},"Č":{"ha":797,"x_min":96,"x_max":724,"o":"m 724 10 q 612 -6 678 0 q 489 -11 546 -11 q 233 29 315 -11 q 124 169 151 69 q 96 478 96 269 q 124 786 96 686 q 233 926 151 886 q 489 967 315 967 q 612 960 547 967 q 718 943 676 953 l 718 811 q 528 825 607 825 q 339 804 392 825 q 269 717 286 783 q 253 478 253 650 q 269 239 253 306 q 339 151 286 172 q 528 131 392 131 q 724 144 636 131 l 724 10 m 324 1033 l 186 1224 l 186 1233 l 285 1233 l 397 1108 l 510 1233 l 610 1233 l 610 1224 l 472 1033 l 324 1033 z "},"Ç":{"ha":797,"x_min":96,"x_max":724,"o":"m 528 131 q 724 144 636 131 l 724 10 q 612 -6 678 0 q 489 -11 546 -11 l 447 -11 l 396 -264 l 253 -264 l 253 -257 l 343 -3 q 185 62 238 13 q 115 207 133 111 q 96 478 96 303 q 124 786 96 686 q 233 926 151 886 q 489 967 315 967 q 612 960 547 967 q 718 943 676 953 l 718 811 q 528 825 607 825 q 339 804 392 825 q 269 717 286 783 q 253 478 253 650 q 269 239 253 306 q 339 151 286 172 q 528 131 392 131 z "},"Ĉ":{"ha":797,"x_min":96,"x_max":724,"o":"m 724 10 q 612 -6 678 0 q 489 -11 546 -11 q 233 29 315 -11 q 124 169 151 69 q 96 478 96 269 q 124 786 96 686 q 233 926 151 886 q 489 967 315 967 q 612 960 547 967 q 718 943 676 953 l 718 811 q 528 825 607 825 q 339 804 392 825 q 269 717 286 783 q 253 478 253 650 q 269 239 253 306 q 339 151 286 172 q 528 131 392 131 q 724 144 636 131 l 724 10 m 186 1033 l 186 1043 l 324 1233 l 472 1233 l 610 1043 l 610 1033 l 510 1033 l 397 1158 l 285 1033 l 186 1033 z "},"Ċ":{"ha":797,"x_min":96,"x_max":724,"o":"m 724 10 q 612 -6 678 0 q 489 -11 546 -11 q 233 29 315 -11 q 124 169 151 69 q 96 478 96 269 q 124 786 96 686 q 233 926 151 886 q 489 967 315 967 q 612 960 547 967 q 718 943 676 953 l 718 811 q 528 825 607 825 q 339 804 392 825 q 269 717 286 783 q 253 478 253 650 q 269 239 253 306 q 339 151 286 172 q 528 131 392 131 q 724 144 636 131 l 724 10 m 332 1085 l 332 1215 l 464 1215 l 464 1085 l 332 1085 z "},"D":{"ha":956,"x_min":128,"x_max":857,"o":"m 128 956 l 442 956 q 728 918 644 956 q 835 790 813 881 q 857 478 857 699 q 835 165 857 257 q 728 37 813 74 q 442 0 644 0 l 128 0 l 128 956 m 426 142 q 623 157 574 142 q 687 235 672 172 q 701 478 701 297 q 686 719 701 656 q 621 798 671 782 q 426 814 571 814 l 285 814 l 285 142 l 426 142 z "},"Ǳ":{"ha":1803,"x_min":128,"x_max":1736,"o":"m 128 956 l 442 956 q 728 918 644 956 q 835 790 813 881 q 857 478 857 699 q 835 165 857 257 q 728 37 813 74 q 442 0 644 0 l 128 0 l 128 956 m 426 142 q 623 157 574 142 q 687 235 672 172 q 701 478 701 297 q 686 719 701 656 q 621 798 671 782 q 426 814 571 814 l 285 814 l 285 142 l 426 142 m 1025 0 l 1025 135 l 1531 814 l 1040 814 l 1040 956 l 1729 956 l 1729 825 l 1221 140 l 1736 140 l 1736 0 l 1025 0 z "},"Ǆ":{"ha":1803,"x_min":128,"x_max":1736,"o":"m 128 956 l 442 956 q 728 918 644 956 q 835 790 813 881 q 857 478 857 699 q 835 165 857 257 q 728 37 813 74 q 442 0 644 0 l 128 0 l 128 956 m 426 142 q 623 157 574 142 q 687 235 672 172 q 701 478 701 297 q 686 719 701 656 q 621 798 671 782 q 426 814 571 814 l 285 814 l 285 142 l 426 142 m 1025 0 l 1025 135 l 1531 814 l 1040 814 l 1040 956 l 1729 956 l 1729 825 l 1221 140 l 1736 140 l 1736 0 l 1025 0 m 1314 1033 l 1176 1224 l 1176 1233 l 1275 1233 l 1388 1108 l 1500 1233 l 1600 1233 l 1600 1224 l 1463 1033 l 1314 1033 z "},"Ð":{"ha":956,"x_min":33,"x_max":857,"o":"m 128 419 l 33 419 l 33 547 l 128 547 l 128 956 l 442 956 q 728 918 644 956 q 835 790 813 881 q 857 478 857 699 q 835 165 857 257 q 728 37 813 74 q 442 0 644 0 l 128 0 l 128 419 m 426 142 q 623 157 574 142 q 687 235 672 172 q 701 478 701 297 q 686 719 701 656 q 621 798 671 782 q 426 814 571 814 l 285 814 l 285 547 l 424 547 l 424 419 l 285 419 l 285 142 l 426 142 z "},"Ď":{"ha":956,"x_min":128,"x_max":857,"o":"m 128 956 l 442 956 q 728 918 644 956 q 835 790 813 881 q 857 478 857 699 q 835 165 857 257 q 728 37 813 74 q 442 0 644 0 l 128 0 l 128 956 m 426 142 q 623 157 574 142 q 687 235 672 172 q 701 478 701 297 q 686 719 701 656 q 621 798 671 782 q 426 814 571 814 l 285 814 l 285 142 l 426 142 m 403 1033 l 265 1224 l 265 1233 l 364 1233 l 476 1108 l 589 1233 l 689 1233 l 689 1224 l 551 1033 l 403 1033 z "},"Đ":{"ha":956,"x_min":33,"x_max":857,"o":"m 128 419 l 33 419 l 33 547 l 128 547 l 128 956 l 442 956 q 728 918 644 956 q 835 790 813 881 q 857 478 857 699 q 835 165 857 257 q 728 37 813 74 q 442 0 644 0 l 128 0 l 128 419 m 426 142 q 623 157 574 142 q 687 235 672 172 q 701 478 701 297 q 686 719 701 656 q 621 798 671 782 q 426 814 571 814 l 285 814 l 285 547 l 424 547 l 424 419 l 285 419 l 285 142 l 426 142 z "},"Ḍ":{"ha":956,"x_min":128,"x_max":857,"o":"m 128 956 l 442 956 q 728 918 644 956 q 835 790 813 881 q 857 478 857 699 q 835 165 857 257 q 728 37 813 74 q 442 0 644 0 l 128 0 l 128 956 m 426 142 q 623 157 574 142 q 687 235 672 172 q 701 478 701 297 q 686 719 701 656 q 621 798 671 782 q 426 814 571 814 l 285 814 l 285 142 l 426 142 m 394 -253 l 394 -86 l 561 -86 l 561 -253 l 394 -253 z "},"ǲ":{"ha":1671,"x_min":128,"x_max":1600,"o":"m 128 956 l 442 956 q 728 918 644 956 q 835 790 813 881 q 857 478 857 699 q 835 165 857 257 q 728 37 813 74 q 442 0 644 0 l 128 0 l 128 956 m 426 142 q 623 157 574 142 q 687 235 672 172 q 701 478 701 297 q 686 719 701 656 q 621 798 671 782 q 426 814 571 814 l 285 814 l 285 142 l 426 142 m 1026 0 l 1026 121 l 1408 578 l 1043 578 l 1043 708 l 1597 708 l 1597 586 l 1217 131 l 1600 131 l 1600 0 l 1026 0 z "},"ǅ":{"ha":1671,"x_min":128,"x_max":1600,"o":"m 128 956 l 442 956 q 728 918 644 956 q 835 790 813 881 q 857 478 857 699 q 835 165 857 257 q 728 37 813 74 q 442 0 644 0 l 128 0 l 128 956 m 426 142 q 623 157 574 142 q 687 235 672 172 q 701 478 701 297 q 686 719 701 656 q 621 798 671 782 q 426 814 571 814 l 285 814 l 285 142 l 426 142 m 1026 0 l 1026 121 l 1408 578 l 1043 578 l 1043 708 l 1597 708 l 1597 586 l 1217 131 l 1600 131 l 1600 0 l 1026 0 m 1247 832 l 1110 1022 l 1110 1032 l 1208 1032 l 1321 907 l 1433 1032 l 1533 1032 l 1533 1022 l 1396 832 l 1247 832 z "},"E":{"ha":843,"x_min":128,"x_max":765,"o":"m 128 0 l 128 956 l 765 956 l 765 814 l 285 814 l 285 553 l 700 553 l 700 411 l 285 411 l 285 142 l 765 142 l 765 0 l 128 0 z "},"É":{"ha":843,"x_min":128,"x_max":765,"o":"m 128 0 l 128 956 l 765 956 l 765 814 l 285 814 l 285 553 l 700 553 l 700 411 l 285 411 l 285 142 l 765 142 l 765 0 l 128 0 m 393 1042 l 393 1049 l 529 1240 l 683 1240 l 683 1233 l 501 1042 l 393 1042 z "},"Ĕ":{"ha":843,"x_min":128,"x_max":765,"o":"m 128 0 l 128 956 l 765 956 l 765 814 l 285 814 l 285 553 l 700 553 l 700 411 l 285 411 l 285 142 l 765 142 l 765 0 l 128 0 m 646 1233 q 633 1122 646 1164 q 576 1054 619 1079 q 446 1029 533 1029 q 316 1054 358 1029 q 261 1121 274 1079 q 249 1233 249 1163 l 338 1233 q 343 1169 338 1190 q 372 1135 349 1147 q 446 1124 394 1124 q 519 1135 496 1124 q 549 1169 543 1147 q 554 1233 554 1190 l 646 1233 z "},"Ě":{"ha":843,"x_min":128,"x_max":765,"o":"m 128 0 l 128 956 l 765 956 l 765 814 l 285 814 l 285 553 l 700 553 l 700 411 l 285 411 l 285 142 l 765 142 l 765 0 l 128 0 m 372 1033 l 235 1224 l 235 1233 l 333 1233 l 446 1108 l 558 1233 l 658 1233 l 658 1224 l 521 1033 l 372 1033 z "},"Ê":{"ha":843,"x_min":128,"x_max":765,"o":"m 128 0 l 128 956 l 765 956 l 765 814 l 285 814 l 285 553 l 700 553 l 700 411 l 285 411 l 285 142 l 765 142 l 765 0 l 128 0 m 232 1042 l 232 1051 l 369 1242 l 518 1242 l 656 1051 l 656 1042 l 556 1042 l 443 1167 l 331 1042 l 232 1042 z "},"Ế":{"ha":843,"x_min":128,"x_max":778,"o":"m 128 0 l 128 956 l 765 956 l 765 814 l 285 814 l 285 553 l 700 553 l 700 411 l 285 411 l 285 142 l 765 142 l 765 0 l 128 0 m 231 1035 l 231 1044 l 368 1235 l 517 1235 l 654 1044 l 654 1035 l 554 1035 l 442 1160 l 329 1035 l 231 1035 m 488 1271 l 488 1278 l 624 1469 l 778 1469 l 778 1463 l 596 1271 l 488 1271 z "},"Ệ":{"ha":843,"x_min":128,"x_max":765,"o":"m 128 0 l 128 956 l 765 956 l 765 814 l 285 814 l 285 553 l 700 553 l 700 411 l 285 411 l 285 142 l 765 142 l 765 0 l 128 0 m 364 -253 l 364 -86 l 531 -86 l 531 -253 l 364 -253 m 235 1033 l 235 1043 l 372 1233 l 521 1233 l 658 1043 l 658 1033 l 558 1033 l 446 1158 l 333 1033 l 235 1033 z "},"Ề":{"ha":843,"x_min":128,"x_max":765,"o":"m 128 0 l 128 956 l 765 956 l 765 814 l 285 814 l 285 553 l 700 553 l 700 411 l 285 411 l 285 142 l 765 142 l 765 0 l 128 0 m 233 1035 l 233 1044 l 371 1235 l 519 1235 l 657 1044 l 657 1035 l 557 1035 l 444 1160 l 332 1035 l 233 1035 m 546 1272 l 364 1464 l 364 1471 l 517 1471 l 654 1279 l 654 1272 l 546 1272 z "},"Ể":{"ha":843,"x_min":128,"x_max":765,"o":"m 128 0 l 128 956 l 765 956 l 765 814 l 285 814 l 285 553 l 700 553 l 700 411 l 285 411 l 285 142 l 765 142 l 765 0 l 128 0 m 235 1035 l 235 1044 l 372 1235 l 521 1235 l 658 1044 l 658 1035 l 558 1035 l 446 1160 l 333 1035 l 235 1035 m 493 1269 q 506 1325 493 1310 q 557 1350 518 1340 l 586 1358 q 640 1379 628 1369 q 651 1411 651 1389 q 631 1451 651 1443 q 551 1458 611 1458 q 396 1453 493 1458 l 396 1528 q 563 1540 478 1540 q 669 1533 631 1540 q 729 1500 708 1525 q 750 1422 750 1475 q 731 1349 750 1371 q 660 1313 713 1328 l 629 1304 q 584 1287 592 1294 q 576 1258 576 1279 l 493 1258 l 493 1269 z "},"Ễ":{"ha":843,"x_min":128,"x_max":765,"o":"m 128 0 l 128 956 l 765 956 l 765 814 l 285 814 l 285 553 l 700 553 l 700 411 l 285 411 l 285 142 l 765 142 l 765 0 l 128 0 m 232 1035 l 232 1044 l 369 1235 l 518 1235 l 656 1044 l 656 1035 l 556 1035 l 443 1160 l 331 1035 l 232 1035 m 704 1476 q 697 1374 704 1410 q 667 1319 690 1338 q 593 1300 643 1300 q 518 1308 556 1300 q 429 1331 481 1315 q 365 1346 397 1339 q 310 1353 333 1353 q 276 1340 282 1353 q 269 1285 269 1328 l 188 1285 q 194 1388 188 1351 q 226 1442 201 1424 q 300 1461 250 1461 q 375 1453 338 1461 q 464 1431 413 1446 q 528 1415 496 1422 q 583 1408 560 1408 q 617 1421 611 1408 q 624 1476 624 1433 l 704 1476 z "},"Ȅ":{"ha":843,"x_min":121,"x_max":765,"o":"m 128 0 l 128 956 l 765 956 l 765 814 l 285 814 l 285 553 l 700 553 l 700 411 l 285 411 l 285 142 l 765 142 l 765 0 l 128 0 m 378 1046 l 286 1046 l 121 1217 l 121 1224 l 253 1224 l 378 1053 l 378 1046 m 644 1046 l 553 1046 l 389 1217 l 389 1224 l 518 1224 l 644 1053 l 644 1046 z "},"Ë":{"ha":843,"x_min":128,"x_max":765,"o":"m 128 0 l 128 956 l 765 956 l 765 814 l 285 814 l 285 553 l 700 553 l 700 411 l 285 411 l 285 142 l 765 142 l 765 0 l 128 0 m 251 1079 l 251 1210 l 383 1210 l 383 1079 l 251 1079 m 521 1079 l 521 1210 l 651 1210 l 651 1079 l 521 1079 z "},"Ė":{"ha":843,"x_min":128,"x_max":765,"o":"m 128 0 l 128 956 l 765 956 l 765 814 l 285 814 l 285 553 l 700 553 l 700 411 l 285 411 l 285 142 l 765 142 l 765 0 l 128 0 m 381 1085 l 381 1215 l 513 1215 l 513 1085 l 381 1085 z "},"Ẹ":{"ha":843,"x_min":128,"x_max":765,"o":"m 128 0 l 128 956 l 765 956 l 765 814 l 285 814 l 285 553 l 700 553 l 700 411 l 285 411 l 285 142 l 765 142 l 765 0 l 128 0 m 364 -253 l 364 -86 l 531 -86 l 531 -253 l 364 -253 z "},"È":{"ha":843,"x_min":128,"x_max":765,"o":"m 128 0 l 128 956 l 765 956 l 765 814 l 285 814 l 285 553 l 700 553 l 700 411 l 285 411 l 285 142 l 765 142 l 765 0 l 128 0 m 422 1042 l 240 1233 l 240 1240 l 393 1240 l 531 1049 l 531 1042 l 422 1042 z "},"Ẻ":{"ha":843,"x_min":128,"x_max":765,"o":"m 128 0 l 128 956 l 765 956 l 765 814 l 285 814 l 285 553 l 700 553 l 700 411 l 285 411 l 285 142 l 765 142 l 765 0 l 128 0 m 368 1029 q 381 1085 368 1069 q 432 1111 393 1100 l 461 1119 q 515 1140 503 1131 q 526 1171 526 1149 q 516 1205 526 1194 q 484 1217 506 1215 q 414 1219 463 1219 q 271 1213 343 1219 l 271 1288 q 438 1300 353 1300 q 545 1293 507 1300 q 604 1260 583 1286 q 625 1182 625 1235 q 606 1110 625 1131 q 535 1074 588 1089 l 504 1065 q 459 1048 467 1056 q 451 1018 451 1040 l 368 1018 l 368 1029 z "},"Ȇ":{"ha":843,"x_min":128,"x_max":765,"o":"m 128 0 l 128 956 l 765 956 l 765 814 l 285 814 l 285 553 l 700 553 l 700 411 l 285 411 l 285 142 l 765 142 l 765 0 l 128 0 m 249 1038 q 262 1149 249 1107 q 318 1217 275 1192 q 449 1242 361 1242 q 578 1217 536 1242 q 633 1150 621 1192 q 646 1038 646 1108 l 557 1038 q 551 1102 557 1081 q 523 1135 546 1124 q 449 1147 500 1147 q 375 1135 399 1147 q 346 1102 351 1124 q 340 1038 340 1081 l 249 1038 z "},"Ē":{"ha":843,"x_min":128,"x_max":765,"o":"m 128 0 l 128 956 l 765 956 l 765 814 l 285 814 l 285 553 l 700 553 l 700 411 l 285 411 l 285 142 l 765 142 l 765 0 l 128 0 m 271 1093 l 271 1232 l 624 1232 l 624 1093 l 271 1093 z "},"Ę":{"ha":843,"x_min":128,"x_max":765,"o":"m 692 -272 q 544 -165 544 -272 q 638 0 544 -85 l 128 0 l 128 956 l 765 956 l 765 814 l 285 814 l 285 553 l 700 553 l 700 411 l 285 411 l 285 142 l 765 142 l 765 0 q 700 -59 731 -22 q 669 -128 669 -96 q 685 -162 669 -149 q 733 -176 700 -176 l 760 -175 l 760 -268 q 737 -270 757 -268 q 692 -272 717 -272 z "},"Ẽ":{"ha":843,"x_min":128,"x_max":765,"o":"m 128 0 l 128 956 l 765 956 l 765 814 l 285 814 l 285 553 l 700 553 l 700 411 l 285 411 l 285 142 l 765 142 l 765 0 l 128 0 m 704 1235 q 697 1132 704 1168 q 667 1077 690 1096 q 593 1058 643 1058 q 518 1066 556 1058 q 429 1089 481 1074 q 365 1104 397 1097 q 310 1111 333 1111 q 276 1099 282 1111 q 269 1043 269 1086 l 188 1043 q 194 1146 188 1110 q 226 1201 201 1182 q 300 1219 250 1219 q 375 1212 338 1219 q 464 1189 413 1204 q 528 1174 496 1181 q 583 1167 560 1167 q 617 1179 611 1167 q 624 1235 624 1192 l 704 1235 z "},"F":{"ha":790,"x_min":128,"x_max":738,"o":"m 128 0 l 128 956 l 738 956 l 738 814 l 285 814 l 285 529 l 686 529 l 686 388 l 285 388 l 285 0 l 128 0 z "},"G":{"ha":935,"x_min":96,"x_max":822,"o":"m 483 396 l 483 532 l 822 532 l 822 19 q 663 -3 750 6 q 510 -11 575 -11 q 247 29 333 -11 q 128 172 161 69 q 96 478 96 274 q 129 784 96 682 q 249 926 163 886 q 510 967 335 967 q 665 958 579 967 q 817 936 751 950 l 817 804 q 576 825 660 825 q 359 808 419 825 q 276 722 299 792 q 253 478 253 653 q 270 247 253 317 q 340 151 288 176 q 514 126 393 126 q 671 135 617 126 l 671 396 l 483 396 z "},"Ǵ":{"ha":935,"x_min":96,"x_max":822,"o":"m 483 396 l 483 532 l 822 532 l 822 19 q 663 -3 750 6 q 510 -11 575 -11 q 247 29 333 -11 q 128 172 161 69 q 96 478 96 274 q 129 784 96 682 q 249 926 163 886 q 510 967 335 967 q 665 958 579 967 q 817 936 751 950 l 817 804 q 576 825 660 825 q 359 808 419 825 q 276 722 299 792 q 253 478 253 653 q 270 247 253 317 q 340 151 288 176 q 514 126 393 126 q 671 135 617 126 l 671 396 l 483 396 m 408 1035 l 408 1042 l 544 1233 l 699 1233 l 699 1226 l 517 1035 l 408 1035 z "},"Ğ":{"ha":935,"x_min":96,"x_max":822,"o":"m 483 396 l 483 532 l 822 532 l 822 19 q 663 -3 750 6 q 510 -11 575 -11 q 247 29 333 -11 q 128 172 161 69 q 96 478 96 274 q 129 784 96 682 q 249 926 163 886 q 510 967 335 967 q 665 958 579 967 q 817 936 751 950 l 817 804 q 576 825 660 825 q 359 808 419 825 q 276 722 299 792 q 253 478 253 653 q 270 247 253 317 q 340 151 288 176 q 514 126 393 126 q 671 135 617 126 l 671 396 l 483 396 m 667 1233 q 653 1122 667 1164 q 597 1054 640 1079 q 467 1029 554 1029 q 337 1054 379 1029 q 282 1121 294 1079 q 269 1233 269 1163 l 358 1233 q 364 1169 358 1190 q 392 1135 369 1147 q 467 1124 415 1124 q 540 1135 517 1124 q 569 1169 564 1147 q 575 1233 575 1190 l 667 1233 z "},"Ǧ":{"ha":935,"x_min":96,"x_max":822,"o":"m 483 396 l 483 532 l 822 532 l 822 19 q 663 -3 750 6 q 510 -11 575 -11 q 247 29 333 -11 q 128 172 161 69 q 96 478 96 274 q 129 784 96 682 q 249 926 163 886 q 510 967 335 967 q 665 958 579 967 q 817 936 751 950 l 817 804 q 576 825 660 825 q 359 808 419 825 q 276 722 299 792 q 253 478 253 653 q 270 247 253 317 q 340 151 288 176 q 514 126 393 126 q 671 135 617 126 l 671 396 l 483 396 m 393 1033 l 256 1224 l 256 1233 l 354 1233 l 467 1108 l 579 1233 l 679 1233 l 679 1224 l 542 1033 l 393 1033 z "},"Ĝ":{"ha":935,"x_min":96,"x_max":822,"o":"m 483 396 l 483 532 l 822 532 l 822 19 q 663 -3 750 6 q 510 -11 575 -11 q 247 29 333 -11 q 128 172 161 69 q 96 478 96 274 q 129 784 96 682 q 249 926 163 886 q 510 967 335 967 q 665 958 579 967 q 817 936 751 950 l 817 804 q 576 825 660 825 q 359 808 419 825 q 276 722 299 792 q 253 478 253 653 q 270 247 253 317 q 340 151 288 176 q 514 126 393 126 q 671 135 617 126 l 671 396 l 483 396 m 256 1033 l 256 1043 l 393 1233 l 542 1233 l 679 1043 l 679 1033 l 579 1033 l 467 1158 l 354 1033 l 256 1033 z "},"Ģ":{"ha":935,"x_min":96,"x_max":822,"o":"m 483 396 l 483 532 l 822 532 l 822 19 q 663 -3 750 6 q 510 -11 575 -11 q 247 29 333 -11 q 128 172 161 69 q 96 478 96 274 q 129 784 96 682 q 249 926 163 886 q 510 967 335 967 q 665 958 579 967 q 817 936 751 950 l 817 804 q 576 825 660 825 q 359 808 419 825 q 276 722 299 792 q 253 478 253 653 q 270 247 253 317 q 340 151 288 176 q 514 126 393 126 q 671 135 617 126 l 671 396 l 483 396 m 376 -326 q 447 -316 429 -326 q 464 -269 464 -306 l 464 -246 l 399 -246 l 399 -86 l 558 -86 l 558 -201 q 546 -324 558 -285 q 496 -378 533 -362 q 376 -393 458 -393 l 376 -326 z "},"Ġ":{"ha":935,"x_min":96,"x_max":822,"o":"m 483 396 l 483 532 l 822 532 l 822 19 q 663 -3 750 6 q 510 -11 575 -11 q 247 29 333 -11 q 128 172 161 69 q 96 478 96 274 q 129 784 96 682 q 249 926 163 886 q 510 967 335 967 q 665 958 579 967 q 817 936 751 950 l 817 804 q 576 825 660 825 q 359 808 419 825 q 276 722 299 792 q 253 478 253 653 q 270 247 253 317 q 340 151 288 176 q 514 126 393 126 q 671 135 617 126 l 671 396 l 483 396 m 401 1085 l 401 1215 l 533 1215 l 533 1085 l 401 1085 z "},"H":{"ha":1013,"x_min":128,"x_max":885,"o":"m 729 0 l 729 408 l 285 408 l 285 0 l 128 0 l 128 956 l 285 956 l 285 554 l 729 554 l 729 956 l 885 956 l 885 0 l 729 0 z "},"Ħ":{"ha":1013,"x_min":128,"x_max":885,"o":"m 729 956 l 885 956 l 885 0 l 729 0 l 729 354 l 285 354 l 285 0 l 128 0 l 128 956 l 285 956 l 285 786 l 729 786 l 729 956 m 285 501 l 729 501 l 729 658 l 285 658 l 285 501 z "},"Ĥ":{"ha":1013,"x_min":128,"x_max":885,"o":"m 729 0 l 729 408 l 285 408 l 285 0 l 128 0 l 128 956 l 285 956 l 285 554 l 729 554 l 729 956 l 885 956 l 885 0 l 729 0 m 294 1033 l 294 1043 l 432 1233 l 581 1233 l 718 1043 l 718 1033 l 618 1033 l 506 1158 l 393 1033 l 294 1033 z "},"Ḥ":{"ha":1013,"x_min":128,"x_max":885,"o":"m 729 0 l 729 408 l 285 408 l 285 0 l 128 0 l 128 956 l 285 956 l 285 554 l 729 554 l 729 956 l 885 956 l 885 0 l 729 0 m 424 -253 l 424 -86 l 590 -86 l 590 -253 l 424 -253 z "},"I":{"ha":411,"x_min":128,"x_max":285,"o":"m 128 0 l 128 956 l 285 956 l 285 0 l 128 0 z "},"Ĳ":{"ha":928,"x_min":128,"x_max":808,"o":"m 128 0 l 128 956 l 285 956 l 285 0 l 128 0 m 453 133 q 596 147 558 135 q 642 200 633 160 q 651 358 651 240 l 651 956 l 808 956 l 808 406 q 790 117 808 192 q 706 22 771 42 q 453 0 640 1 l 453 133 z "},"Í":{"ha":411,"x_min":128,"x_max":421,"o":"m 128 0 l 128 956 l 285 956 l 285 0 l 128 0 m 131 1042 l 131 1049 l 267 1240 l 421 1240 l 421 1233 l 239 1042 l 131 1042 z "},"Ĭ":{"ha":411,"x_min":7,"x_max":404,"o":"m 128 0 l 128 956 l 285 956 l 285 0 l 128 0 m 404 1233 q 391 1122 404 1164 q 335 1054 378 1079 q 204 1029 292 1029 q 74 1054 117 1029 q 19 1121 32 1079 q 7 1233 7 1163 l 96 1233 q 101 1169 96 1190 q 130 1135 107 1147 q 204 1124 153 1124 q 278 1135 254 1124 q 307 1169 301 1147 q 313 1233 313 1190 l 404 1233 z "},"Ǐ":{"ha":411,"x_min":-7,"x_max":417,"o":"m 128 0 l 128 956 l 285 956 l 285 0 l 128 0 m 131 1033 l -7 1224 l -7 1233 l 92 1233 l 204 1108 l 317 1233 l 417 1233 l 417 1224 l 279 1033 l 131 1033 z "},"Î":{"ha":411,"x_min":-7,"x_max":417,"o":"m 128 0 l 128 956 l 285 956 l 285 0 l 128 0 m -7 1042 l -7 1051 l 131 1242 l 279 1242 l 417 1051 l 417 1042 l 317 1042 l 204 1167 l 92 1042 l -7 1042 z "},"Ȉ":{"ha":411,"x_min":-121,"x_max":403,"o":"m 128 0 l 128 956 l 285 956 l 285 0 l 128 0 m 136 1046 l 44 1046 l -121 1217 l -121 1224 l 11 1224 l 136 1053 l 136 1046 m 403 1046 l 311 1046 l 147 1217 l 147 1224 l 276 1224 l 403 1053 l 403 1046 z "},"Ï":{"ha":411,"x_min":6,"x_max":406,"o":"m 128 0 l 128 956 l 285 956 l 285 0 l 128 0 m 6 1079 l 6 1210 l 138 1210 l 138 1079 l 6 1079 m 275 1079 l 275 1210 l 406 1210 l 406 1079 l 275 1079 z "},"İ":{"ha":411,"x_min":128,"x_max":285,"o":"m 128 0 l 128 956 l 285 956 l 285 0 l 128 0 m 139 1085 l 139 1215 l 271 1215 l 271 1085 l 139 1085 z "},"Ị":{"ha":411,"x_min":122,"x_max":289,"o":"m 128 0 l 128 956 l 285 956 l 285 0 l 128 0 m 122 -253 l 122 -86 l 289 -86 l 289 -253 l 122 -253 z "},"Ì":{"ha":411,"x_min":0,"x_max":290,"o":"m 128 0 l 128 956 l 285 956 l 285 0 l 128 0 m 182 1042 l 0 1233 l 0 1240 l 153 1240 l 290 1049 l 290 1042 l 182 1042 z "},"Ỉ":{"ha":411,"x_min":29,"x_max":383,"o":"m 128 0 l 128 956 l 285 956 l 285 0 l 128 0 m 126 1029 q 139 1085 126 1069 q 190 1111 151 1100 l 219 1119 q 273 1140 261 1131 q 285 1171 285 1149 q 274 1205 285 1194 q 242 1217 264 1215 q 172 1219 221 1219 q 29 1213 101 1219 l 29 1288 q 196 1300 111 1300 q 303 1293 265 1300 q 363 1260 342 1286 q 383 1182 383 1235 q 365 1110 383 1131 q 293 1074 346 1089 l 263 1065 q 217 1048 225 1056 q 210 1018 210 1040 l 126 1018 l 126 1029 z "},"Ȋ":{"ha":411,"x_min":7,"x_max":404,"o":"m 128 0 l 128 956 l 285 956 l 285 0 l 128 0 m 7 1038 q 20 1149 7 1107 q 76 1217 33 1192 q 207 1242 119 1242 q 337 1217 294 1242 q 392 1150 379 1192 q 404 1038 404 1108 l 315 1038 q 310 1102 315 1081 q 281 1135 304 1124 q 207 1147 258 1147 q 133 1135 157 1147 q 104 1102 110 1124 q 99 1038 99 1081 l 7 1038 z "},"Ī":{"ha":411,"x_min":29,"x_max":382,"o":"m 128 0 l 128 956 l 285 956 l 285 0 l 128 0 m 29 1093 l 29 1232 l 382 1232 l 382 1093 l 29 1093 z "},"Į":{"ha":411,"x_min":71,"x_max":286,"o":"m 218 -272 q 103 -242 136 -272 q 71 -161 71 -212 q 94 -80 71 -122 q 157 0 118 -37 l 128 0 l 128 956 l 285 956 l 285 0 q 226 -57 254 -19 q 197 -125 197 -94 q 212 -163 197 -150 q 263 -176 226 -176 l 286 -175 l 286 -268 q 263 -270 283 -268 q 218 -272 243 -272 z "},"Ĩ":{"ha":411,"x_min":-54,"x_max":463,"o":"m 128 0 l 128 956 l 285 956 l 285 0 l 128 0 m 463 1235 q 456 1132 463 1168 q 425 1077 449 1096 q 351 1058 401 1058 q 276 1066 314 1058 q 188 1089 239 1074 q 124 1104 156 1097 q 68 1111 92 1111 q 34 1099 40 1111 q 28 1043 28 1086 l -54 1043 q -47 1146 -54 1110 q -16 1201 -40 1182 q 58 1219 8 1219 q 133 1212 96 1219 q 222 1189 171 1204 q 286 1174 254 1181 q 342 1167 318 1167 q 376 1179 369 1167 q 382 1235 382 1192 l 463 1235 z "},"J":{"ha":517,"x_min":42,"x_max":397,"o":"m 42 133 q 185 147 147 135 q 231 200 222 160 q 240 358 240 240 l 240 956 l 397 956 l 397 406 q 378 117 397 192 q 294 22 360 42 q 42 0 229 1 l 42 133 z "},"Ĵ":{"ha":517,"x_min":42,"x_max":531,"o":"m 42 133 q 185 147 147 135 q 231 200 222 160 q 240 358 240 240 l 240 956 l 397 956 l 397 406 q 378 117 397 192 q 294 22 360 42 q 42 0 229 1 l 42 133 m 107 1033 l 107 1043 l 244 1233 l 393 1233 l 531 1043 l 531 1033 l 431 1033 l 318 1158 l 206 1033 l 107 1033 z "},"K":{"ha":938,"x_min":128,"x_max":910,"o":"m 726 0 l 419 415 l 285 415 l 285 0 l 128 0 l 128 956 l 285 956 l 285 557 l 419 557 l 732 956 l 906 956 l 546 496 l 910 0 l 726 0 z "},"Ķ":{"ha":938,"x_min":128,"x_max":910,"o":"m 726 0 l 419 415 l 285 415 l 285 0 l 128 0 l 128 956 l 285 956 l 285 557 l 419 557 l 732 956 l 906 956 l 546 496 l 910 0 l 726 0 m 378 -326 q 448 -316 431 -326 q 465 -269 465 -306 l 465 -246 l 400 -246 l 400 -86 l 560 -86 l 560 -201 q 547 -324 560 -285 q 497 -378 535 -362 q 378 -393 460 -393 l 378 -326 z "},"L":{"ha":750,"x_min":128,"x_max":710,"o":"m 128 0 l 128 956 l 285 956 l 285 146 l 710 146 l 710 0 l 128 0 z "},"Ǉ":{"ha":1267,"x_min":128,"x_max":1147,"o":"m 128 0 l 128 956 l 285 956 l 285 146 l 710 146 l 710 0 l 128 0 m 792 133 q 935 147 897 135 q 981 200 972 160 q 990 358 990 240 l 990 956 l 1147 956 l 1147 406 q 1128 117 1147 192 q 1044 22 1110 42 q 792 0 979 1 l 792 133 z "},"Ĺ":{"ha":750,"x_min":128,"x_max":710,"o":"m 128 0 l 128 956 l 285 956 l 285 146 l 710 146 l 710 0 l 128 0 m 146 1035 l 146 1042 l 282 1233 l 436 1233 l 436 1226 l 254 1035 l 146 1035 z "},"Ľ":{"ha":750,"x_min":128,"x_max":710,"o":"m 128 0 l 128 956 l 285 956 l 285 146 l 710 146 l 710 0 l 128 0 m 460 607 l 481 863 l 481 956 l 619 956 l 619 863 l 563 607 l 460 607 z "},"Ļ":{"ha":750,"x_min":128,"x_max":710,"o":"m 128 0 l 128 956 l 285 956 l 285 146 l 710 146 l 710 0 l 128 0 m 311 -326 q 381 -316 364 -326 q 399 -269 399 -306 l 399 -246 l 333 -246 l 333 -86 l 493 -86 l 493 -201 q 481 -324 493 -285 q 431 -378 468 -362 q 311 -393 393 -393 l 311 -326 z "},"Ŀ":{"ha":750,"x_min":128,"x_max":710,"o":"m 128 0 l 128 956 l 285 956 l 285 146 l 710 146 l 710 0 l 128 0 m 499 435 l 499 601 l 665 601 l 665 435 l 499 435 z "},"ǈ":{"ha":1118,"x_min":128,"x_max":1011,"o":"m 128 0 l 128 956 l 285 956 l 285 146 l 710 146 l 710 0 l 128 0 m 857 882 l 857 1032 l 1011 1032 l 1011 882 l 857 882 m 732 -158 q 818 -151 792 -158 q 852 -129 844 -144 q 860 -82 860 -114 l 860 708 l 1007 708 l 1007 -50 q 983 -203 1007 -156 q 905 -264 960 -250 q 732 -278 850 -278 l 732 -158 z "},"Ł":{"ha":750,"x_min":42,"x_max":710,"o":"m 285 146 l 710 146 l 710 0 l 128 0 l 128 385 l 42 351 l 42 476 l 128 510 l 128 956 l 285 956 l 285 569 l 531 663 l 531 538 l 285 444 l 285 146 z "},"M":{"ha":1253,"x_min":128,"x_max":1125,"o":"m 974 0 l 974 699 l 968 699 l 679 0 l 568 0 l 281 699 l 275 699 l 275 0 l 128 0 l 128 956 l 342 956 l 624 279 l 631 279 l 913 956 l 1125 956 l 1125 0 l 974 0 z "},"N":{"ha":1013,"x_min":128,"x_max":885,"o":"m 735 0 l 283 669 l 278 669 l 278 0 l 128 0 l 128 956 l 290 956 l 729 310 l 735 310 l 735 956 l 885 956 l 885 0 l 735 0 z "},"Ǌ":{"ha":1529,"x_min":128,"x_max":1410,"o":"m 735 0 l 283 669 l 278 669 l 278 0 l 128 0 l 128 956 l 290 956 l 729 310 l 735 310 l 735 956 l 885 956 l 885 0 l 735 0 m 1054 133 q 1197 147 1160 135 q 1244 200 1235 160 q 1253 358 1253 240 l 1253 956 l 1410 956 l 1410 406 q 1391 117 1410 192 q 1307 22 1372 42 q 1054 0 1242 1 l 1054 133 z "},"Ń":{"ha":1013,"x_min":128,"x_max":885,"o":"m 735 0 l 283 669 l 278 669 l 278 0 l 128 0 l 128 956 l 290 956 l 729 310 l 735 310 l 735 956 l 885 956 l 885 0 l 735 0 m 447 1035 l 447 1042 l 583 1233 l 738 1233 l 738 1226 l 556 1035 l 447 1035 z "},"Ň":{"ha":1013,"x_min":128,"x_max":885,"o":"m 735 0 l 283 669 l 278 669 l 278 0 l 128 0 l 128 956 l 290 956 l 729 310 l 735 310 l 735 956 l 885 956 l 885 0 l 735 0 m 432 1033 l 294 1224 l 294 1233 l 393 1233 l 506 1108 l 618 1233 l 718 1233 l 718 1224 l 581 1033 l 432 1033 z "},"Ņ":{"ha":1013,"x_min":128,"x_max":885,"o":"m 735 0 l 283 669 l 278 669 l 278 0 l 128 0 l 128 956 l 290 956 l 729 310 l 735 310 l 735 956 l 885 956 l 885 0 l 735 0 m 415 -326 q 485 -316 468 -326 q 503 -269 503 -306 l 503 -246 l 438 -246 l 438 -86 l 597 -86 l 597 -201 q 585 -324 597 -285 q 535 -378 572 -362 q 415 -393 497 -393 l 415 -326 z "},"Ṅ":{"ha":1013,"x_min":128,"x_max":885,"o":"m 735 0 l 283 669 l 278 669 l 278 0 l 128 0 l 128 956 l 290 956 l 729 310 l 735 310 l 735 956 l 885 956 l 885 0 l 735 0 m 440 1085 l 440 1215 l 572 1215 l 572 1085 l 440 1085 z "},"Ŋ":{"ha":1013,"x_min":128,"x_max":885,"o":"m 885 956 l 885 -50 q 861 -203 885 -156 q 782 -264 838 -250 q 607 -278 726 -278 l 607 -158 q 692 -151 665 -158 q 727 -129 719 -144 q 735 -82 735 -114 l 735 0 l 283 669 l 278 669 l 278 0 l 128 0 l 128 956 l 290 956 l 729 310 l 735 310 l 735 956 l 885 956 z "},"Ɲ":{"ha":1013,"x_min":0,"x_max":885,"o":"m 885 956 l 885 0 l 735 0 l 283 669 l 278 669 l 278 -50 q 253 -203 278 -156 q 174 -264 229 -250 q 0 -278 118 -278 l 0 -158 q 85 -151 58 -158 q 120 -129 113 -144 q 128 -82 128 -114 l 128 956 l 290 956 l 729 310 l 735 310 l 735 956 l 885 956 z "},"ǋ":{"ha":1381,"x_min":128,"x_max":1274,"o":"m 735 0 l 283 669 l 278 669 l 278 0 l 128 0 l 128 956 l 290 956 l 729 310 l 735 310 l 735 956 l 885 956 l 885 0 l 735 0 m 1119 882 l 1119 1032 l 1274 1032 l 1274 882 l 1119 882 m 994 -158 q 1081 -151 1054 -158 q 1115 -129 1107 -144 q 1122 -82 1122 -114 l 1122 708 l 1269 708 l 1269 -50 q 1246 -203 1269 -156 q 1167 -264 1222 -250 q 994 -278 1113 -278 l 994 -158 z "},"Ñ":{"ha":1013,"x_min":128,"x_max":885,"o":"m 735 0 l 283 669 l 278 669 l 278 0 l 128 0 l 128 956 l 290 956 l 729 310 l 735 310 l 735 956 l 885 956 l 885 0 l 735 0 m 764 1236 q 757 1133 764 1169 q 726 1078 750 1097 q 653 1060 703 1060 q 578 1067 615 1060 q 489 1090 540 1075 q 425 1106 457 1099 q 369 1113 393 1113 q 335 1100 342 1113 q 329 1044 329 1088 l 247 1044 q 254 1147 247 1111 q 285 1202 261 1183 q 360 1221 310 1221 q 435 1213 397 1221 q 524 1190 472 1206 q 588 1175 556 1182 q 643 1168 619 1168 q 677 1181 671 1168 q 683 1236 683 1193 l 764 1236 z "},"O":{"ha":990,"x_min":96,"x_max":894,"o":"m 494 -11 q 222 28 303 -11 q 118 163 140 68 q 96 478 96 257 q 118 793 96 699 q 222 927 140 888 q 494 967 303 967 q 768 927 686 967 q 872 792 850 888 q 894 478 894 697 q 872 163 894 258 q 768 28 850 68 q 494 -11 686 -11 m 494 131 q 667 147 622 131 q 724 229 711 164 q 738 478 738 294 q 724 726 738 661 q 667 808 711 792 q 494 825 622 825 q 323 808 367 825 q 266 726 279 792 q 253 478 253 661 q 266 229 253 294 q 323 147 279 164 q 494 131 367 131 z "},"Ó":{"ha":990,"x_min":96,"x_max":894,"o":"m 494 -11 q 222 28 303 -11 q 118 163 140 68 q 96 478 96 257 q 118 793 96 699 q 222 927 140 888 q 494 967 303 967 q 768 927 686 967 q 872 792 850 888 q 894 478 894 697 q 872 163 894 258 q 768 28 850 68 q 494 -11 686 -11 m 494 131 q 667 147 622 131 q 724 229 711 164 q 738 478 738 294 q 724 726 738 661 q 667 808 711 792 q 494 825 622 825 q 323 808 367 825 q 266 726 279 792 q 253 478 253 661 q 266 229 253 294 q 323 147 279 164 q 494 131 367 131 m 422 1042 l 422 1049 l 558 1240 l 713 1240 l 713 1233 l 531 1042 l 422 1042 z "},"Ŏ":{"ha":990,"x_min":96,"x_max":894,"o":"m 494 -11 q 222 28 303 -11 q 118 163 140 68 q 96 478 96 257 q 118 793 96 699 q 222 927 140 888 q 494 967 303 967 q 768 927 686 967 q 872 792 850 888 q 894 478 894 697 q 872 163 894 258 q 768 28 850 68 q 494 -11 686 -11 m 494 131 q 667 147 622 131 q 724 229 711 164 q 738 478 738 294 q 724 726 738 661 q 667 808 711 792 q 494 825 622 825 q 323 808 367 825 q 266 726 279 792 q 253 478 253 661 q 266 229 253 294 q 323 147 279 164 q 494 131 367 131 m 694 1233 q 681 1122 694 1164 q 625 1054 668 1079 q 494 1029 582 1029 q 365 1054 407 1029 q 310 1121 322 1079 q 297 1233 297 1163 l 386 1233 q 392 1169 386 1190 q 420 1135 397 1147 q 494 1124 443 1124 q 568 1135 544 1124 q 597 1169 592 1147 q 603 1233 603 1190 l 694 1233 z "},"Ǒ":{"ha":990,"x_min":96,"x_max":894,"o":"m 494 -11 q 222 28 303 -11 q 118 163 140 68 q 96 478 96 257 q 118 793 96 699 q 222 927 140 888 q 494 967 303 967 q 768 927 686 967 q 872 792 850 888 q 894 478 894 697 q 872 163 894 258 q 768 28 850 68 q 494 -11 686 -11 m 494 131 q 667 147 622 131 q 724 229 711 164 q 738 478 738 294 q 724 726 738 661 q 667 808 711 792 q 494 825 622 825 q 323 808 367 825 q 266 726 279 792 q 253 478 253 661 q 266 229 253 294 q 323 147 279 164 q 494 131 367 131 m 421 1033 l 283 1224 l 283 1233 l 382 1233 l 494 1108 l 607 1233 l 707 1233 l 707 1224 l 569 1033 l 421 1033 z "},"Ô":{"ha":990,"x_min":96,"x_max":894,"o":"m 494 -11 q 222 28 303 -11 q 118 163 140 68 q 96 478 96 257 q 118 793 96 699 q 222 927 140 888 q 494 967 303 967 q 768 927 686 967 q 872 792 850 888 q 894 478 894 697 q 872 163 894 258 q 768 28 850 68 q 494 -11 686 -11 m 494 131 q 667 147 622 131 q 724 229 711 164 q 738 478 738 294 q 724 726 738 661 q 667 808 711 792 q 494 825 622 825 q 323 808 367 825 q 266 726 279 792 q 253 478 253 661 q 266 229 253 294 q 323 147 279 164 q 494 131 367 131 m 282 1042 l 282 1051 l 419 1242 l 568 1242 l 706 1051 l 706 1042 l 606 1042 l 493 1167 l 381 1042 l 282 1042 z "},"Ố":{"ha":990,"x_min":96,"x_max":894,"o":"m 494 -11 q 222 28 303 -11 q 118 163 140 68 q 96 478 96 257 q 118 793 96 699 q 222 927 140 888 q 494 967 303 967 q 768 927 686 967 q 872 792 850 888 q 894 478 894 697 q 872 163 894 258 q 768 28 850 68 q 494 -11 686 -11 m 494 131 q 667 147 622 131 q 724 229 711 164 q 738 478 738 294 q 724 726 738 661 q 667 808 711 792 q 494 825 622 825 q 323 808 367 825 q 266 726 279 792 q 253 478 253 661 q 266 229 253 294 q 323 147 279 164 q 494 131 367 131 m 279 1035 l 279 1044 l 417 1235 l 565 1235 l 703 1044 l 703 1035 l 603 1035 l 490 1160 l 378 1035 l 279 1035 m 536 1271 l 536 1278 l 672 1469 l 826 1469 l 826 1463 l 644 1271 l 536 1271 z "},"Ộ":{"ha":990,"x_min":96,"x_max":894,"o":"m 494 -11 q 222 28 303 -11 q 118 163 140 68 q 96 478 96 257 q 118 793 96 699 q 222 927 140 888 q 494 967 303 967 q 768 927 686 967 q 872 792 850 888 q 894 478 894 697 q 872 163 894 258 q 768 28 850 68 q 494 -11 686 -11 m 494 131 q 667 147 622 131 q 724 229 711 164 q 738 478 738 294 q 724 726 738 661 q 667 808 711 792 q 494 825 622 825 q 323 808 367 825 q 266 726 279 792 q 253 478 253 661 q 266 229 253 294 q 323 147 279 164 q 494 131 367 131 m 413 -253 l 413 -86 l 579 -86 l 579 -253 l 413 -253 m 283 1033 l 283 1043 l 421 1233 l 569 1233 l 707 1043 l 707 1033 l 607 1033 l 494 1158 l 382 1033 l 283 1033 z "},"Ồ":{"ha":990,"x_min":96,"x_max":894,"o":"m 494 -11 q 222 28 303 -11 q 118 163 140 68 q 96 478 96 257 q 118 793 96 699 q 222 927 140 888 q 494 967 303 967 q 768 927 686 967 q 872 792 850 888 q 894 478 894 697 q 872 163 894 258 q 768 28 850 68 q 494 -11 686 -11 m 494 131 q 667 147 622 131 q 724 229 711 164 q 738 478 738 294 q 724 726 738 661 q 667 808 711 792 q 494 825 622 825 q 323 808 367 825 q 266 726 279 792 q 253 478 253 661 q 266 229 253 294 q 323 147 279 164 q 494 131 367 131 m 282 1035 l 282 1044 l 419 1235 l 568 1235 l 706 1044 l 706 1035 l 606 1035 l 493 1160 l 381 1035 l 282 1035 m 594 1272 l 413 1464 l 413 1471 l 565 1471 l 703 1279 l 703 1272 l 594 1272 z "},"Ổ":{"ha":990,"x_min":96,"x_max":894,"o":"m 494 -11 q 222 28 303 -11 q 118 163 140 68 q 96 478 96 257 q 118 793 96 699 q 222 927 140 888 q 494 967 303 967 q 768 927 686 967 q 872 792 850 888 q 894 478 894 697 q 872 163 894 258 q 768 28 850 68 q 494 -11 686 -11 m 494 131 q 667 147 622 131 q 724 229 711 164 q 738 478 738 294 q 724 726 738 661 q 667 808 711 792 q 494 825 622 825 q 323 808 367 825 q 266 726 279 792 q 253 478 253 661 q 266 229 253 294 q 323 147 279 164 q 494 131 367 131 m 283 1035 l 283 1044 l 421 1235 l 569 1235 l 707 1044 l 707 1035 l 607 1035 l 494 1160 l 382 1035 l 283 1035 m 542 1269 q 554 1325 542 1310 q 606 1350 567 1340 l 635 1358 q 688 1379 676 1369 q 700 1411 700 1389 q 680 1451 700 1443 q 600 1458 660 1458 q 444 1453 542 1458 l 444 1528 q 611 1540 526 1540 q 718 1533 679 1540 q 778 1500 757 1525 q 799 1422 799 1475 q 780 1349 799 1371 q 708 1313 761 1328 l 678 1304 q 633 1287 640 1294 q 625 1258 625 1279 l 542 1258 l 542 1269 z "},"Ỗ":{"ha":990,"x_min":96,"x_max":894,"o":"m 494 -11 q 222 28 303 -11 q 118 163 140 68 q 96 478 96 257 q 118 793 96 699 q 222 927 140 888 q 494 967 303 967 q 768 927 686 967 q 872 792 850 888 q 894 478 894 697 q 872 163 894 258 q 768 28 850 68 q 494 -11 686 -11 m 494 131 q 667 147 622 131 q 724 229 711 164 q 738 478 738 294 q 724 726 738 661 q 667 808 711 792 q 494 825 622 825 q 323 808 367 825 q 266 726 279 792 q 253 478 253 661 q 266 229 253 294 q 323 147 279 164 q 494 131 367 131 m 281 1035 l 281 1044 l 418 1235 l 567 1235 l 704 1044 l 704 1035 l 604 1035 l 492 1160 l 379 1035 l 281 1035 m 753 1476 q 746 1374 753 1410 q 715 1319 739 1338 q 642 1300 692 1300 q 567 1308 604 1300 q 478 1331 529 1315 q 414 1346 446 1339 q 358 1353 382 1353 q 324 1340 331 1353 q 318 1285 318 1328 l 236 1285 q 243 1388 236 1351 q 274 1442 250 1424 q 349 1461 299 1461 q 424 1453 386 1461 q 513 1431 461 1446 q 576 1415 544 1422 q 632 1408 608 1408 q 666 1421 660 1408 q 672 1476 672 1433 l 753 1476 z "},"Ȍ":{"ha":990,"x_min":96,"x_max":894,"o":"m 494 -11 q 222 28 303 -11 q 118 163 140 68 q 96 478 96 257 q 118 793 96 699 q 222 927 140 888 q 494 967 303 967 q 768 927 686 967 q 872 792 850 888 q 894 478 894 697 q 872 163 894 258 q 768 28 850 68 q 494 -11 686 -11 m 494 131 q 667 147 622 131 q 724 229 711 164 q 738 478 738 294 q 724 726 738 661 q 667 808 711 792 q 494 825 622 825 q 323 808 367 825 q 266 726 279 792 q 253 478 253 661 q 266 229 253 294 q 323 147 279 164 q 494 131 367 131 m 426 1046 l 335 1046 l 169 1217 l 169 1224 l 301 1224 l 426 1053 l 426 1046 m 693 1046 l 601 1046 l 438 1217 l 438 1224 l 567 1224 l 693 1053 l 693 1046 z "},"Ö":{"ha":990,"x_min":96,"x_max":894,"o":"m 494 -11 q 222 28 303 -11 q 118 163 140 68 q 96 478 96 257 q 118 793 96 699 q 222 927 140 888 q 494 967 303 967 q 768 927 686 967 q 872 792 850 888 q 894 478 894 697 q 872 163 894 258 q 768 28 850 68 q 494 -11 686 -11 m 494 131 q 667 147 622 131 q 724 229 711 164 q 738 478 738 294 q 724 726 738 661 q 667 808 711 792 q 494 825 622 825 q 323 808 367 825 q 266 726 279 792 q 253 478 253 661 q 266 229 253 294 q 323 147 279 164 q 494 131 367 131 m 296 1079 l 296 1210 l 428 1210 l 428 1079 l 296 1079 m 565 1079 l 565 1210 l 696 1210 l 696 1079 l 565 1079 z "},"Ọ":{"ha":990,"x_min":96,"x_max":894,"o":"m 494 -11 q 222 28 303 -11 q 118 163 140 68 q 96 478 96 257 q 118 793 96 699 q 222 927 140 888 q 494 967 303 967 q 768 927 686 967 q 872 792 850 888 q 894 478 894 697 q 872 163 894 258 q 768 28 850 68 q 494 -11 686 -11 m 494 131 q 667 147 622 131 q 724 229 711 164 q 738 478 738 294 q 724 726 738 661 q 667 808 711 792 q 494 825 622 825 q 323 808 367 825 q 266 726 279 792 q 253 478 253 661 q 266 229 253 294 q 323 147 279 164 q 494 131 367 131 m 413 -253 l 413 -86 l 579 -86 l 579 -253 l 413 -253 z "},"Ò":{"ha":990,"x_min":96,"x_max":894,"o":"m 494 -11 q 222 28 303 -11 q 118 163 140 68 q 96 478 96 257 q 118 793 96 699 q 222 927 140 888 q 494 967 303 967 q 768 927 686 967 q 872 792 850 888 q 894 478 894 697 q 872 163 894 258 q 768 28 850 68 q 494 -11 686 -11 m 494 131 q 667 147 622 131 q 724 229 711 164 q 738 478 738 294 q 724 726 738 661 q 667 808 711 792 q 494 825 622 825 q 323 808 367 825 q 266 726 279 792 q 253 478 253 661 q 266 229 253 294 q 323 147 279 164 q 494 131 367 131 m 451 1042 l 269 1233 l 269 1240 l 422 1240 l 560 1049 l 560 1042 l 451 1042 z "},"Ỏ":{"ha":990,"x_min":96,"x_max":894,"o":"m 494 -11 q 222 28 303 -11 q 118 163 140 68 q 96 478 96 257 q 118 793 96 699 q 222 927 140 888 q 494 967 303 967 q 768 927 686 967 q 872 792 850 888 q 894 478 894 697 q 872 163 894 258 q 768 28 850 68 q 494 -11 686 -11 m 494 131 q 667 147 622 131 q 724 229 711 164 q 738 478 738 294 q 724 726 738 661 q 667 808 711 792 q 494 825 622 825 q 323 808 367 825 q 266 726 279 792 q 253 478 253 661 q 266 229 253 294 q 323 147 279 164 q 494 131 367 131 m 417 1029 q 429 1085 417 1069 q 481 1111 442 1100 l 510 1119 q 563 1140 551 1131 q 575 1171 575 1149 q 565 1205 575 1194 q 533 1217 554 1215 q 463 1219 511 1219 q 319 1213 392 1219 l 319 1288 q 486 1300 401 1300 q 594 1293 556 1300 q 653 1260 632 1286 q 674 1182 674 1235 q 655 1110 674 1131 q 583 1074 636 1089 l 553 1065 q 508 1048 515 1056 q 500 1018 500 1040 l 417 1018 l 417 1029 z "},"Ơ":{"ha":990,"x_min":96,"x_max":944,"o":"m 944 1085 l 944 1056 q 935 963 944 996 q 898 913 925 931 q 818 892 871 896 q 881 754 867 844 q 894 478 894 664 q 872 163 894 258 q 768 28 850 68 q 494 -11 686 -11 q 222 28 303 -11 q 118 163 140 68 q 96 478 96 257 q 118 793 96 699 q 222 927 140 888 q 494 967 303 967 q 671 956 606 967 l 761 956 q 815 963 797 956 q 838 989 832 971 q 843 1044 843 1007 l 843 1085 l 944 1085 m 494 131 q 667 147 622 131 q 724 229 711 164 q 738 478 738 294 q 724 726 738 661 q 667 808 711 792 q 494 825 622 825 q 323 808 367 825 q 266 726 279 792 q 253 478 253 661 q 266 229 253 294 q 323 147 279 164 q 494 131 367 131 z "},"Ớ":{"ha":990,"x_min":96,"x_max":944,"o":"m 944 1085 l 944 1056 q 935 963 944 996 q 898 913 925 931 q 818 892 871 896 q 881 754 867 844 q 894 478 894 664 q 872 163 894 258 q 768 28 850 68 q 494 -11 686 -11 q 222 28 303 -11 q 118 163 140 68 q 96 478 96 257 q 118 793 96 699 q 222 927 140 888 q 494 967 303 967 q 671 956 606 967 l 761 956 q 815 963 797 956 q 838 989 832 971 q 843 1044 843 1007 l 843 1085 l 944 1085 m 494 131 q 667 147 622 131 q 724 229 711 164 q 738 478 738 294 q 724 726 738 661 q 667 808 711 792 q 494 825 622 825 q 323 808 367 825 q 266 726 279 792 q 253 478 253 661 q 266 229 253 294 q 323 147 279 164 q 494 131 367 131 m 436 1035 l 436 1042 l 572 1233 l 726 1233 l 726 1226 l 544 1035 l 436 1035 z "},"Ợ":{"ha":990,"x_min":96,"x_max":944,"o":"m 944 1085 l 944 1056 q 935 963 944 996 q 898 913 925 931 q 818 892 871 896 q 881 754 867 844 q 894 478 894 664 q 872 163 894 258 q 768 28 850 68 q 494 -11 686 -11 q 222 28 303 -11 q 118 163 140 68 q 96 478 96 257 q 118 793 96 699 q 222 927 140 888 q 494 967 303 967 q 671 956 606 967 l 761 956 q 815 963 797 956 q 838 989 832 971 q 843 1044 843 1007 l 843 1085 l 944 1085 m 494 131 q 667 147 622 131 q 724 229 711 164 q 738 478 738 294 q 724 726 738 661 q 667 808 711 792 q 494 825 622 825 q 323 808 367 825 q 266 726 279 792 q 253 478 253 661 q 266 229 253 294 q 323 147 279 164 q 494 131 367 131 m 413 -253 l 413 -86 l 579 -86 l 579 -253 l 413 -253 z "},"Ờ":{"ha":990,"x_min":96,"x_max":944,"o":"m 944 1085 l 944 1056 q 935 963 944 996 q 898 913 925 931 q 818 892 871 896 q 881 754 867 844 q 894 478 894 664 q 872 163 894 258 q 768 28 850 68 q 494 -11 686 -11 q 222 28 303 -11 q 118 163 140 68 q 96 478 96 257 q 118 793 96 699 q 222 927 140 888 q 494 967 303 967 q 671 956 606 967 l 761 956 q 815 963 797 956 q 838 989 832 971 q 843 1044 843 1007 l 843 1085 l 944 1085 m 494 131 q 667 147 622 131 q 724 229 711 164 q 738 478 738 294 q 724 726 738 661 q 667 808 711 792 q 494 825 622 825 q 323 808 367 825 q 266 726 279 792 q 253 478 253 661 q 266 229 253 294 q 323 147 279 164 q 494 131 367 131 m 450 1035 l 268 1226 l 268 1233 l 421 1233 l 558 1042 l 558 1035 l 450 1035 z "},"Ở":{"ha":990,"x_min":96,"x_max":944,"o":"m 944 1085 l 944 1056 q 935 963 944 996 q 898 913 925 931 q 818 892 871 896 q 881 754 867 844 q 894 478 894 664 q 872 163 894 258 q 768 28 850 68 q 494 -11 686 -11 q 222 28 303 -11 q 118 163 140 68 q 96 478 96 257 q 118 793 96 699 q 222 927 140 888 q 494 967 303 967 q 671 956 606 967 l 761 956 q 815 963 797 956 q 838 989 832 971 q 843 1044 843 1007 l 843 1085 l 944 1085 m 494 131 q 667 147 622 131 q 724 229 711 164 q 738 478 738 294 q 724 726 738 661 q 667 808 711 792 q 494 825 622 825 q 323 808 367 825 q 266 726 279 792 q 253 478 253 661 q 266 229 253 294 q 323 147 279 164 q 494 131 367 131 m 417 1029 q 429 1085 417 1069 q 481 1111 442 1100 l 510 1119 q 563 1140 551 1131 q 575 1171 575 1149 q 565 1205 575 1194 q 533 1217 554 1215 q 463 1219 511 1219 q 319 1213 392 1219 l 319 1288 q 486 1300 401 1300 q 594 1293 556 1300 q 653 1260 632 1286 q 674 1182 674 1235 q 655 1110 674 1131 q 583 1074 636 1089 l 553 1065 q 508 1048 515 1056 q 500 1018 500 1040 l 417 1018 l 417 1029 z "},"Ỡ":{"ha":990,"x_min":96,"x_max":944,"o":"m 944 1085 l 944 1056 q 935 963 944 996 q 898 913 925 931 q 818 892 871 896 q 881 754 867 844 q 894 478 894 664 q 872 163 894 258 q 768 28 850 68 q 494 -11 686 -11 q 222 28 303 -11 q 118 163 140 68 q 96 478 96 257 q 118 793 96 699 q 222 927 140 888 q 494 967 303 967 q 671 956 606 967 l 761 956 q 815 963 797 956 q 838 989 832 971 q 843 1044 843 1007 l 843 1085 l 944 1085 m 494 131 q 667 147 622 131 q 724 229 711 164 q 738 478 738 294 q 724 726 738 661 q 667 808 711 792 q 494 825 622 825 q 323 808 367 825 q 266 726 279 792 q 253 478 253 661 q 266 229 253 294 q 323 147 279 164 q 494 131 367 131 m 753 1235 q 746 1132 753 1168 q 715 1077 739 1096 q 642 1058 692 1058 q 567 1066 604 1058 q 478 1089 529 1074 q 414 1104 446 1097 q 358 1111 382 1111 q 324 1099 331 1111 q 318 1043 318 1086 l 236 1043 q 243 1146 236 1110 q 274 1201 250 1182 q 349 1219 299 1219 q 424 1212 386 1219 q 513 1189 461 1204 q 576 1174 544 1181 q 632 1167 608 1167 q 666 1179 660 1167 q 672 1235 672 1192 l 753 1235 z "},"Ő":{"ha":990,"x_min":96,"x_max":894,"o":"m 494 -11 q 222 28 303 -11 q 118 163 140 68 q 96 478 96 257 q 118 793 96 699 q 222 927 140 888 q 494 967 303 967 q 768 927 686 967 q 872 792 850 888 q 894 478 894 697 q 872 163 894 258 q 768 28 850 68 q 494 -11 686 -11 m 494 131 q 667 147 622 131 q 724 229 711 164 q 738 478 738 294 q 724 726 738 661 q 667 808 711 792 q 494 825 622 825 q 323 808 367 825 q 266 726 279 792 q 253 478 253 661 q 266 229 253 294 q 323 147 279 164 q 494 131 367 131 m 310 1046 l 310 1053 l 436 1224 l 565 1224 l 565 1217 l 401 1046 l 310 1046 m 576 1046 l 576 1053 l 701 1224 l 833 1224 l 833 1217 l 668 1046 l 576 1046 z "},"Ȏ":{"ha":990,"x_min":96,"x_max":894,"o":"m 494 -11 q 222 28 303 -11 q 118 163 140 68 q 96 478 96 257 q 118 793 96 699 q 222 927 140 888 q 494 967 303 967 q 768 927 686 967 q 872 792 850 888 q 894 478 894 697 q 872 163 894 258 q 768 28 850 68 q 494 -11 686 -11 m 494 131 q 667 147 622 131 q 724 229 711 164 q 738 478 738 294 q 724 726 738 661 q 667 808 711 792 q 494 825 622 825 q 323 808 367 825 q 266 726 279 792 q 253 478 253 661 q 266 229 253 294 q 323 147 279 164 q 494 131 367 131 m 297 1038 q 310 1149 297 1107 q 367 1217 324 1192 q 497 1242 410 1242 q 627 1217 585 1242 q 682 1150 669 1192 q 694 1038 694 1108 l 606 1038 q 600 1102 606 1081 q 572 1135 594 1124 q 497 1147 549 1147 q 424 1135 447 1147 q 394 1102 400 1124 q 389 1038 389 1081 l 297 1038 z "},"Ō":{"ha":990,"x_min":96,"x_max":894,"o":"m 494 -11 q 222 28 303 -11 q 118 163 140 68 q 96 478 96 257 q 118 793 96 699 q 222 927 140 888 q 494 967 303 967 q 768 927 686 967 q 872 792 850 888 q 894 478 894 697 q 872 163 894 258 q 768 28 850 68 q 494 -11 686 -11 m 494 131 q 667 147 622 131 q 724 229 711 164 q 738 478 738 294 q 724 726 738 661 q 667 808 711 792 q 494 825 622 825 q 323 808 367 825 q 266 726 279 792 q 253 478 253 661 q 266 229 253 294 q 323 147 279 164 q 494 131 367 131 m 319 1093 l 319 1232 l 672 1232 l 672 1093 l 319 1093 z "},"Ǫ":{"ha":990,"x_min":96,"x_max":894,"o":"m 682 -272 q 535 -164 535 -272 q 611 -7 535 -90 q 494 -11 560 -11 q 222 28 303 -11 q 118 163 140 68 q 96 478 96 257 q 118 793 96 699 q 222 927 140 888 q 494 967 303 967 q 768 927 686 967 q 872 792 850 888 q 894 478 894 697 q 888 252 894 332 q 856 118 881 172 q 779 35 832 64 q 695 -38 729 8 q 661 -128 661 -85 q 724 -176 661 -176 l 750 -175 l 750 -268 q 682 -272 704 -272 m 494 131 q 667 147 622 131 q 724 229 711 164 q 738 478 738 294 q 724 726 738 661 q 667 808 711 792 q 494 825 622 825 q 323 808 367 825 q 266 726 279 792 q 253 478 253 661 q 266 229 253 294 q 323 147 279 164 q 494 131 367 131 z "},"Ø":{"ha":990,"x_min":96,"x_max":894,"o":"m 813 897 q 880 758 865 849 q 894 478 894 667 q 872 163 894 258 q 768 28 850 68 q 494 -11 686 -11 q 279 8 356 -11 l 228 -76 l 96 -76 l 176 58 q 110 197 125 106 q 96 478 96 288 q 118 793 96 699 q 222 927 140 888 q 494 967 303 967 q 710 947 633 967 l 761 1032 l 894 1032 l 813 897 m 253 478 q 256 307 253 365 q 269 214 258 249 l 633 818 q 573 824 610 822 q 494 825 536 825 q 323 808 367 825 q 266 726 279 792 q 253 478 253 661 m 494 131 q 667 147 622 131 q 724 229 711 164 q 738 478 738 294 q 734 649 738 592 q 719 742 731 707 l 357 138 q 416 132 379 133 q 494 131 453 131 z "},"Ǿ":{"ha":990,"x_min":96,"x_max":894,"o":"m 813 897 q 880 758 865 849 q 894 478 894 667 q 872 163 894 258 q 768 28 850 68 q 494 -11 686 -11 q 279 8 356 -11 l 228 -76 l 96 -76 l 176 58 q 110 197 125 106 q 96 478 96 288 q 118 793 96 699 q 222 927 140 888 q 494 967 303 967 q 710 947 633 967 l 761 1032 l 894 1032 l 813 897 m 253 478 q 256 307 253 365 q 269 214 258 249 l 633 818 q 573 824 610 822 q 494 825 536 825 q 323 808 367 825 q 266 726 279 792 q 253 478 253 661 m 494 131 q 667 147 622 131 q 724 229 711 164 q 738 478 738 294 q 734 649 738 592 q 719 742 731 707 l 357 138 q 416 132 379 133 q 494 131 453 131 m 436 1035 l 436 1042 l 572 1233 l 726 1233 l 726 1226 l 544 1035 l 436 1035 z "},"Õ":{"ha":990,"x_min":96,"x_max":894,"o":"m 494 -11 q 222 28 303 -11 q 118 163 140 68 q 96 478 96 257 q 118 793 96 699 q 222 927 140 888 q 494 967 303 967 q 768 927 686 967 q 872 792 850 888 q 894 478 894 697 q 872 163 894 258 q 768 28 850 68 q 494 -11 686 -11 m 494 131 q 667 147 622 131 q 724 229 711 164 q 738 478 738 294 q 724 726 738 661 q 667 808 711 792 q 494 825 622 825 q 323 808 367 825 q 266 726 279 792 q 253 478 253 661 q 266 229 253 294 q 323 147 279 164 q 494 131 367 131 m 753 1235 q 746 1132 753 1168 q 715 1077 739 1096 q 642 1058 692 1058 q 567 1066 604 1058 q 478 1089 529 1074 q 414 1104 446 1097 q 358 1111 382 1111 q 324 1099 331 1111 q 318 1043 318 1086 l 236 1043 q 243 1146 236 1110 q 274 1201 250 1182 q 349 1219 299 1219 q 424 1212 386 1219 q 513 1189 461 1204 q 576 1174 544 1181 q 632 1167 608 1167 q 666 1179 660 1167 q 672 1235 672 1192 l 753 1235 z "},"Œ":{"ha":1432,"x_min":96,"x_max":1354,"o":"m 494 0 q 222 39 303 0 q 118 170 140 78 q 96 478 96 263 q 118 785 96 693 q 222 917 140 878 q 494 956 303 956 l 1354 956 l 1354 814 l 942 814 q 842 825 893 814 q 882 717 871 782 q 894 553 893 651 l 1289 553 l 1289 411 l 894 411 q 883 240 893 304 q 842 131 872 175 q 942 142 893 142 l 1354 142 l 1354 0 l 494 0 m 494 142 q 667 158 622 142 q 724 238 711 175 q 738 478 738 301 q 724 717 738 654 q 667 797 711 781 q 494 814 622 814 q 323 797 367 814 q 266 718 279 781 q 253 478 253 656 q 266 238 253 300 q 323 158 279 175 q 494 142 367 142 z "},"P":{"ha":904,"x_min":128,"x_max":839,"o":"m 128 956 l 557 956 q 734 918 672 956 q 817 815 796 881 q 839 644 839 749 q 817 478 839 544 q 733 372 796 411 q 553 333 671 333 l 285 333 l 285 0 l 128 0 l 128 956 m 493 474 q 621 488 582 474 q 672 537 660 503 q 683 644 683 571 q 672 751 683 718 q 623 799 661 785 q 497 814 585 814 l 285 814 l 285 474 l 493 474 z "},"Þ":{"ha":904,"x_min":128,"x_max":839,"o":"m 128 956 l 285 956 l 285 799 l 557 799 q 734 761 672 799 q 817 658 796 724 q 839 488 839 592 q 817 321 839 388 q 733 215 796 254 q 553 176 671 176 l 285 176 l 285 0 l 128 0 l 128 956 m 493 317 q 621 331 582 317 q 672 380 660 346 q 683 488 683 414 q 672 594 683 561 q 623 642 661 628 q 497 657 585 657 l 285 657 l 285 317 l 493 317 z "},"Q":{"ha":990,"x_min":96,"x_max":925,"o":"m 925 -157 l 925 -160 l 746 -160 l 638 -4 q 494 -11 588 -11 q 222 28 303 -11 q 118 163 140 68 q 96 478 96 257 q 118 793 96 699 q 222 927 140 888 q 494 967 303 967 q 768 927 686 967 q 872 792 850 888 q 894 478 894 697 q 888 255 894 335 q 857 121 881 175 q 783 38 833 67 l 925 -157 m 543 131 l 424 303 l 590 303 l 696 158 q 730 251 722 185 q 738 478 738 318 q 724 726 738 661 q 667 808 711 792 q 494 825 622 825 q 323 808 367 825 q 266 726 279 792 q 253 478 253 661 q 266 229 253 294 q 323 147 279 164 q 494 131 367 131 l 543 131 z "},"R":{"ha":944,"x_min":128,"x_max":867,"o":"m 700 0 l 558 361 l 556 361 l 285 361 l 285 0 l 128 0 l 128 956 l 574 956 q 751 920 690 956 q 831 822 811 885 q 851 658 851 758 q 823 487 851 563 q 710 382 794 411 l 867 0 l 700 0 m 508 501 q 633 516 593 501 q 683 563 672 531 q 694 658 694 594 q 684 756 694 725 q 636 800 674 786 q 514 814 599 814 l 285 814 l 285 501 l 508 501 z "},"Ŕ":{"ha":944,"x_min":128,"x_max":867,"o":"m 700 0 l 558 361 l 556 361 l 285 361 l 285 0 l 128 0 l 128 956 l 574 956 q 751 920 690 956 q 831 822 811 885 q 851 658 851 758 q 823 487 851 563 q 710 382 794 411 l 867 0 l 700 0 m 508 501 q 633 516 593 501 q 683 563 672 531 q 694 658 694 594 q 684 756 694 725 q 636 800 674 786 q 514 814 599 814 l 285 814 l 285 501 l 508 501 m 413 1035 l 413 1042 l 549 1233 l 703 1233 l 703 1226 l 521 1035 l 413 1035 z "},"Ř":{"ha":944,"x_min":128,"x_max":867,"o":"m 700 0 l 558 361 l 556 361 l 285 361 l 285 0 l 128 0 l 128 956 l 574 956 q 751 920 690 956 q 831 822 811 885 q 851 658 851 758 q 823 487 851 563 q 710 382 794 411 l 867 0 l 700 0 m 508 501 q 633 516 593 501 q 683 563 672 531 q 694 658 694 594 q 684 756 694 725 q 636 800 674 786 q 514 814 599 814 l 285 814 l 285 501 l 508 501 m 397 1033 l 260 1224 l 260 1233 l 358 1233 l 471 1108 l 583 1233 l 683 1233 l 683 1224 l 546 1033 l 397 1033 z "},"Ŗ":{"ha":944,"x_min":128,"x_max":867,"o":"m 700 0 l 558 361 l 556 361 l 285 361 l 285 0 l 128 0 l 128 956 l 574 956 q 751 920 690 956 q 831 822 811 885 q 851 658 851 758 q 823 487 851 563 q 710 382 794 411 l 867 0 l 700 0 m 508 501 q 633 516 593 501 q 683 563 672 531 q 694 658 694 594 q 684 756 694 725 q 636 800 674 786 q 514 814 599 814 l 285 814 l 285 501 l 508 501 m 381 -326 q 451 -316 433 -326 q 468 -269 468 -306 l 468 -246 l 403 -246 l 403 -86 l 563 -86 l 563 -201 q 550 -324 563 -285 q 500 -378 538 -362 q 381 -393 463 -393 l 381 -326 z "},"Ȑ":{"ha":944,"x_min":128,"x_max":867,"o":"m 700 0 l 558 361 l 556 361 l 285 361 l 285 0 l 128 0 l 128 956 l 574 956 q 751 920 690 956 q 831 822 811 885 q 851 658 851 758 q 823 487 851 563 q 710 382 794 411 l 867 0 l 700 0 m 508 501 q 633 516 593 501 q 683 563 672 531 q 694 658 694 594 q 684 756 694 725 q 636 800 674 786 q 514 814 599 814 l 285 814 l 285 501 l 508 501 m 403 1046 l 311 1046 l 146 1217 l 146 1224 l 278 1224 l 403 1053 l 403 1046 m 669 1046 l 578 1046 l 414 1217 l 414 1224 l 543 1224 l 669 1053 l 669 1046 z "},"Ṛ":{"ha":944,"x_min":128,"x_max":867,"o":"m 700 0 l 558 361 l 556 361 l 285 361 l 285 0 l 128 0 l 128 956 l 574 956 q 751 920 690 956 q 831 822 811 885 q 851 658 851 758 q 823 487 851 563 q 710 382 794 411 l 867 0 l 700 0 m 508 501 q 633 516 593 501 q 683 563 672 531 q 694 658 694 594 q 684 756 694 725 q 636 800 674 786 q 514 814 599 814 l 285 814 l 285 501 l 508 501 m 389 -253 l 389 -86 l 556 -86 l 556 -253 l 389 -253 z "},"Ȓ":{"ha":944,"x_min":128,"x_max":867,"o":"m 700 0 l 558 361 l 556 361 l 285 361 l 285 0 l 128 0 l 128 956 l 574 956 q 751 920 690 956 q 831 822 811 885 q 851 658 851 758 q 823 487 851 563 q 710 382 794 411 l 867 0 l 700 0 m 508 501 q 633 516 593 501 q 683 563 672 531 q 694 658 694 594 q 684 756 694 725 q 636 800 674 786 q 514 814 599 814 l 285 814 l 285 501 l 508 501 m 274 1038 q 287 1149 274 1107 q 343 1217 300 1192 q 474 1242 386 1242 q 603 1217 561 1242 q 658 1150 646 1192 q 671 1038 671 1108 l 582 1038 q 576 1102 582 1081 q 548 1135 571 1124 q 474 1147 525 1147 q 400 1135 424 1147 q 371 1102 376 1124 q 365 1038 365 1081 l 274 1038 z "},"S":{"ha":868,"x_min":83,"x_max":783,"o":"m 454 -11 q 279 -6 375 -11 q 111 10 183 0 l 111 147 q 408 131 282 131 q 525 137 483 131 q 590 158 567 143 q 619 198 613 172 q 626 271 626 224 q 620 346 626 322 q 594 381 614 369 q 526 396 574 392 l 299 422 q 165 465 211 432 q 101 551 118 497 q 83 689 83 606 q 126 867 83 807 q 242 947 168 928 q 433 967 315 967 q 599 959 514 967 q 736 940 683 951 l 736 807 q 608 820 685 815 q 464 825 532 825 q 347 819 390 825 q 281 800 304 814 q 249 763 256 786 q 242 696 242 740 q 249 624 242 646 q 277 593 256 603 q 347 578 299 583 l 576 551 q 692 523 649 544 q 758 449 736 501 q 783 279 783 393 q 743 90 783 153 q 635 8 703 26 q 454 -11 567 -11 z "},"Ś":{"ha":868,"x_min":83,"x_max":783,"o":"m 454 -11 q 279 -6 375 -11 q 111 10 183 0 l 111 147 q 408 131 282 131 q 525 137 483 131 q 590 158 567 143 q 619 198 613 172 q 626 271 626 224 q 620 346 626 322 q 594 381 614 369 q 526 396 574 392 l 299 422 q 165 465 211 432 q 101 551 118 497 q 83 689 83 606 q 126 867 83 807 q 242 947 168 928 q 433 967 315 967 q 599 959 514 967 q 736 940 683 951 l 736 807 q 608 820 685 815 q 464 825 532 825 q 347 819 390 825 q 281 800 304 814 q 249 763 256 786 q 242 696 242 740 q 249 624 242 646 q 277 593 256 603 q 347 578 299 583 l 576 551 q 692 523 649 544 q 758 449 736 501 q 783 279 783 393 q 743 90 783 153 q 635 8 703 26 q 454 -11 567 -11 m 375 1035 l 375 1042 l 511 1233 l 665 1233 l 665 1226 l 483 1035 l 375 1035 z "},"Ꞌ":{"ha":231,"x_min":46,"x_max":185,"o":"m 46 385 l 46 956 l 185 956 l 185 708 l 149 385 l 46 385 z "},"Š":{"ha":868,"x_min":83,"x_max":783,"o":"m 454 -11 q 279 -6 375 -11 q 111 10 183 0 l 111 147 q 408 131 282 131 q 525 137 483 131 q 590 158 567 143 q 619 198 613 172 q 626 271 626 224 q 620 346 626 322 q 594 381 614 369 q 526 396 574 392 l 299 422 q 165 465 211 432 q 101 551 118 497 q 83 689 83 606 q 126 867 83 807 q 242 947 168 928 q 433 967 315 967 q 599 959 514 967 q 736 940 683 951 l 736 807 q 608 820 685 815 q 464 825 532 825 q 347 819 390 825 q 281 800 304 814 q 249 763 256 786 q 242 696 242 740 q 249 624 242 646 q 277 593 256 603 q 347 578 299 583 l 576 551 q 692 523 649 544 q 758 449 736 501 q 783 279 783 393 q 743 90 783 153 q 635 8 703 26 q 454 -11 567 -11 m 369 1042 l 232 1232 l 232 1242 l 331 1242 l 443 1117 l 556 1242 l 656 1242 l 656 1232 l 518 1042 l 369 1042 z "},"Ş":{"ha":868,"x_min":83,"x_max":783,"o":"m 783 279 q 747 96 783 158 q 648 12 711 33 q 483 -11 585 -10 l 432 -264 l 289 -264 l 289 -257 l 378 -10 q 111 10 225 -6 l 111 147 q 408 131 282 131 q 525 137 483 131 q 590 158 567 143 q 619 198 613 172 q 626 271 626 224 q 620 346 626 322 q 594 381 614 369 q 526 396 574 392 l 299 422 q 165 465 211 432 q 101 551 118 497 q 83 689 83 606 q 126 867 83 807 q 242 947 168 928 q 433 967 315 967 q 599 959 514 967 q 736 940 683 951 l 736 807 q 608 820 685 815 q 464 825 532 825 q 347 819 390 825 q 281 800 304 814 q 249 763 256 786 q 242 696 242 740 q 249 624 242 646 q 277 593 256 603 q 347 578 299 583 l 576 551 q 692 523 649 544 q 758 449 736 501 q 783 279 783 393 z "},"Ŝ":{"ha":868,"x_min":83,"x_max":783,"o":"m 454 -11 q 279 -6 375 -11 q 111 10 183 0 l 111 147 q 408 131 282 131 q 525 137 483 131 q 590 158 567 143 q 619 198 613 172 q 626 271 626 224 q 620 346 626 322 q 594 381 614 369 q 526 396 574 392 l 299 422 q 165 465 211 432 q 101 551 118 497 q 83 689 83 606 q 126 867 83 807 q 242 947 168 928 q 433 967 315 967 q 599 959 514 967 q 736 940 683 951 l 736 807 q 608 820 685 815 q 464 825 532 825 q 347 819 390 825 q 281 800 304 814 q 249 763 256 786 q 242 696 242 740 q 249 624 242 646 q 277 593 256 603 q 347 578 299 583 l 576 551 q 692 523 649 544 q 758 449 736 501 q 783 279 783 393 q 743 90 783 153 q 635 8 703 26 q 454 -11 567 -11 m 222 1033 l 222 1043 l 360 1233 l 508 1233 l 646 1043 l 646 1033 l 546 1033 l 433 1158 l 321 1033 l 222 1033 z "},"Ș":{"ha":868,"x_min":83,"x_max":783,"o":"m 454 -11 q 279 -6 375 -11 q 111 10 183 0 l 111 147 q 408 131 282 131 q 525 137 483 131 q 590 158 567 143 q 619 198 613 172 q 626 271 626 224 q 620 346 626 322 q 594 381 614 369 q 526 396 574 392 l 299 422 q 165 465 211 432 q 101 551 118 497 q 83 689 83 606 q 126 867 83 807 q 242 947 168 928 q 433 967 315 967 q 599 959 514 967 q 736 940 683 951 l 736 807 q 608 820 685 815 q 464 825 532 825 q 347 819 390 825 q 281 800 304 814 q 249 763 256 786 q 242 696 242 740 q 249 624 242 646 q 277 593 256 603 q 347 578 299 583 l 576 551 q 692 523 649 544 q 758 449 736 501 q 783 279 783 393 q 743 90 783 153 q 635 8 703 26 q 454 -11 567 -11 m 343 -326 q 413 -316 396 -326 q 431 -269 431 -306 l 431 -246 l 365 -246 l 365 -86 l 525 -86 l 525 -201 q 513 -324 525 -285 q 463 -378 500 -362 q 343 -393 425 -393 l 343 -326 z "},"Ṣ":{"ha":868,"x_min":83,"x_max":783,"o":"m 454 -11 q 279 -6 375 -11 q 111 10 183 0 l 111 147 q 408 131 282 131 q 525 137 483 131 q 590 158 567 143 q 619 198 613 172 q 626 271 626 224 q 620 346 626 322 q 594 381 614 369 q 526 396 574 392 l 299 422 q 165 465 211 432 q 101 551 118 497 q 83 689 83 606 q 126 867 83 807 q 242 947 168 928 q 433 967 315 967 q 599 959 514 967 q 736 940 683 951 l 736 807 q 608 820 685 815 q 464 825 532 825 q 347 819 390 825 q 281 800 304 814 q 249 763 256 786 q 242 696 242 740 q 249 624 242 646 q 277 593 256 603 q 347 578 299 583 l 576 551 q 692 523 649 544 q 758 449 736 501 q 783 279 783 393 q 743 90 783 153 q 635 8 703 26 q 454 -11 567 -11 m 351 -253 l 351 -86 l 518 -86 l 518 -253 l 351 -253 z "},"ẞ":{"ha":994,"x_min":117,"x_max":904,"o":"m 628 528 q 789 502 729 528 q 876 417 849 476 q 904 256 904 358 q 827 53 904 117 q 578 -11 750 -11 q 476 -3 533 -11 q 381 17 419 6 l 381 147 q 561 131 485 131 q 676 142 638 131 q 729 182 714 153 q 744 269 744 211 q 713 383 744 353 q 597 413 681 413 l 446 413 l 446 533 l 678 814 q 538 825 607 825 q 356 804 407 825 q 289 716 304 783 q 274 476 274 649 l 274 0 l 117 0 l 117 476 q 147 785 117 683 q 258 927 178 888 q 501 967 339 967 q 690 953 593 967 q 849 919 786 940 l 849 799 l 628 528 z "},"Ə":{"ha":963,"x_min":96,"x_max":867,"o":"m 460 967 q 724 926 640 967 q 838 786 808 886 q 867 478 867 686 q 845 163 867 258 q 744 28 824 68 q 481 -11 665 -11 q 217 28 296 -11 q 117 163 138 68 q 96 478 96 257 l 96 553 l 710 553 q 686 738 707 683 q 609 808 665 792 q 421 825 553 825 q 208 810 300 825 l 208 946 q 328 961 258 956 q 460 967 399 967 m 481 131 q 637 144 594 131 q 694 213 679 158 q 710 411 708 267 l 253 411 q 269 213 254 267 q 325 144 283 158 q 481 131 367 131 z "},"T":{"ha":807,"x_min":35,"x_max":772,"o":"m 325 0 l 325 810 l 35 810 l 35 956 l 772 956 l 772 810 l 482 810 l 482 0 l 325 0 z "},"Ŧ":{"ha":807,"x_min":35,"x_max":772,"o":"m 772 810 l 482 810 l 482 518 l 742 518 l 742 389 l 482 389 l 482 0 l 325 0 l 325 389 l 65 389 l 65 518 l 325 518 l 325 810 l 35 810 l 35 956 l 772 956 l 772 810 z "},"Ť":{"ha":807,"x_min":35,"x_max":772,"o":"m 325 0 l 325 810 l 35 810 l 35 956 l 772 956 l 772 810 l 482 810 l 482 0 l 325 0 m 329 1033 l 192 1224 l 192 1233 l 290 1233 l 403 1108 l 515 1233 l 615 1233 l 615 1224 l 478 1033 l 329 1033 z "},"Ţ":{"ha":807,"x_min":35,"x_max":772,"o":"m 35 956 l 772 956 l 772 810 l 482 810 l 482 0 l 454 0 l 401 -264 l 258 -264 l 258 -257 l 350 0 l 325 0 l 325 810 l 35 810 l 35 956 z "},"Ț":{"ha":807,"x_min":35,"x_max":772,"o":"m 325 0 l 325 810 l 35 810 l 35 956 l 772 956 l 772 810 l 482 810 l 482 0 l 325 0 m 313 -326 q 383 -316 365 -326 q 400 -269 400 -306 l 400 -246 l 335 -246 l 335 -86 l 494 -86 l 494 -201 q 482 -324 494 -285 q 432 -378 469 -362 q 313 -393 394 -393 l 313 -326 z "},"Ṭ":{"ha":807,"x_min":35,"x_max":772,"o":"m 325 0 l 325 810 l 35 810 l 35 956 l 772 956 l 772 810 l 482 810 l 482 0 l 325 0 m 321 -253 l 321 -86 l 488 -86 l 488 -253 l 321 -253 z "},"U":{"ha":979,"x_min":117,"x_max":861,"o":"m 861 956 l 861 424 q 836 146 861 233 q 735 24 811 58 q 490 -11 658 -11 q 245 24 322 -11 q 142 147 168 58 q 117 424 117 235 l 117 956 l 274 956 l 274 375 q 285 212 274 258 q 340 148 297 165 q 490 131 383 131 q 639 148 596 131 q 693 212 682 165 q 704 375 704 258 l 704 956 l 861 956 z "},"Ú":{"ha":979,"x_min":117,"x_max":861,"o":"m 861 956 l 861 424 q 836 146 861 233 q 735 24 811 58 q 490 -11 658 -11 q 245 24 322 -11 q 142 147 168 58 q 117 424 117 235 l 117 956 l 274 956 l 274 375 q 285 212 274 258 q 340 148 297 165 q 490 131 383 131 q 639 148 596 131 q 693 212 682 165 q 704 375 704 258 l 704 956 l 861 956 m 433 1042 l 433 1049 l 569 1240 l 724 1240 l 724 1233 l 542 1042 l 433 1042 z "},"Ŭ":{"ha":979,"x_min":117,"x_max":861,"o":"m 861 956 l 861 424 q 836 146 861 233 q 735 24 811 58 q 490 -11 658 -11 q 245 24 322 -11 q 142 147 168 58 q 117 424 117 235 l 117 956 l 274 956 l 274 375 q 285 212 274 258 q 340 148 297 165 q 490 131 383 131 q 639 148 596 131 q 693 212 682 165 q 704 375 704 258 l 704 956 l 861 956 m 689 1233 q 676 1122 689 1164 q 619 1054 663 1079 q 489 1029 576 1029 q 359 1054 401 1029 q 304 1121 317 1079 q 292 1233 292 1163 l 381 1233 q 386 1169 381 1190 q 415 1135 392 1147 q 489 1124 438 1124 q 563 1135 539 1124 q 592 1169 586 1147 q 597 1233 597 1190 l 689 1233 z "},"Ǔ":{"ha":979,"x_min":117,"x_max":861,"o":"m 861 956 l 861 424 q 836 146 861 233 q 735 24 811 58 q 490 -11 658 -11 q 245 24 322 -11 q 142 147 168 58 q 117 424 117 235 l 117 956 l 274 956 l 274 375 q 285 212 274 258 q 340 148 297 165 q 490 131 383 131 q 639 148 596 131 q 693 212 682 165 q 704 375 704 258 l 704 956 l 861 956 m 415 1033 l 278 1224 l 278 1233 l 376 1233 l 489 1108 l 601 1233 l 701 1233 l 701 1224 l 564 1033 l 415 1033 z "},"Û":{"ha":979,"x_min":117,"x_max":861,"o":"m 861 956 l 861 424 q 836 146 861 233 q 735 24 811 58 q 490 -11 658 -11 q 245 24 322 -11 q 142 147 168 58 q 117 424 117 235 l 117 956 l 274 956 l 274 375 q 285 212 274 258 q 340 148 297 165 q 490 131 383 131 q 639 148 596 131 q 693 212 682 165 q 704 375 704 258 l 704 956 l 861 956 m 282 1042 l 282 1051 l 419 1242 l 568 1242 l 706 1051 l 706 1042 l 606 1042 l 493 1167 l 381 1042 l 282 1042 z "},"Ȕ":{"ha":979,"x_min":117,"x_max":861,"o":"m 861 956 l 861 424 q 836 146 861 233 q 735 24 811 58 q 490 -11 658 -11 q 245 24 322 -11 q 142 147 168 58 q 117 424 117 235 l 117 956 l 274 956 l 274 375 q 285 212 274 258 q 340 148 297 165 q 490 131 383 131 q 639 148 596 131 q 693 212 682 165 q 704 375 704 258 l 704 956 l 861 956 m 421 1046 l 329 1046 l 164 1217 l 164 1224 l 296 1224 l 421 1053 l 421 1046 m 688 1046 l 596 1046 l 432 1217 l 432 1224 l 561 1224 l 688 1053 l 688 1046 z "},"Ü":{"ha":979,"x_min":117,"x_max":861,"o":"m 861 956 l 861 424 q 836 146 861 233 q 735 24 811 58 q 490 -11 658 -11 q 245 24 322 -11 q 142 147 168 58 q 117 424 117 235 l 117 956 l 274 956 l 274 375 q 285 212 274 258 q 340 148 297 165 q 490 131 383 131 q 639 148 596 131 q 693 212 682 165 q 704 375 704 258 l 704 956 l 861 956 m 289 1079 l 289 1210 l 421 1210 l 421 1079 l 289 1079 m 558 1079 l 558 1210 l 689 1210 l 689 1079 l 558 1079 z "},"Ǘ":{"ha":979,"x_min":117,"x_max":861,"o":"m 861 956 l 861 424 q 836 146 861 233 q 735 24 811 58 q 490 -11 658 -11 q 245 24 322 -11 q 142 147 168 58 q 117 424 117 235 l 117 956 l 274 956 l 274 375 q 285 212 274 258 q 340 148 297 165 q 490 131 383 131 q 639 148 596 131 q 693 212 682 165 q 704 375 704 258 l 704 956 l 861 956 m 289 1085 l 289 1215 l 421 1215 l 421 1085 l 289 1085 m 558 1085 l 558 1215 l 689 1215 l 689 1085 l 558 1085 m 433 1211 l 433 1218 l 569 1410 l 724 1410 l 724 1403 l 542 1211 l 433 1211 z "},"Ǚ":{"ha":979,"x_min":117,"x_max":861,"o":"m 289 1215 l 414 1215 l 281 1400 l 281 1410 l 379 1410 l 492 1285 l 604 1410 l 704 1410 l 704 1400 l 571 1215 l 689 1215 l 689 1085 l 558 1085 l 558 1210 l 421 1210 l 421 1085 l 289 1085 l 289 1215 m 861 956 l 861 424 q 836 146 861 233 q 735 24 811 58 q 490 -11 658 -11 q 245 24 322 -11 q 142 147 168 58 q 117 424 117 235 l 117 956 l 274 956 l 274 375 q 285 212 274 258 q 340 148 297 165 q 490 131 383 131 q 639 148 596 131 q 693 212 682 165 q 704 375 704 258 l 704 956 l 861 956 z "},"Ǜ":{"ha":979,"x_min":117,"x_max":861,"o":"m 447 1211 l 265 1403 l 265 1410 l 418 1410 l 556 1218 l 556 1211 l 447 1211 m 289 1085 l 289 1215 l 421 1215 l 421 1085 l 289 1085 m 558 1085 l 558 1215 l 689 1215 l 689 1085 l 558 1085 m 861 956 l 861 424 q 836 146 861 233 q 735 24 811 58 q 490 -11 658 -11 q 245 24 322 -11 q 142 147 168 58 q 117 424 117 235 l 117 956 l 274 956 l 274 375 q 285 212 274 258 q 340 148 297 165 q 490 131 383 131 q 639 148 596 131 q 693 212 682 165 q 704 375 704 258 l 704 956 l 861 956 z "},"Ǖ":{"ha":979,"x_min":117,"x_max":861,"o":"m 861 956 l 861 424 q 836 146 861 233 q 735 24 811 58 q 490 -11 658 -11 q 245 24 322 -11 q 142 147 168 58 q 117 424 117 235 l 117 956 l 274 956 l 274 375 q 285 212 274 258 q 340 148 297 165 q 490 131 383 131 q 639 148 596 131 q 693 212 682 165 q 704 375 704 258 l 704 956 l 861 956 m 289 1085 l 289 1215 l 421 1215 l 421 1085 l 289 1085 m 558 1085 l 558 1215 l 689 1215 l 689 1085 l 558 1085 m 317 1269 l 317 1408 l 669 1408 l 669 1269 l 317 1269 z "},"Ụ":{"ha":979,"x_min":117,"x_max":861,"o":"m 861 956 l 861 424 q 836 146 861 233 q 735 24 811 58 q 490 -11 658 -11 q 245 24 322 -11 q 142 147 168 58 q 117 424 117 235 l 117 956 l 274 956 l 274 375 q 285 212 274 258 q 340 148 297 165 q 490 131 383 131 q 639 148 596 131 q 693 212 682 165 q 704 375 704 258 l 704 956 l 861 956 m 407 -253 l 407 -86 l 574 -86 l 574 -253 l 407 -253 z "},"Ù":{"ha":979,"x_min":117,"x_max":861,"o":"m 861 956 l 861 424 q 836 146 861 233 q 735 24 811 58 q 490 -11 658 -11 q 245 24 322 -11 q 142 147 168 58 q 117 424 117 235 l 117 956 l 274 956 l 274 375 q 285 212 274 258 q 340 148 297 165 q 490 131 383 131 q 639 148 596 131 q 693 212 682 165 q 704 375 704 258 l 704 956 l 861 956 m 464 1042 l 282 1233 l 282 1240 l 435 1240 l 572 1049 l 572 1042 l 464 1042 z "},"Ủ":{"ha":979,"x_min":117,"x_max":861,"o":"m 861 956 l 861 424 q 836 146 861 233 q 735 24 811 58 q 490 -11 658 -11 q 245 24 322 -11 q 142 147 168 58 q 117 424 117 235 l 117 956 l 274 956 l 274 375 q 285 212 274 258 q 340 148 297 165 q 490 131 383 131 q 639 148 596 131 q 693 212 682 165 q 704 375 704 258 l 704 956 l 861 956 m 411 1029 q 424 1085 411 1069 q 475 1111 436 1100 l 504 1119 q 558 1140 546 1131 q 569 1171 569 1149 q 559 1205 569 1194 q 527 1217 549 1215 q 457 1219 506 1219 q 314 1213 386 1219 l 314 1288 q 481 1300 396 1300 q 588 1293 550 1300 q 647 1260 626 1286 q 668 1182 668 1235 q 649 1110 668 1131 q 578 1074 631 1089 l 547 1065 q 502 1048 510 1056 q 494 1018 494 1040 l 411 1018 l 411 1029 z "},"Ư":{"ha":979,"x_min":117,"x_max":1003,"o":"m 1003 1085 l 1003 1056 q 992 960 1003 993 q 952 912 982 928 q 861 892 922 896 l 861 424 q 836 146 861 233 q 735 24 811 58 q 490 -11 658 -11 q 245 24 322 -11 q 142 147 168 58 q 117 424 117 235 l 117 956 l 274 956 l 274 375 q 285 212 274 258 q 340 148 297 165 q 490 131 383 131 q 639 148 596 131 q 693 212 682 165 q 704 375 704 258 l 704 956 l 819 956 q 873 963 856 956 q 896 989 890 971 q 901 1044 901 1007 l 901 1085 l 1003 1085 z "},"Ứ":{"ha":979,"x_min":117,"x_max":1003,"o":"m 1003 1085 l 1003 1056 q 992 960 1003 993 q 952 912 982 928 q 861 892 922 896 l 861 424 q 836 146 861 233 q 735 24 811 58 q 490 -11 658 -11 q 245 24 322 -11 q 142 147 168 58 q 117 424 117 235 l 117 956 l 274 956 l 274 375 q 285 212 274 258 q 340 148 297 165 q 490 131 383 131 q 639 148 596 131 q 693 212 682 165 q 704 375 704 258 l 704 956 l 819 956 q 873 963 856 956 q 896 989 890 971 q 901 1044 901 1007 l 901 1085 l 1003 1085 m 431 1035 l 431 1042 l 567 1233 l 721 1233 l 721 1226 l 539 1035 l 431 1035 z "},"Ự":{"ha":979,"x_min":117,"x_max":1003,"o":"m 1003 1085 l 1003 1056 q 992 960 1003 993 q 952 912 982 928 q 861 892 922 896 l 861 424 q 836 146 861 233 q 735 24 811 58 q 490 -11 658 -11 q 245 24 322 -11 q 142 147 168 58 q 117 424 117 235 l 117 956 l 274 956 l 274 375 q 285 212 274 258 q 340 148 297 165 q 490 131 383 131 q 639 148 596 131 q 693 212 682 165 q 704 375 704 258 l 704 956 l 819 956 q 873 963 856 956 q 896 989 890 971 q 901 1044 901 1007 l 901 1085 l 1003 1085 m 407 -253 l 407 -86 l 574 -86 l 574 -253 l 407 -253 z "},"Ừ":{"ha":979,"x_min":117,"x_max":1003,"o":"m 1003 1085 l 1003 1056 q 992 960 1003 993 q 952 912 982 928 q 861 892 922 896 l 861 424 q 836 146 861 233 q 735 24 811 58 q 490 -11 658 -11 q 245 24 322 -11 q 142 147 168 58 q 117 424 117 235 l 117 956 l 274 956 l 274 375 q 285 212 274 258 q 340 148 297 165 q 490 131 383 131 q 639 148 596 131 q 693 212 682 165 q 704 375 704 258 l 704 956 l 819 956 q 873 963 856 956 q 896 989 890 971 q 901 1044 901 1007 l 901 1085 l 1003 1085 m 444 1035 l 263 1226 l 263 1233 l 415 1233 l 553 1042 l 553 1035 l 444 1035 z "},"Ử":{"ha":979,"x_min":117,"x_max":1003,"o":"m 1003 1085 l 1003 1056 q 992 960 1003 993 q 952 912 982 928 q 861 892 922 896 l 861 424 q 836 146 861 233 q 735 24 811 58 q 490 -11 658 -11 q 245 24 322 -11 q 142 147 168 58 q 117 424 117 235 l 117 956 l 274 956 l 274 375 q 285 212 274 258 q 340 148 297 165 q 490 131 383 131 q 639 148 596 131 q 693 212 682 165 q 704 375 704 258 l 704 956 l 819 956 q 873 963 856 956 q 896 989 890 971 q 901 1044 901 1007 l 901 1085 l 1003 1085 m 411 1029 q 424 1085 411 1069 q 475 1111 436 1100 l 504 1119 q 558 1140 546 1131 q 569 1171 569 1149 q 559 1205 569 1194 q 527 1217 549 1215 q 457 1219 506 1219 q 314 1213 386 1219 l 314 1288 q 481 1300 396 1300 q 588 1293 550 1300 q 647 1260 626 1286 q 668 1182 668 1235 q 649 1110 668 1131 q 578 1074 631 1089 l 547 1065 q 502 1048 510 1056 q 494 1018 494 1040 l 411 1018 l 411 1029 z "},"Ữ":{"ha":979,"x_min":117,"x_max":1003,"o":"m 1003 1085 l 1003 1056 q 992 960 1003 993 q 952 912 982 928 q 861 892 922 896 l 861 424 q 836 146 861 233 q 735 24 811 58 q 490 -11 658 -11 q 245 24 322 -11 q 142 147 168 58 q 117 424 117 235 l 117 956 l 274 956 l 274 375 q 285 212 274 258 q 340 148 297 165 q 490 131 383 131 q 639 148 596 131 q 693 212 682 165 q 704 375 704 258 l 704 956 l 819 956 q 873 963 856 956 q 896 989 890 971 q 901 1044 901 1007 l 901 1085 l 1003 1085 m 747 1235 q 740 1132 747 1168 q 710 1077 733 1096 q 636 1058 686 1058 q 561 1066 599 1058 q 472 1089 524 1074 q 408 1104 440 1097 q 353 1111 376 1111 q 319 1099 325 1111 q 313 1043 313 1086 l 231 1043 q 238 1146 231 1110 q 269 1201 244 1182 q 343 1219 293 1219 q 418 1212 381 1219 q 507 1189 456 1204 q 571 1174 539 1181 q 626 1167 603 1167 q 660 1179 654 1167 q 667 1235 667 1192 l 747 1235 z "},"Ű":{"ha":979,"x_min":117,"x_max":861,"o":"m 861 956 l 861 424 q 836 146 861 233 q 735 24 811 58 q 490 -11 658 -11 q 245 24 322 -11 q 142 147 168 58 q 117 424 117 235 l 117 956 l 274 956 l 274 375 q 285 212 274 258 q 340 148 297 165 q 490 131 383 131 q 639 148 596 131 q 693 212 682 165 q 704 375 704 258 l 704 956 l 861 956 m 304 1046 l 304 1053 l 431 1224 l 560 1224 l 560 1217 l 396 1046 l 304 1046 m 571 1046 l 571 1053 l 696 1224 l 828 1224 l 828 1217 l 663 1046 l 571 1046 z "},"Ȗ":{"ha":979,"x_min":117,"x_max":861,"o":"m 861 956 l 861 424 q 836 146 861 233 q 735 24 811 58 q 490 -11 658 -11 q 245 24 322 -11 q 142 147 168 58 q 117 424 117 235 l 117 956 l 274 956 l 274 375 q 285 212 274 258 q 340 148 297 165 q 490 131 383 131 q 639 148 596 131 q 693 212 682 165 q 704 375 704 258 l 704 956 l 861 956 m 292 1038 q 305 1149 292 1107 q 361 1217 318 1192 q 492 1242 404 1242 q 622 1217 579 1242 q 676 1150 664 1192 q 689 1038 689 1108 l 600 1038 q 594 1102 600 1081 q 566 1135 589 1124 q 492 1147 543 1147 q 418 1135 442 1147 q 389 1102 394 1124 q 383 1038 383 1081 l 292 1038 z "},"Ū":{"ha":979,"x_min":117,"x_max":861,"o":"m 861 956 l 861 424 q 836 146 861 233 q 735 24 811 58 q 490 -11 658 -11 q 245 24 322 -11 q 142 147 168 58 q 117 424 117 235 l 117 956 l 274 956 l 274 375 q 285 212 274 258 q 340 148 297 165 q 490 131 383 131 q 639 148 596 131 q 693 212 682 165 q 704 375 704 258 l 704 956 l 861 956 m 314 1093 l 314 1232 l 667 1232 l 667 1093 l 314 1093 z "},"Ų":{"ha":979,"x_min":117,"x_max":861,"o":"m 861 956 l 861 424 q 852 226 861 301 q 818 103 843 151 q 744 29 793 56 q 631 -125 631 -29 q 645 -163 631 -150 q 696 -176 660 -176 l 719 -175 l 719 -268 q 651 -272 674 -272 q 537 -242 569 -272 q 504 -161 504 -212 q 576 -10 504 -89 q 490 -11 551 -11 q 245 24 322 -11 q 142 147 168 58 q 117 424 117 235 l 117 956 l 274 956 l 274 375 q 285 212 274 258 q 340 148 297 165 q 490 131 383 131 q 639 148 596 131 q 693 212 682 165 q 704 375 704 258 l 704 956 l 861 956 z "},"Ů":{"ha":979,"x_min":117,"x_max":861,"o":"m 861 956 l 861 424 q 836 146 861 233 q 735 24 811 58 q 490 -11 658 -11 q 245 24 322 -11 q 142 147 168 58 q 117 424 117 235 l 117 956 l 274 956 l 274 375 q 285 212 274 258 q 340 148 297 165 q 490 131 383 131 q 639 148 596 131 q 693 212 682 165 q 704 375 704 258 l 704 956 l 861 956 m 489 989 q 363 1005 403 989 q 313 1051 324 1021 q 303 1144 303 1082 q 313 1238 303 1207 q 363 1286 324 1269 q 489 1303 403 1303 q 616 1286 576 1303 q 667 1238 656 1269 q 678 1144 678 1207 q 667 1051 678 1082 q 616 1005 656 1021 q 489 989 576 989 m 489 1061 q 559 1069 539 1061 q 584 1092 579 1076 q 589 1144 589 1107 q 584 1199 589 1183 q 559 1221 579 1214 q 489 1228 539 1228 q 420 1221 440 1228 q 395 1198 400 1214 q 390 1144 390 1182 q 395 1092 390 1107 q 420 1069 400 1076 q 489 1061 440 1061 z "},"Ũ":{"ha":979,"x_min":117,"x_max":861,"o":"m 861 956 l 861 424 q 836 146 861 233 q 735 24 811 58 q 490 -11 658 -11 q 245 24 322 -11 q 142 147 168 58 q 117 424 117 235 l 117 956 l 274 956 l 274 375 q 285 212 274 258 q 340 148 297 165 q 490 131 383 131 q 639 148 596 131 q 693 212 682 165 q 704 375 704 258 l 704 956 l 861 956 m 747 1235 q 740 1132 747 1168 q 710 1077 733 1096 q 636 1058 686 1058 q 561 1066 599 1058 q 472 1089 524 1074 q 408 1104 440 1097 q 353 1111 376 1111 q 319 1099 325 1111 q 313 1043 313 1086 l 231 1043 q 238 1146 231 1110 q 269 1201 244 1182 q 343 1219 293 1219 q 418 1212 381 1219 q 507 1189 456 1204 q 571 1174 539 1181 q 626 1167 603 1167 q 660 1179 654 1167 q 667 1235 667 1192 l 747 1235 z "},"V":{"ha":922,"x_min":32,"x_max":889,"o":"m 358 0 l 32 956 l 194 956 l 460 181 l 467 181 l 731 956 l 889 956 l 564 0 l 358 0 z "},"W":{"ha":1376,"x_min":42,"x_max":1335,"o":"m 894 0 l 690 710 l 685 710 l 482 0 l 289 0 l 42 956 l 200 956 l 393 200 l 400 200 l 610 956 l 774 956 l 988 200 l 994 200 l 1178 956 l 1335 956 l 1086 0 l 894 0 z "},"Ẃ":{"ha":1376,"x_min":42,"x_max":1335,"o":"m 894 0 l 690 710 l 685 710 l 482 0 l 289 0 l 42 956 l 200 956 l 393 200 l 400 200 l 610 956 l 774 956 l 988 200 l 994 200 l 1178 956 l 1335 956 l 1086 0 l 894 0 m 628 1035 l 628 1042 l 764 1233 l 918 1233 l 918 1226 l 736 1035 l 628 1035 z "},"Ŵ":{"ha":1376,"x_min":42,"x_max":1335,"o":"m 894 0 l 690 710 l 685 710 l 482 0 l 289 0 l 42 956 l 200 956 l 393 200 l 400 200 l 610 956 l 774 956 l 988 200 l 994 200 l 1178 956 l 1335 956 l 1086 0 l 894 0 m 475 1033 l 475 1043 l 613 1233 l 761 1233 l 899 1043 l 899 1033 l 799 1033 l 686 1158 l 574 1033 l 475 1033 z "},"Ẅ":{"ha":1376,"x_min":42,"x_max":1335,"o":"m 894 0 l 690 710 l 685 710 l 482 0 l 289 0 l 42 956 l 200 956 l 393 200 l 400 200 l 610 956 l 774 956 l 988 200 l 994 200 l 1178 956 l 1335 956 l 1086 0 l 894 0 m 486 1085 l 486 1215 l 618 1215 l 618 1085 l 486 1085 m 756 1085 l 756 1215 l 886 1215 l 886 1085 l 756 1085 z "},"Ẁ":{"ha":1376,"x_min":42,"x_max":1335,"o":"m 894 0 l 690 710 l 685 710 l 482 0 l 289 0 l 42 956 l 200 956 l 393 200 l 400 200 l 610 956 l 774 956 l 988 200 l 994 200 l 1178 956 l 1335 956 l 1086 0 l 894 0 m 642 1035 l 460 1226 l 460 1233 l 613 1233 l 750 1042 l 750 1035 l 642 1035 z "},"X":{"ha":939,"x_min":32,"x_max":907,"o":"m 724 0 l 472 347 l 461 347 l 210 0 l 32 0 l 375 479 l 38 956 l 221 956 l 467 618 l 478 618 l 724 956 l 903 956 l 565 483 l 907 0 l 724 0 z "},"Y":{"ha":856,"x_min":11,"x_max":844,"o":"m 349 0 l 349 347 l 11 956 l 176 956 l 426 513 l 436 513 l 682 956 l 844 956 l 504 347 l 504 0 l 349 0 z "},"Ý":{"ha":856,"x_min":11,"x_max":844,"o":"m 349 0 l 349 347 l 11 956 l 176 956 l 426 513 l 436 513 l 682 956 l 844 956 l 504 347 l 504 0 l 349 0 m 378 1042 l 378 1049 l 514 1240 l 668 1240 l 668 1233 l 486 1042 l 378 1042 z "},"Ŷ":{"ha":856,"x_min":11,"x_max":844,"o":"m 349 0 l 349 347 l 11 956 l 176 956 l 426 513 l 436 513 l 682 956 l 844 956 l 504 347 l 504 0 l 349 0 m 215 1033 l 215 1043 l 353 1233 l 501 1233 l 639 1043 l 639 1033 l 539 1033 l 426 1158 l 314 1033 l 215 1033 z "},"Ÿ":{"ha":856,"x_min":11,"x_max":844,"o":"m 349 0 l 349 347 l 11 956 l 176 956 l 426 513 l 436 513 l 682 956 l 844 956 l 504 347 l 504 0 l 349 0 m 235 1079 l 235 1210 l 367 1210 l 367 1079 l 235 1079 m 504 1079 l 504 1210 l 635 1210 l 635 1079 l 504 1079 z "},"Ỵ":{"ha":856,"x_min":11,"x_max":844,"o":"m 349 0 l 349 347 l 11 956 l 176 956 l 426 513 l 436 513 l 682 956 l 844 956 l 504 347 l 504 0 l 349 0 m 344 -253 l 344 -86 l 511 -86 l 511 -253 l 344 -253 z "},"Ỳ":{"ha":856,"x_min":11,"x_max":844,"o":"m 349 0 l 349 347 l 11 956 l 176 956 l 426 513 l 436 513 l 682 956 l 844 956 l 504 347 l 504 0 l 349 0 m 382 1035 l 200 1226 l 200 1233 l 353 1233 l 490 1042 l 490 1035 l 382 1035 z "},"Ỷ":{"ha":856,"x_min":11,"x_max":844,"o":"m 349 0 l 349 347 l 11 956 l 176 956 l 426 513 l 436 513 l 682 956 l 844 956 l 504 347 l 504 0 l 349 0 m 349 1029 q 361 1085 349 1069 q 413 1111 374 1100 l 442 1119 q 495 1140 483 1131 q 507 1171 507 1149 q 497 1205 507 1194 q 465 1217 486 1215 q 394 1219 443 1219 q 251 1213 324 1219 l 251 1288 q 418 1300 333 1300 q 526 1293 488 1300 q 585 1260 564 1286 q 606 1182 606 1235 q 587 1110 606 1131 q 515 1074 568 1089 l 485 1065 q 440 1048 447 1056 q 432 1018 432 1040 l 349 1018 l 349 1029 z "},"Ȳ":{"ha":856,"x_min":11,"x_max":844,"o":"m 349 0 l 349 347 l 11 956 l 176 956 l 426 513 l 436 513 l 682 956 l 844 956 l 504 347 l 504 0 l 349 0 m 251 1093 l 251 1232 l 604 1232 l 604 1093 l 251 1093 z "},"Ỹ":{"ha":856,"x_min":11,"x_max":844,"o":"m 349 0 l 349 347 l 11 956 l 176 956 l 426 513 l 436 513 l 682 956 l 844 956 l 504 347 l 504 0 l 349 0 m 685 1235 q 678 1132 685 1168 q 647 1077 671 1096 q 574 1058 624 1058 q 499 1066 536 1058 q 410 1089 461 1074 q 346 1104 378 1097 q 290 1111 314 1111 q 256 1099 263 1111 q 250 1043 250 1086 l 168 1043 q 175 1146 168 1110 q 206 1201 182 1182 q 281 1219 231 1219 q 356 1212 318 1219 q 444 1189 393 1204 q 508 1174 476 1181 q 564 1167 540 1167 q 598 1179 592 1167 q 604 1235 604 1192 l 685 1235 z "},"Z":{"ha":847,"x_min":69,"x_max":781,"o":"m 69 0 l 69 135 l 575 814 l 85 814 l 85 956 l 774 956 l 774 825 l 265 140 l 781 140 l 781 0 l 69 0 z "},"Ź":{"ha":847,"x_min":69,"x_max":781,"o":"m 69 0 l 69 135 l 575 814 l 85 814 l 85 956 l 774 956 l 774 825 l 265 140 l 781 140 l 781 0 l 69 0 m 364 1035 l 364 1042 l 500 1233 l 654 1233 l 654 1226 l 472 1035 l 364 1035 z "},"Ž":{"ha":847,"x_min":69,"x_max":781,"o":"m 69 0 l 69 135 l 575 814 l 85 814 l 85 956 l 774 956 l 774 825 l 265 140 l 781 140 l 781 0 l 69 0 m 360 1042 l 222 1232 l 222 1242 l 321 1242 l 433 1117 l 546 1242 l 646 1242 l 646 1232 l 508 1042 l 360 1042 z "},"Ż":{"ha":847,"x_min":69,"x_max":781,"o":"m 69 0 l 69 135 l 575 814 l 85 814 l 85 956 l 774 956 l 774 825 l 265 140 l 781 140 l 781 0 l 69 0 m 357 1085 l 357 1215 l 489 1215 l 489 1085 l 357 1085 z "},"Ẓ":{"ha":847,"x_min":69,"x_max":781,"o":"m 69 0 l 69 135 l 575 814 l 85 814 l 85 956 l 774 956 l 774 825 l 265 140 l 781 140 l 781 0 l 69 0 m 340 -253 l 340 -86 l 507 -86 l 507 -253 l 340 -253 z "},"a":{"ha":788,"x_min":69,"x_max":676,"o":"m 290 -11 q 123 36 176 -11 q 69 197 69 83 q 89 327 69 281 q 156 395 108 374 q 289 417 203 417 q 529 411 368 417 l 529 442 q 515 542 529 513 q 461 581 500 572 q 326 589 422 589 q 214 585 281 589 q 115 575 147 581 l 115 699 q 378 719 232 719 q 572 691 508 719 q 656 604 635 663 q 676 436 676 546 l 676 0 l 542 0 l 536 90 l 528 90 q 433 9 496 29 q 290 -11 371 -11 m 357 115 q 450 127 414 115 q 504 168 486 139 q 529 290 529 210 l 529 311 l 326 311 q 255 304 278 311 q 223 276 232 297 q 214 213 214 256 q 224 149 214 169 q 264 122 235 129 q 357 115 293 115 z "},"á":{"ha":788,"x_min":69,"x_max":676,"o":"m 290 -11 q 123 36 176 -11 q 69 197 69 83 q 89 327 69 281 q 156 395 108 374 q 289 417 203 417 q 529 411 368 417 l 529 442 q 515 542 529 513 q 461 581 500 572 q 326 589 422 589 q 214 585 281 589 q 115 575 147 581 l 115 699 q 378 719 232 719 q 572 691 508 719 q 656 604 635 663 q 676 436 676 546 l 676 0 l 542 0 l 536 90 l 528 90 q 433 9 496 29 q 290 -11 371 -11 m 357 115 q 450 127 414 115 q 504 168 486 139 q 529 290 529 210 l 529 311 l 326 311 q 255 304 278 311 q 223 276 232 297 q 214 213 214 256 q 224 149 214 169 q 264 122 235 129 q 357 115 293 115 m 324 833 l 324 840 l 460 1032 l 614 1032 l 614 1025 l 432 833 l 324 833 z "},"ă":{"ha":788,"x_min":69,"x_max":676,"o":"m 290 -11 q 123 36 176 -11 q 69 197 69 83 q 89 327 69 281 q 156 395 108 374 q 289 417 203 417 q 529 411 368 417 l 529 442 q 515 542 529 513 q 461 581 500 572 q 326 589 422 589 q 214 585 281 589 q 115 575 147 581 l 115 699 q 378 719 232 719 q 572 691 508 719 q 656 604 635 663 q 676 436 676 546 l 676 0 l 542 0 l 536 90 l 528 90 q 433 9 496 29 q 290 -11 371 -11 m 357 115 q 450 127 414 115 q 504 168 486 139 q 529 290 529 210 l 529 311 l 326 311 q 255 304 278 311 q 223 276 232 297 q 214 213 214 256 q 224 149 214 169 q 264 122 235 129 q 357 115 293 115 m 593 1032 q 580 920 593 963 q 524 853 567 878 q 393 828 481 828 q 263 853 306 828 q 208 919 221 878 q 196 1032 196 961 l 285 1032 q 290 967 285 989 q 319 934 296 946 q 393 922 342 922 q 467 934 443 922 q 496 967 490 946 q 501 1032 501 989 l 593 1032 z "},"ắ":{"ha":788,"x_min":69,"x_max":676,"o":"m 290 -11 q 123 36 176 -11 q 69 197 69 83 q 89 327 69 281 q 156 395 108 374 q 289 417 203 417 q 529 411 368 417 l 529 442 q 515 542 529 513 q 461 581 500 572 q 326 589 422 589 q 214 585 281 589 q 115 575 147 581 l 115 699 q 378 719 232 719 q 572 691 508 719 q 656 604 635 663 q 676 436 676 546 l 676 0 l 542 0 l 536 90 l 528 90 q 433 9 496 29 q 290 -11 371 -11 m 357 115 q 450 127 414 115 q 504 168 486 139 q 529 290 529 210 l 529 311 l 326 311 q 255 304 278 311 q 223 276 232 297 q 214 213 214 256 q 224 149 214 169 q 264 122 235 129 q 357 115 293 115 m 581 1032 q 567 920 581 963 q 511 853 554 878 q 381 828 468 828 q 251 853 293 828 q 196 919 208 878 q 183 1032 183 961 l 272 1032 q 278 967 272 989 q 306 934 283 946 q 381 922 329 922 q 454 934 431 922 q 483 967 478 946 q 489 1032 489 989 l 581 1032 m 317 1074 l 317 1081 l 453 1272 l 607 1272 l 607 1265 l 425 1074 l 317 1074 z "},"ặ":{"ha":788,"x_min":69,"x_max":676,"o":"m 290 -11 q 123 36 176 -11 q 69 197 69 83 q 89 327 69 281 q 156 395 108 374 q 289 417 203 417 q 529 411 368 417 l 529 442 q 515 542 529 513 q 461 581 500 572 q 326 589 422 589 q 214 585 281 589 q 115 575 147 581 l 115 699 q 378 719 232 719 q 572 691 508 719 q 656 604 635 663 q 676 436 676 546 l 676 0 l 542 0 l 536 90 l 528 90 q 433 9 496 29 q 290 -11 371 -11 m 357 115 q 450 127 414 115 q 504 168 486 139 q 529 290 529 210 l 529 311 l 326 311 q 255 304 278 311 q 223 276 232 297 q 214 213 214 256 q 224 149 214 169 q 264 122 235 129 q 357 115 293 115 m 311 -253 l 311 -86 l 478 -86 l 478 -253 l 311 -253 m 593 1032 q 580 920 593 963 q 524 853 567 878 q 393 828 481 828 q 263 853 306 828 q 208 919 221 878 q 196 1032 196 961 l 285 1032 q 290 967 285 989 q 319 934 296 946 q 393 922 342 922 q 467 934 443 922 q 496 967 490 946 q 501 1032 501 989 l 593 1032 z "},"ằ":{"ha":788,"x_min":69,"x_max":676,"o":"m 290 -11 q 123 36 176 -11 q 69 197 69 83 q 89 327 69 281 q 156 395 108 374 q 289 417 203 417 q 529 411 368 417 l 529 442 q 515 542 529 513 q 461 581 500 572 q 326 589 422 589 q 214 585 281 589 q 115 575 147 581 l 115 699 q 378 719 232 719 q 572 691 508 719 q 656 604 635 663 q 676 436 676 546 l 676 0 l 542 0 l 536 90 l 528 90 q 433 9 496 29 q 290 -11 371 -11 m 357 115 q 450 127 414 115 q 504 168 486 139 q 529 290 529 210 l 529 311 l 326 311 q 255 304 278 311 q 223 276 232 297 q 214 213 214 256 q 224 149 214 169 q 264 122 235 129 q 357 115 293 115 m 603 1032 q 590 920 603 963 q 533 853 576 878 q 403 828 490 828 q 273 853 315 828 q 218 919 231 878 q 206 1032 206 961 l 294 1032 q 300 967 294 989 q 328 934 306 946 q 403 922 351 922 q 476 934 453 922 q 506 967 500 946 q 511 1032 511 989 l 603 1032 m 368 1074 l 186 1265 l 186 1272 l 339 1272 l 476 1081 l 476 1074 l 368 1074 z "},"ẳ":{"ha":788,"x_min":69,"x_max":676,"o":"m 290 -11 q 123 36 176 -11 q 69 197 69 83 q 89 327 69 281 q 156 395 108 374 q 289 417 203 417 q 529 411 368 417 l 529 442 q 515 542 529 513 q 461 581 500 572 q 326 589 422 589 q 214 585 281 589 q 115 575 147 581 l 115 699 q 378 719 232 719 q 572 691 508 719 q 656 604 635 663 q 676 436 676 546 l 676 0 l 542 0 l 536 90 l 528 90 q 433 9 496 29 q 290 -11 371 -11 m 357 115 q 450 127 414 115 q 504 168 486 139 q 529 290 529 210 l 529 311 l 326 311 q 255 304 278 311 q 223 276 232 297 q 214 213 214 256 q 224 149 214 169 q 264 122 235 129 q 357 115 293 115 m 593 1032 q 580 920 593 963 q 524 853 567 878 q 393 828 481 828 q 263 853 306 828 q 208 919 221 878 q 196 1032 196 961 l 285 1032 q 290 967 285 989 q 319 934 296 946 q 393 922 342 922 q 467 934 443 922 q 496 967 490 946 q 501 1032 501 989 l 593 1032 m 318 1043 q 331 1099 318 1083 q 382 1124 343 1114 l 411 1132 q 465 1153 453 1143 q 476 1185 476 1163 q 456 1224 476 1217 q 376 1232 436 1232 q 221 1226 318 1232 l 221 1301 q 388 1314 303 1314 q 494 1306 456 1314 q 554 1274 533 1299 q 575 1196 575 1249 q 556 1123 575 1144 q 485 1086 538 1101 l 454 1078 q 409 1060 417 1068 q 401 1032 401 1053 l 318 1032 l 318 1043 z "},"ẵ":{"ha":788,"x_min":69,"x_max":676,"o":"m 290 -11 q 123 36 176 -11 q 69 197 69 83 q 89 327 69 281 q 156 395 108 374 q 289 417 203 417 q 529 411 368 417 l 529 442 q 515 542 529 513 q 461 581 500 572 q 326 589 422 589 q 214 585 281 589 q 115 575 147 581 l 115 699 q 378 719 232 719 q 572 691 508 719 q 656 604 635 663 q 676 436 676 546 l 676 0 l 542 0 l 536 90 l 528 90 q 433 9 496 29 q 290 -11 371 -11 m 357 115 q 450 127 414 115 q 504 168 486 139 q 529 290 529 210 l 529 311 l 326 311 q 255 304 278 311 q 223 276 232 297 q 214 213 214 256 q 224 149 214 169 q 264 122 235 129 q 357 115 293 115 m 590 1032 q 577 920 590 963 q 521 853 564 878 q 390 828 478 828 q 260 853 303 828 q 206 919 218 878 q 193 1032 193 961 l 282 1032 q 288 967 282 989 q 316 934 293 946 q 390 922 339 922 q 464 934 440 922 q 493 967 488 946 q 499 1032 499 989 l 590 1032 m 651 1274 q 644 1171 651 1207 q 614 1116 638 1135 q 540 1097 590 1097 q 465 1105 503 1097 q 376 1128 428 1113 q 313 1143 344 1136 q 257 1150 281 1150 q 223 1138 229 1150 q 217 1082 217 1125 l 135 1082 q 142 1185 135 1149 q 173 1240 149 1221 q 247 1258 197 1258 q 322 1251 285 1258 q 411 1228 360 1243 q 475 1213 443 1219 q 531 1206 507 1206 q 565 1218 558 1206 q 571 1274 571 1231 l 651 1274 z "},"ǎ":{"ha":788,"x_min":69,"x_max":676,"o":"m 290 -11 q 123 36 176 -11 q 69 197 69 83 q 89 327 69 281 q 156 395 108 374 q 289 417 203 417 q 529 411 368 417 l 529 442 q 515 542 529 513 q 461 581 500 572 q 326 589 422 589 q 214 585 281 589 q 115 575 147 581 l 115 699 q 378 719 232 719 q 572 691 508 719 q 656 604 635 663 q 676 436 676 546 l 676 0 l 542 0 l 536 90 l 528 90 q 433 9 496 29 q 290 -11 371 -11 m 357 115 q 450 127 414 115 q 504 168 486 139 q 529 290 529 210 l 529 311 l 326 311 q 255 304 278 311 q 223 276 232 297 q 214 213 214 256 q 224 149 214 169 q 264 122 235 129 q 357 115 293 115 m 319 832 l 182 1022 l 182 1032 l 281 1032 l 393 907 l 506 1032 l 606 1032 l 606 1022 l 468 832 l 319 832 z "},"â":{"ha":788,"x_min":69,"x_max":676,"o":"m 290 -11 q 123 36 176 -11 q 69 197 69 83 q 89 327 69 281 q 156 395 108 374 q 289 417 203 417 q 529 411 368 417 l 529 442 q 515 542 529 513 q 461 581 500 572 q 326 589 422 589 q 214 585 281 589 q 115 575 147 581 l 115 699 q 378 719 232 719 q 572 691 508 719 q 656 604 635 663 q 676 436 676 546 l 676 0 l 542 0 l 536 90 l 528 90 q 433 9 496 29 q 290 -11 371 -11 m 357 115 q 450 127 414 115 q 504 168 486 139 q 529 290 529 210 l 529 311 l 326 311 q 255 304 278 311 q 223 276 232 297 q 214 213 214 256 q 224 149 214 169 q 264 122 235 129 q 357 115 293 115 m 185 832 l 185 842 l 322 1032 l 471 1032 l 608 842 l 608 832 l 508 832 l 396 957 l 283 832 l 185 832 z "},"ấ":{"ha":788,"x_min":69,"x_max":725,"o":"m 290 -11 q 123 36 176 -11 q 69 197 69 83 q 89 327 69 281 q 156 395 108 374 q 289 417 203 417 q 529 411 368 417 l 529 442 q 515 542 529 513 q 461 581 500 572 q 326 589 422 589 q 214 585 281 589 q 115 575 147 581 l 115 699 q 378 719 232 719 q 572 691 508 719 q 656 604 635 663 q 676 436 676 546 l 676 0 l 542 0 l 536 90 l 528 90 q 433 9 496 29 q 290 -11 371 -11 m 357 115 q 450 127 414 115 q 504 168 486 139 q 529 290 529 210 l 529 311 l 326 311 q 255 304 278 311 q 223 276 232 297 q 214 213 214 256 q 224 149 214 169 q 264 122 235 129 q 357 115 293 115 m 178 832 l 178 842 l 315 1032 l 464 1032 l 601 842 l 601 832 l 501 832 l 389 957 l 276 832 l 178 832 m 435 1069 l 435 1076 l 571 1268 l 725 1268 l 725 1261 l 543 1069 l 435 1069 z "},"ậ":{"ha":788,"x_min":69,"x_max":676,"o":"m 290 -11 q 123 36 176 -11 q 69 197 69 83 q 89 327 69 281 q 156 395 108 374 q 289 417 203 417 q 529 411 368 417 l 529 442 q 515 542 529 513 q 461 581 500 572 q 326 589 422 589 q 214 585 281 589 q 115 575 147 581 l 115 699 q 378 719 232 719 q 572 691 508 719 q 656 604 635 663 q 676 436 676 546 l 676 0 l 542 0 l 536 90 l 528 90 q 433 9 496 29 q 290 -11 371 -11 m 357 115 q 450 127 414 115 q 504 168 486 139 q 529 290 529 210 l 529 311 l 326 311 q 255 304 278 311 q 223 276 232 297 q 214 213 214 256 q 224 149 214 169 q 264 122 235 129 q 357 115 293 115 m 311 -253 l 311 -86 l 478 -86 l 478 -253 l 311 -253 m 182 832 l 182 842 l 319 1032 l 468 1032 l 606 842 l 606 832 l 506 832 l 393 957 l 281 832 l 182 832 z "},"ầ":{"ha":788,"x_min":69,"x_max":676,"o":"m 290 -11 q 123 36 176 -11 q 69 197 69 83 q 89 327 69 281 q 156 395 108 374 q 289 417 203 417 q 529 411 368 417 l 529 442 q 515 542 529 513 q 461 581 500 572 q 326 589 422 589 q 214 585 281 589 q 115 575 147 581 l 115 699 q 378 719 232 719 q 572 691 508 719 q 656 604 635 663 q 676 436 676 546 l 676 0 l 542 0 l 536 90 l 528 90 q 433 9 496 29 q 290 -11 371 -11 m 357 115 q 450 127 414 115 q 504 168 486 139 q 529 290 529 210 l 529 311 l 326 311 q 255 304 278 311 q 223 276 232 297 q 214 213 214 256 q 224 149 214 169 q 264 122 235 129 q 357 115 293 115 m 181 832 l 181 842 l 318 1032 l 467 1032 l 604 842 l 604 832 l 504 832 l 392 957 l 279 832 l 181 832 m 493 1069 l 311 1261 l 311 1268 l 464 1268 l 601 1076 l 601 1069 l 493 1069 z "},"ẩ":{"ha":788,"x_min":69,"x_max":697,"o":"m 290 -11 q 123 36 176 -11 q 69 197 69 83 q 89 327 69 281 q 156 395 108 374 q 289 417 203 417 q 529 411 368 417 l 529 442 q 515 542 529 513 q 461 581 500 572 q 326 589 422 589 q 214 585 281 589 q 115 575 147 581 l 115 699 q 378 719 232 719 q 572 691 508 719 q 656 604 635 663 q 676 436 676 546 l 676 0 l 542 0 l 536 90 l 528 90 q 433 9 496 29 q 290 -11 371 -11 m 357 115 q 450 127 414 115 q 504 168 486 139 q 529 290 529 210 l 529 311 l 326 311 q 255 304 278 311 q 223 276 232 297 q 214 213 214 256 q 224 149 214 169 q 264 122 235 129 q 357 115 293 115 m 182 832 l 182 842 l 319 1032 l 468 1032 l 606 842 l 606 832 l 506 832 l 393 957 l 281 832 l 182 832 m 440 1067 q 453 1122 440 1107 q 504 1147 465 1138 l 533 1156 q 587 1176 575 1167 q 599 1208 599 1186 q 578 1248 599 1240 q 499 1256 558 1256 q 343 1250 440 1256 l 343 1325 q 510 1338 425 1338 q 617 1330 578 1338 q 676 1297 656 1322 q 697 1219 697 1272 q 678 1147 697 1168 q 607 1110 660 1125 l 576 1101 q 531 1084 539 1092 q 524 1056 524 1076 l 440 1056 l 440 1067 z "},"ẫ":{"ha":788,"x_min":69,"x_max":676,"o":"m 290 -11 q 123 36 176 -11 q 69 197 69 83 q 89 327 69 281 q 156 395 108 374 q 289 417 203 417 q 529 411 368 417 l 529 442 q 515 542 529 513 q 461 581 500 572 q 326 589 422 589 q 214 585 281 589 q 115 575 147 581 l 115 699 q 378 719 232 719 q 572 691 508 719 q 656 604 635 663 q 676 436 676 546 l 676 0 l 542 0 l 536 90 l 528 90 q 433 9 496 29 q 290 -11 371 -11 m 357 115 q 450 127 414 115 q 504 168 486 139 q 529 290 529 210 l 529 311 l 326 311 q 255 304 278 311 q 223 276 232 297 q 214 213 214 256 q 224 149 214 169 q 264 122 235 129 q 357 115 293 115 m 179 832 l 179 842 l 317 1032 l 465 1032 l 603 842 l 603 832 l 503 832 l 390 957 l 278 832 l 179 832 m 651 1274 q 644 1171 651 1207 q 614 1116 638 1135 q 540 1097 590 1097 q 465 1105 503 1097 q 376 1128 428 1113 q 313 1143 344 1136 q 257 1150 281 1150 q 223 1138 229 1150 q 217 1082 217 1125 l 135 1082 q 142 1185 135 1149 q 173 1240 149 1221 q 247 1258 197 1258 q 322 1251 285 1258 q 411 1228 360 1243 q 475 1213 443 1219 q 531 1206 507 1206 q 565 1218 558 1206 q 571 1274 571 1231 l 651 1274 z "},"ȁ":{"ha":788,"x_min":68,"x_max":676,"o":"m 290 -11 q 123 36 176 -11 q 69 197 69 83 q 89 327 69 281 q 156 395 108 374 q 289 417 203 417 q 529 411 368 417 l 529 442 q 515 542 529 513 q 461 581 500 572 q 326 589 422 589 q 214 585 281 589 q 115 575 147 581 l 115 699 q 378 719 232 719 q 572 691 508 719 q 656 604 635 663 q 676 436 676 546 l 676 0 l 542 0 l 536 90 l 528 90 q 433 9 496 29 q 290 -11 371 -11 m 357 115 q 450 127 414 115 q 504 168 486 139 q 529 290 529 210 l 529 311 l 326 311 q 255 304 278 311 q 223 276 232 297 q 214 213 214 256 q 224 149 214 169 q 264 122 235 129 q 357 115 293 115 m 325 844 l 233 844 l 68 1015 l 68 1022 l 200 1022 l 325 851 l 325 844 m 592 844 l 500 844 l 336 1015 l 336 1022 l 465 1022 l 592 851 l 592 844 z "},"ä":{"ha":788,"x_min":69,"x_max":676,"o":"m 290 -11 q 123 36 176 -11 q 69 197 69 83 q 89 327 69 281 q 156 395 108 374 q 289 417 203 417 q 529 411 368 417 l 529 442 q 515 542 529 513 q 461 581 500 572 q 326 589 422 589 q 214 585 281 589 q 115 575 147 581 l 115 699 q 378 719 232 719 q 572 691 508 719 q 656 604 635 663 q 676 436 676 546 l 676 0 l 542 0 l 536 90 l 528 90 q 433 9 496 29 q 290 -11 371 -11 m 357 115 q 450 127 414 115 q 504 168 486 139 q 529 290 529 210 l 529 311 l 326 311 q 255 304 278 311 q 223 276 232 297 q 214 213 214 256 q 224 149 214 169 q 264 122 235 129 q 357 115 293 115 m 194 883 l 194 1014 l 326 1014 l 326 883 l 194 883 m 464 883 l 464 1014 l 594 1014 l 594 883 l 464 883 z "},"ạ":{"ha":788,"x_min":69,"x_max":676,"o":"m 290 -11 q 123 36 176 -11 q 69 197 69 83 q 89 327 69 281 q 156 395 108 374 q 289 417 203 417 q 529 411 368 417 l 529 442 q 515 542 529 513 q 461 581 500 572 q 326 589 422 589 q 214 585 281 589 q 115 575 147 581 l 115 699 q 378 719 232 719 q 572 691 508 719 q 656 604 635 663 q 676 436 676 546 l 676 0 l 542 0 l 536 90 l 528 90 q 433 9 496 29 q 290 -11 371 -11 m 357 115 q 450 127 414 115 q 504 168 486 139 q 529 290 529 210 l 529 311 l 326 311 q 255 304 278 311 q 223 276 232 297 q 214 213 214 256 q 224 149 214 169 q 264 122 235 129 q 357 115 293 115 m 311 -253 l 311 -86 l 478 -86 l 478 -253 l 311 -253 z "},"à":{"ha":788,"x_min":69,"x_max":676,"o":"m 290 -11 q 123 36 176 -11 q 69 197 69 83 q 89 327 69 281 q 156 395 108 374 q 289 417 203 417 q 529 411 368 417 l 529 442 q 515 542 529 513 q 461 581 500 572 q 326 589 422 589 q 214 585 281 589 q 115 575 147 581 l 115 699 q 378 719 232 719 q 572 691 508 719 q 656 604 635 663 q 676 436 676 546 l 676 0 l 542 0 l 536 90 l 528 90 q 433 9 496 29 q 290 -11 371 -11 m 357 115 q 450 127 414 115 q 504 168 486 139 q 529 290 529 210 l 529 311 l 326 311 q 255 304 278 311 q 223 276 232 297 q 214 213 214 256 q 224 149 214 169 q 264 122 235 129 q 357 115 293 115 m 356 833 l 174 1025 l 174 1032 l 326 1032 l 464 840 l 464 833 l 356 833 z "},"ả":{"ha":788,"x_min":69,"x_max":676,"o":"m 290 -11 q 123 36 176 -11 q 69 197 69 83 q 89 327 69 281 q 156 395 108 374 q 289 417 203 417 q 529 411 368 417 l 529 442 q 515 542 529 513 q 461 581 500 572 q 326 589 422 589 q 214 585 281 589 q 115 575 147 581 l 115 699 q 378 719 232 719 q 572 691 508 719 q 656 604 635 663 q 676 436 676 546 l 676 0 l 542 0 l 536 90 l 528 90 q 433 9 496 29 q 290 -11 371 -11 m 357 115 q 450 127 414 115 q 504 168 486 139 q 529 290 529 210 l 529 311 l 326 311 q 255 304 278 311 q 223 276 232 297 q 214 213 214 256 q 224 149 214 169 q 264 122 235 129 q 357 115 293 115 m 315 856 q 328 911 315 896 q 379 936 340 926 l 408 944 q 462 965 450 956 q 474 997 474 975 q 453 1037 474 1029 q 374 1044 433 1044 q 218 1039 315 1044 l 218 1114 q 385 1126 300 1126 q 492 1119 453 1126 q 551 1086 531 1111 q 572 1008 572 1061 q 553 935 572 957 q 482 899 535 914 l 451 890 q 406 873 414 881 q 399 844 399 865 l 315 844 l 315 856 z "},"ȃ":{"ha":788,"x_min":69,"x_max":676,"o":"m 290 -11 q 123 36 176 -11 q 69 197 69 83 q 89 327 69 281 q 156 395 108 374 q 289 417 203 417 q 529 411 368 417 l 529 442 q 515 542 529 513 q 461 581 500 572 q 326 589 422 589 q 214 585 281 589 q 115 575 147 581 l 115 699 q 378 719 232 719 q 572 691 508 719 q 656 604 635 663 q 676 436 676 546 l 676 0 l 542 0 l 536 90 l 528 90 q 433 9 496 29 q 290 -11 371 -11 m 357 115 q 450 127 414 115 q 504 168 486 139 q 529 290 529 210 l 529 311 l 326 311 q 255 304 278 311 q 223 276 232 297 q 214 213 214 256 q 224 149 214 169 q 264 122 235 129 q 357 115 293 115 m 196 836 q 209 948 196 906 q 265 1015 222 990 q 396 1040 308 1040 q 526 1015 483 1040 q 581 949 568 990 q 593 836 593 907 l 504 836 q 499 901 504 879 q 470 934 493 922 q 396 946 447 946 q 322 934 346 946 q 293 901 299 922 q 288 836 288 879 l 196 836 z "},"ā":{"ha":788,"x_min":69,"x_max":676,"o":"m 290 -11 q 123 36 176 -11 q 69 197 69 83 q 89 327 69 281 q 156 395 108 374 q 289 417 203 417 q 529 411 368 417 l 529 442 q 515 542 529 513 q 461 581 500 572 q 326 589 422 589 q 214 585 281 589 q 115 575 147 581 l 115 699 q 378 719 232 719 q 572 691 508 719 q 656 604 635 663 q 676 436 676 546 l 676 0 l 542 0 l 536 90 l 528 90 q 433 9 496 29 q 290 -11 371 -11 m 357 115 q 450 127 414 115 q 504 168 486 139 q 529 290 529 210 l 529 311 l 326 311 q 255 304 278 311 q 223 276 232 297 q 214 213 214 256 q 224 149 214 169 q 264 122 235 129 q 357 115 293 115 m 218 892 l 218 1031 l 571 1031 l 571 892 l 218 892 z "},"ą":{"ha":788,"x_min":69,"x_max":681,"o":"m 681 -175 l 681 -268 q 613 -272 632 -272 q 465 -165 465 -272 q 549 0 465 -83 l 542 0 l 536 90 l 528 90 q 433 9 496 29 q 290 -11 371 -11 q 123 36 176 -11 q 69 197 69 83 q 89 327 69 281 q 156 395 108 374 q 289 417 203 417 q 529 411 368 417 l 529 442 q 515 542 529 513 q 461 581 500 572 q 326 589 422 589 q 214 585 281 589 q 115 575 147 581 l 115 699 q 378 719 232 719 q 572 691 508 719 q 656 604 635 663 q 676 436 676 546 l 676 0 q 618 -57 644 -19 q 592 -128 592 -94 q 654 -176 592 -176 l 681 -175 m 529 311 l 326 311 q 255 304 278 311 q 223 276 232 297 q 214 213 214 256 q 224 149 214 169 q 264 122 235 129 q 357 115 293 115 q 450 127 414 115 q 504 168 486 139 q 529 290 529 210 l 529 311 z "},"å":{"ha":788,"x_min":69,"x_max":676,"o":"m 290 -11 q 123 36 176 -11 q 69 197 69 83 q 89 327 69 281 q 156 395 108 374 q 289 417 203 417 q 529 411 368 417 l 529 442 q 515 542 529 513 q 461 581 500 572 q 326 589 422 589 q 214 585 281 589 q 115 575 147 581 l 115 699 q 378 719 232 719 q 572 691 508 719 q 656 604 635 663 q 676 436 676 546 l 676 0 l 542 0 l 536 90 l 528 90 q 433 9 496 29 q 290 -11 371 -11 m 357 115 q 450 127 414 115 q 504 168 486 139 q 529 290 529 210 l 529 311 l 326 311 q 255 304 278 311 q 223 276 232 297 q 214 213 214 256 q 224 149 214 169 q 264 122 235 129 q 357 115 293 115 m 393 810 q 267 826 307 810 q 217 872 228 842 q 207 965 207 903 q 217 1059 207 1028 q 267 1107 228 1090 q 393 1124 307 1124 q 520 1107 481 1124 q 571 1059 560 1090 q 582 965 582 1028 q 571 872 582 903 q 520 826 560 842 q 393 810 481 810 m 393 882 q 463 890 443 882 q 488 913 483 897 q 493 965 493 928 q 488 1019 493 1004 q 463 1042 483 1035 q 393 1049 443 1049 q 324 1042 344 1049 q 299 1019 304 1035 q 294 965 294 1003 q 299 913 294 928 q 324 890 304 897 q 393 882 344 882 z "},"ǻ":{"ha":788,"x_min":69,"x_max":676,"o":"m 290 -11 q 123 36 176 -11 q 69 197 69 83 q 89 327 69 281 q 156 395 108 374 q 289 417 203 417 q 529 411 368 417 l 529 442 q 515 542 529 513 q 461 581 500 572 q 326 589 422 589 q 214 585 281 589 q 115 575 147 581 l 115 699 q 378 719 232 719 q 572 691 508 719 q 656 604 635 663 q 676 436 676 546 l 676 0 l 542 0 l 536 90 l 528 90 q 433 9 496 29 q 290 -11 371 -11 m 357 115 q 450 127 414 115 q 504 168 486 139 q 529 290 529 210 l 529 311 l 326 311 q 255 304 278 311 q 223 276 232 297 q 214 213 214 256 q 224 149 214 169 q 264 122 235 129 q 357 115 293 115 m 393 829 q 267 845 307 829 q 217 892 228 861 q 207 985 207 922 q 217 1078 207 1047 q 267 1126 228 1110 q 393 1143 307 1143 q 520 1126 481 1143 q 571 1078 560 1110 q 582 985 582 1047 q 571 892 582 922 q 520 845 560 861 q 393 829 481 829 m 393 901 q 463 909 443 901 q 488 932 483 917 q 493 985 493 947 q 488 1039 493 1024 q 463 1061 483 1054 q 393 1068 443 1068 q 324 1061 344 1068 q 299 1038 304 1054 q 294 985 294 1022 q 299 932 294 947 q 324 909 304 917 q 393 901 344 901 m 332 1185 l 332 1192 l 468 1383 l 622 1383 l 622 1376 l 440 1185 l 332 1185 z "},"ã":{"ha":788,"x_min":69,"x_max":676,"o":"m 290 -11 q 123 36 176 -11 q 69 197 69 83 q 89 327 69 281 q 156 395 108 374 q 289 417 203 417 q 529 411 368 417 l 529 442 q 515 542 529 513 q 461 581 500 572 q 326 589 422 589 q 214 585 281 589 q 115 575 147 581 l 115 699 q 378 719 232 719 q 572 691 508 719 q 656 604 635 663 q 676 436 676 546 l 676 0 l 542 0 l 536 90 l 528 90 q 433 9 496 29 q 290 -11 371 -11 m 357 115 q 450 127 414 115 q 504 168 486 139 q 529 290 529 210 l 529 311 l 326 311 q 255 304 278 311 q 223 276 232 297 q 214 213 214 256 q 224 149 214 169 q 264 122 235 129 q 357 115 293 115 m 651 1032 q 644 929 651 965 q 614 874 638 893 q 540 856 590 856 q 465 863 503 856 q 376 886 428 871 q 313 901 344 894 q 257 908 281 908 q 223 896 229 908 q 217 840 217 883 l 135 840 q 142 943 135 907 q 173 998 149 979 q 247 1017 197 1017 q 322 1009 285 1017 q 411 986 360 1001 q 475 971 443 978 q 531 964 507 964 q 565 976 558 964 q 571 1032 571 989 l 651 1032 z "},"æ":{"ha":1226,"x_min":69,"x_max":1142,"o":"m 1142 306 l 679 306 q 691 183 679 219 q 747 133 703 147 q 894 118 790 118 q 1114 132 983 118 l 1114 10 q 997 -6 1068 0 q 860 -11 926 -11 q 680 10 744 -11 q 583 79 615 31 q 472 6 540 24 q 314 -11 404 -11 q 128 36 188 -11 q 69 197 69 83 q 89 327 69 281 q 156 395 108 374 q 289 417 203 417 q 468 413 289 417 l 529 411 l 529 442 q 515 542 529 513 q 461 581 500 572 q 326 589 422 589 q 208 585 278 589 q 115 575 139 581 l 115 699 q 378 719 243 719 q 524 704 468 719 q 613 654 581 689 q 705 703 647 688 q 849 719 763 719 q 1048 682 986 719 q 1126 573 1110 644 q 1142 354 1142 501 l 1142 306 m 846 590 q 737 576 771 590 q 692 525 703 561 q 679 408 681 489 l 1000 408 l 1000 411 q 987 528 1000 490 q 942 578 974 565 q 846 590 910 590 m 529 307 l 326 307 q 254 301 276 307 q 223 275 232 294 q 214 213 214 256 q 224 149 214 169 q 264 122 235 129 q 357 115 293 115 q 456 129 418 115 q 510 181 493 143 q 529 290 529 218 l 529 307 z "},"ǽ":{"ha":1226,"x_min":69,"x_max":1142,"o":"m 1142 306 l 679 306 q 691 183 679 219 q 747 133 703 147 q 894 118 790 118 q 1114 132 983 118 l 1114 10 q 997 -6 1068 0 q 860 -11 926 -11 q 680 10 744 -11 q 583 79 615 31 q 472 6 540 24 q 314 -11 404 -11 q 128 36 188 -11 q 69 197 69 83 q 89 327 69 281 q 156 395 108 374 q 289 417 203 417 q 468 413 289 417 l 529 411 l 529 442 q 515 542 529 513 q 461 581 500 572 q 326 589 422 589 q 208 585 278 589 q 115 575 139 581 l 115 699 q 378 719 243 719 q 524 704 468 719 q 613 654 581 689 q 705 703 647 688 q 849 719 763 719 q 1048 682 986 719 q 1126 573 1110 644 q 1142 354 1142 501 l 1142 306 m 846 590 q 737 576 771 590 q 692 525 703 561 q 679 408 681 489 l 1000 408 l 1000 411 q 987 528 1000 490 q 942 578 974 565 q 846 590 910 590 m 529 307 l 326 307 q 254 301 276 307 q 223 275 232 294 q 214 213 214 256 q 224 149 214 169 q 264 122 235 129 q 357 115 293 115 q 456 129 418 115 q 510 181 493 143 q 529 290 529 218 l 529 307 m 549 833 l 549 840 l 685 1032 l 839 1032 l 839 1025 l 657 833 l 549 833 z "},"b":{"ha":817,"x_min":110,"x_max":733,"o":"m 481 -11 q 346 10 403 -11 q 260 92 289 32 l 250 92 l 246 0 l 110 0 l 110 1032 l 257 1032 l 257 626 l 265 626 q 350 699 296 679 q 486 719 404 719 q 635 687 582 719 q 710 576 688 654 q 733 354 733 497 q 710 133 733 211 q 632 22 686 54 q 481 -11 578 -11 m 421 128 q 531 142 499 128 q 575 202 564 157 q 586 354 586 247 q 575 506 586 461 q 531 565 564 550 q 421 579 499 579 q 333 567 367 579 q 285 529 300 556 q 263 463 268 504 q 257 354 257 422 q 263 244 257 286 q 285 176 268 203 q 421 128 315 128 z "},"c":{"ha":640,"x_min":82,"x_max":575,"o":"m 575 8 q 482 -6 538 0 q 376 -11 426 -11 q 181 28 243 -11 q 100 140 118 67 q 82 356 82 214 q 103 565 82 489 q 186 680 124 640 q 372 719 249 719 q 478 714 422 719 q 569 699 533 708 l 569 575 q 410 589 497 589 q 291 570 328 589 q 242 504 254 551 q 231 354 231 457 q 243 201 231 249 q 292 137 256 154 q 413 119 329 119 q 575 132 481 119 l 575 8 z "},"ć":{"ha":640,"x_min":82,"x_max":575,"o":"m 575 8 q 482 -6 538 0 q 376 -11 426 -11 q 181 28 243 -11 q 100 140 118 67 q 82 356 82 214 q 103 565 82 489 q 186 680 124 640 q 372 719 249 719 q 478 714 422 719 q 569 699 533 708 l 569 575 q 410 589 497 589 q 291 570 328 589 q 242 504 254 551 q 231 354 231 457 q 243 201 231 249 q 292 137 256 154 q 413 119 329 119 q 575 132 481 119 l 575 8 m 256 833 l 256 840 l 392 1032 l 546 1032 l 546 1025 l 364 833 l 256 833 z "},"č":{"ha":640,"x_min":82,"x_max":575,"o":"m 575 8 q 482 -6 538 0 q 376 -11 426 -11 q 181 28 243 -11 q 100 140 118 67 q 82 356 82 214 q 103 565 82 489 q 186 680 124 640 q 372 719 249 719 q 478 714 422 719 q 569 699 533 708 l 569 575 q 410 589 497 589 q 291 570 328 589 q 242 504 254 551 q 231 354 231 457 q 243 201 231 249 q 292 137 256 154 q 413 119 329 119 q 575 132 481 119 l 575 8 m 246 832 l 108 1022 l 108 1032 l 207 1032 l 319 907 l 432 1032 l 532 1032 l 532 1022 l 394 832 l 246 832 z "},"ç":{"ha":640,"x_min":82,"x_max":575,"o":"m 413 119 q 575 132 481 119 l 575 8 q 482 -6 538 0 q 376 -11 426 -11 l 369 -11 l 318 -264 l 175 -264 l 175 -257 l 267 -3 q 145 56 185 13 q 94 168 106 100 q 82 356 82 236 q 103 565 82 489 q 186 680 124 640 q 372 719 249 719 q 478 714 422 719 q 569 699 533 708 l 569 575 q 410 589 497 589 q 291 570 328 589 q 242 504 254 551 q 231 354 231 457 q 243 201 231 249 q 292 137 256 154 q 413 119 329 119 z "},"ĉ":{"ha":640,"x_min":82,"x_max":575,"o":"m 575 8 q 482 -6 538 0 q 376 -11 426 -11 q 181 28 243 -11 q 100 140 118 67 q 82 356 82 214 q 103 565 82 489 q 186 680 124 640 q 372 719 249 719 q 478 714 422 719 q 569 699 533 708 l 569 575 q 410 589 497 589 q 291 570 328 589 q 242 504 254 551 q 231 354 231 457 q 243 201 231 249 q 292 137 256 154 q 413 119 329 119 q 575 132 481 119 l 575 8 m 108 832 l 108 842 l 246 1032 l 394 1032 l 532 842 l 532 832 l 432 832 l 319 957 l 207 832 l 108 832 z "},"ċ":{"ha":640,"x_min":82,"x_max":575,"o":"m 575 8 q 482 -6 538 0 q 376 -11 426 -11 q 181 28 243 -11 q 100 140 118 67 q 82 356 82 214 q 103 565 82 489 q 186 680 124 640 q 372 719 249 719 q 478 714 422 719 q 569 699 533 708 l 569 575 q 410 589 497 589 q 291 570 328 589 q 242 504 254 551 q 231 354 231 457 q 243 201 231 249 q 292 137 256 154 q 413 119 329 119 q 575 132 481 119 l 575 8 m 254 883 l 254 1014 l 386 1014 l 386 883 l 254 883 z "},"d":{"ha":817,"x_min":82,"x_max":706,"o":"m 335 -11 q 183 22 238 -11 q 106 132 129 54 q 82 353 82 210 q 106 574 82 496 q 182 686 129 653 q 331 719 235 719 q 467 699 413 719 q 550 626 521 679 l 558 626 l 558 1032 l 706 1032 l 706 0 l 571 0 l 565 92 l 557 92 q 470 10 528 32 q 335 -11 413 -11 m 396 128 q 490 143 456 128 q 539 192 524 158 q 555 256 551 218 q 558 356 558 293 q 555 453 558 417 q 540 514 551 489 q 490 563 525 547 q 394 579 456 579 q 285 565 317 579 q 242 505 253 550 q 231 354 231 460 q 242 202 231 247 q 285 142 253 157 q 396 128 318 128 z "},"ð":{"ha":804,"x_min":82,"x_max":718,"o":"m 400 -11 q 185 22 251 -11 q 101 126 119 54 q 82 353 82 197 q 99 569 82 496 q 175 681 115 643 q 361 718 235 718 q 524 690 461 718 l 529 694 q 453 839 496 776 l 292 814 l 292 914 l 392 929 q 293 1026 346 979 l 293 1032 l 453 1032 q 488 1000 463 1024 q 535 953 513 976 l 690 978 l 690 879 l 596 863 q 693 625 667 754 q 718 371 718 513 q 700 128 718 203 q 617 22 682 54 q 400 -11 551 -11 m 400 118 q 522 133 489 118 q 563 192 556 149 q 571 353 571 235 q 563 506 571 463 q 520 569 556 550 q 400 589 485 589 q 279 573 313 589 q 238 515 246 557 q 231 353 231 472 q 238 192 231 235 q 279 133 246 149 q 400 118 313 118 z "},"ď":{"ha":817,"x_min":82,"x_max":914,"o":"m 335 -11 q 183 22 238 -11 q 106 132 129 54 q 82 353 82 210 q 106 574 82 496 q 182 686 129 653 q 331 719 235 719 q 467 699 413 719 q 550 626 521 679 l 558 626 l 558 1032 l 706 1032 l 706 0 l 571 0 l 565 92 l 557 92 q 470 10 528 32 q 335 -11 413 -11 m 396 128 q 490 143 456 128 q 539 192 524 158 q 555 256 551 218 q 558 356 558 293 q 555 453 558 417 q 540 514 551 489 q 490 563 525 547 q 394 579 456 579 q 285 565 317 579 q 242 505 253 550 q 231 354 231 460 q 242 202 231 247 q 285 142 253 157 q 396 128 318 128 m 754 607 l 775 863 l 775 956 l 914 956 l 914 863 l 857 607 l 754 607 z "},"đ":{"ha":817,"x_min":82,"x_max":797,"o":"m 797 828 l 706 828 l 706 0 l 571 0 l 565 92 l 557 92 q 470 10 528 32 q 335 -11 413 -11 q 183 22 238 -11 q 106 132 129 54 q 82 353 82 210 q 106 574 82 496 q 182 686 129 653 q 331 719 235 719 q 467 699 413 719 q 550 626 521 679 l 558 626 l 558 828 l 381 828 l 381 956 l 558 956 l 558 1032 l 706 1032 l 706 956 l 797 956 l 797 828 m 539 192 q 555 256 551 218 q 558 356 558 293 q 555 453 558 417 q 540 514 551 489 q 490 563 525 547 q 394 579 456 579 q 285 565 317 579 q 242 505 253 550 q 231 354 231 460 q 242 202 231 247 q 285 142 253 157 q 396 128 318 128 q 490 143 456 128 q 539 192 524 158 z "},"ḍ":{"ha":817,"x_min":82,"x_max":706,"o":"m 335 -11 q 183 22 238 -11 q 106 132 129 54 q 82 353 82 210 q 106 574 82 496 q 182 686 129 653 q 331 719 235 719 q 467 699 413 719 q 550 626 521 679 l 558 626 l 558 1032 l 706 1032 l 706 0 l 571 0 l 565 92 l 557 92 q 470 10 528 32 q 335 -11 413 -11 m 396 128 q 490 143 456 128 q 539 192 524 158 q 555 256 551 218 q 558 356 558 293 q 555 453 558 417 q 540 514 551 489 q 490 563 525 547 q 394 579 456 579 q 285 565 317 579 q 242 505 253 550 q 231 354 231 460 q 242 202 231 247 q 285 142 253 157 q 396 128 318 128 m 325 -253 l 325 -86 l 492 -86 l 492 -253 l 325 -253 z "},"ǳ":{"ha":1532,"x_min":82,"x_max":1461,"o":"m 335 -11 q 183 22 238 -11 q 106 132 129 54 q 82 353 82 210 q 106 574 82 496 q 182 686 129 653 q 331 719 235 719 q 467 699 413 719 q 550 626 521 679 l 558 626 l 558 1032 l 706 1032 l 706 0 l 571 0 l 565 92 l 557 92 q 470 10 528 32 q 335 -11 413 -11 m 396 128 q 490 143 456 128 q 539 192 524 158 q 555 256 551 218 q 558 356 558 293 q 555 453 558 417 q 540 514 551 489 q 490 563 525 547 q 394 579 456 579 q 285 565 317 579 q 242 505 253 550 q 231 354 231 460 q 242 202 231 247 q 285 142 253 157 q 396 128 318 128 m 888 0 l 888 121 l 1269 578 l 904 578 l 904 708 l 1458 708 l 1458 586 l 1078 131 l 1461 131 l 1461 0 l 888 0 z "},"ǆ":{"ha":1532,"x_min":82,"x_max":1461,"o":"m 335 -11 q 183 22 238 -11 q 106 132 129 54 q 82 353 82 210 q 106 574 82 496 q 182 686 129 653 q 331 719 235 719 q 467 699 413 719 q 550 626 521 679 l 558 626 l 558 1032 l 706 1032 l 706 0 l 571 0 l 565 92 l 557 92 q 470 10 528 32 q 335 -11 413 -11 m 396 128 q 490 143 456 128 q 539 192 524 158 q 555 256 551 218 q 558 356 558 293 q 555 453 558 417 q 540 514 551 489 q 490 563 525 547 q 394 579 456 579 q 285 565 317 579 q 242 505 253 550 q 231 354 231 460 q 242 202 231 247 q 285 142 253 157 q 396 128 318 128 m 888 0 l 888 121 l 1269 578 l 904 578 l 904 708 l 1458 708 l 1458 586 l 1078 131 l 1461 131 l 1461 0 l 888 0 m 1099 832 l 961 1022 l 961 1032 l 1060 1032 l 1172 907 l 1285 1032 l 1385 1032 l 1385 1022 l 1247 832 l 1099 832 z "},"e":{"ha":776,"x_min":82,"x_max":693,"o":"m 693 301 l 231 301 q 242 181 231 217 q 298 132 254 146 q 446 118 342 118 q 665 132 538 118 l 665 10 q 549 -6 619 0 q 411 -11 478 -11 q 193 23 263 -11 q 103 131 124 57 q 82 353 82 204 q 103 569 82 494 q 192 682 124 644 q 401 719 260 719 q 599 682 538 719 q 677 573 661 644 q 693 353 693 501 l 693 301 m 397 590 q 288 576 322 590 q 243 525 254 561 q 231 408 232 489 l 553 408 l 553 411 q 539 528 553 490 q 494 578 525 565 q 397 590 463 590 z "},"é":{"ha":776,"x_min":82,"x_max":693,"o":"m 693 301 l 231 301 q 242 181 231 217 q 298 132 254 146 q 446 118 342 118 q 665 132 538 118 l 665 10 q 549 -6 619 0 q 411 -11 478 -11 q 193 23 263 -11 q 103 131 124 57 q 82 353 82 204 q 103 569 82 494 q 192 682 124 644 q 401 719 260 719 q 599 682 538 719 q 677 573 661 644 q 693 353 693 501 l 693 301 m 397 590 q 288 576 322 590 q 243 525 254 561 q 231 408 232 489 l 553 408 l 553 411 q 539 528 553 490 q 494 578 525 565 q 397 590 463 590 m 329 833 l 329 840 l 465 1032 l 619 1032 l 619 1025 l 438 833 l 329 833 z "},"ĕ":{"ha":776,"x_min":82,"x_max":693,"o":"m 693 301 l 231 301 q 242 181 231 217 q 298 132 254 146 q 446 118 342 118 q 665 132 538 118 l 665 10 q 549 -6 619 0 q 411 -11 478 -11 q 193 23 263 -11 q 103 131 124 57 q 82 353 82 204 q 103 569 82 494 q 192 682 124 644 q 401 719 260 719 q 599 682 538 719 q 677 573 661 644 q 693 353 693 501 l 693 301 m 397 590 q 288 576 322 590 q 243 525 254 561 q 231 408 232 489 l 553 408 l 553 411 q 539 528 553 490 q 494 578 525 565 q 397 590 463 590 m 588 1032 q 574 920 588 963 q 518 853 561 878 q 388 828 475 828 q 258 853 300 828 q 203 919 215 878 q 190 1032 190 961 l 279 1032 q 285 967 279 989 q 313 934 290 946 q 388 922 336 922 q 461 934 438 922 q 490 967 485 946 q 496 1032 496 989 l 588 1032 z "},"ě":{"ha":776,"x_min":82,"x_max":693,"o":"m 693 301 l 231 301 q 242 181 231 217 q 298 132 254 146 q 446 118 342 118 q 665 132 538 118 l 665 10 q 549 -6 619 0 q 411 -11 478 -11 q 193 23 263 -11 q 103 131 124 57 q 82 353 82 204 q 103 569 82 494 q 192 682 124 644 q 401 719 260 719 q 599 682 538 719 q 677 573 661 644 q 693 353 693 501 l 693 301 m 397 590 q 288 576 322 590 q 243 525 254 561 q 231 408 232 489 l 553 408 l 553 411 q 539 528 553 490 q 494 578 525 565 q 397 590 463 590 m 314 832 l 176 1022 l 176 1032 l 275 1032 l 388 907 l 500 1032 l 600 1032 l 600 1022 l 463 832 l 314 832 z "},"ê":{"ha":776,"x_min":82,"x_max":693,"o":"m 693 301 l 231 301 q 242 181 231 217 q 298 132 254 146 q 446 118 342 118 q 665 132 538 118 l 665 10 q 549 -6 619 0 q 411 -11 478 -11 q 193 23 263 -11 q 103 131 124 57 q 82 353 82 204 q 103 569 82 494 q 192 682 124 644 q 401 719 260 719 q 599 682 538 719 q 677 573 661 644 q 693 353 693 501 l 693 301 m 397 590 q 288 576 322 590 q 243 525 254 561 q 231 408 232 489 l 553 408 l 553 411 q 539 528 553 490 q 494 578 525 565 q 397 590 463 590 m 181 832 l 181 842 l 318 1032 l 467 1032 l 604 842 l 604 832 l 504 832 l 392 957 l 279 832 l 181 832 z "},"ế":{"ha":776,"x_min":82,"x_max":719,"o":"m 693 301 l 231 301 q 242 181 231 217 q 298 132 254 146 q 446 118 342 118 q 665 132 538 118 l 665 10 q 549 -6 619 0 q 411 -11 478 -11 q 193 23 263 -11 q 103 131 124 57 q 82 353 82 204 q 103 569 82 494 q 192 682 124 644 q 401 719 260 719 q 599 682 538 719 q 677 573 661 644 q 693 353 693 501 l 693 301 m 397 590 q 288 576 322 590 q 243 525 254 561 q 231 408 232 489 l 553 408 l 553 411 q 539 528 553 490 q 494 578 525 565 q 397 590 463 590 m 172 832 l 172 842 l 310 1032 l 458 1032 l 596 842 l 596 832 l 496 832 l 383 957 l 271 832 l 172 832 m 429 1069 l 429 1076 l 565 1268 l 719 1268 l 719 1261 l 538 1069 l 429 1069 z "},"ệ":{"ha":776,"x_min":82,"x_max":693,"o":"m 693 301 l 231 301 q 242 181 231 217 q 298 132 254 146 q 446 118 342 118 q 665 132 538 118 l 665 10 q 549 -6 619 0 q 411 -11 478 -11 q 193 23 263 -11 q 103 131 124 57 q 82 353 82 204 q 103 569 82 494 q 192 682 124 644 q 401 719 260 719 q 599 682 538 719 q 677 573 661 644 q 693 353 693 501 l 693 301 m 397 590 q 288 576 322 590 q 243 525 254 561 q 231 408 232 489 l 553 408 l 553 411 q 539 528 553 490 q 494 578 525 565 q 397 590 463 590 m 306 -253 l 306 -86 l 472 -86 l 472 -253 l 306 -253 m 176 832 l 176 842 l 314 1032 l 463 1032 l 600 842 l 600 832 l 500 832 l 388 957 l 275 832 l 176 832 z "},"ề":{"ha":776,"x_min":82,"x_max":693,"o":"m 693 301 l 231 301 q 242 181 231 217 q 298 132 254 146 q 446 118 342 118 q 665 132 538 118 l 665 10 q 549 -6 619 0 q 411 -11 478 -11 q 193 23 263 -11 q 103 131 124 57 q 82 353 82 204 q 103 569 82 494 q 192 682 124 644 q 401 719 260 719 q 599 682 538 719 q 677 573 661 644 q 693 353 693 501 l 693 301 m 397 590 q 288 576 322 590 q 243 525 254 561 q 231 408 232 489 l 553 408 l 553 411 q 539 528 553 490 q 494 578 525 565 q 397 590 463 590 m 175 832 l 175 842 l 313 1032 l 461 1032 l 599 842 l 599 832 l 499 832 l 386 957 l 274 832 l 175 832 m 488 1069 l 306 1261 l 306 1268 l 458 1268 l 596 1076 l 596 1069 l 488 1069 z "},"ể":{"ha":776,"x_min":82,"x_max":693,"o":"m 693 301 l 231 301 q 242 181 231 217 q 298 132 254 146 q 446 118 342 118 q 665 132 538 118 l 665 10 q 549 -6 619 0 q 411 -11 478 -11 q 193 23 263 -11 q 103 131 124 57 q 82 353 82 204 q 103 569 82 494 q 192 682 124 644 q 401 719 260 719 q 599 682 538 719 q 677 573 661 644 q 693 353 693 501 l 693 301 m 397 590 q 288 576 322 590 q 243 525 254 561 q 231 408 232 489 l 553 408 l 553 411 q 539 528 553 490 q 494 578 525 565 q 397 590 463 590 m 176 832 l 176 842 l 314 1032 l 463 1032 l 600 842 l 600 832 l 500 832 l 388 957 l 275 832 l 176 832 m 435 1067 q 447 1122 435 1107 q 499 1147 460 1138 l 528 1156 q 581 1176 569 1167 q 593 1208 593 1186 q 573 1248 593 1240 q 493 1256 553 1256 q 338 1250 435 1256 l 338 1325 q 504 1338 419 1338 q 611 1330 572 1338 q 671 1297 650 1322 q 692 1219 692 1272 q 673 1147 692 1168 q 601 1110 654 1125 l 571 1101 q 526 1084 533 1092 q 518 1056 518 1076 l 435 1056 l 435 1067 z "},"ễ":{"ha":776,"x_min":82,"x_max":693,"o":"m 693 301 l 231 301 q 242 181 231 217 q 298 132 254 146 q 446 118 342 118 q 665 132 538 118 l 665 10 q 549 -6 619 0 q 411 -11 478 -11 q 193 23 263 -11 q 103 131 124 57 q 82 353 82 204 q 103 569 82 494 q 192 682 124 644 q 401 719 260 719 q 599 682 538 719 q 677 573 661 644 q 693 353 693 501 l 693 301 m 397 590 q 288 576 322 590 q 243 525 254 561 q 231 408 232 489 l 553 408 l 553 411 q 539 528 553 490 q 494 578 525 565 q 397 590 463 590 m 174 832 l 174 842 l 311 1032 l 460 1032 l 597 842 l 597 832 l 497 832 l 385 957 l 272 832 l 174 832 m 646 1274 q 639 1171 646 1207 q 608 1116 632 1135 q 535 1097 585 1097 q 460 1105 497 1097 q 371 1128 422 1113 q 307 1143 339 1136 q 251 1150 275 1150 q 217 1138 224 1150 q 211 1082 211 1125 l 129 1082 q 136 1185 129 1149 q 167 1240 143 1221 q 242 1258 192 1258 q 317 1251 279 1258 q 406 1228 354 1243 q 469 1213 438 1219 q 525 1206 501 1206 q 559 1218 553 1206 q 565 1274 565 1231 l 646 1274 z "},"ȅ":{"ha":776,"x_min":63,"x_max":693,"o":"m 693 301 l 231 301 q 242 181 231 217 q 298 132 254 146 q 446 118 342 118 q 665 132 538 118 l 665 10 q 549 -6 619 0 q 411 -11 478 -11 q 193 23 263 -11 q 103 131 124 57 q 82 353 82 204 q 103 569 82 494 q 192 682 124 644 q 401 719 260 719 q 599 682 538 719 q 677 573 661 644 q 693 353 693 501 l 693 301 m 397 590 q 288 576 322 590 q 243 525 254 561 q 231 408 232 489 l 553 408 l 553 411 q 539 528 553 490 q 494 578 525 565 q 397 590 463 590 m 319 844 l 228 844 l 63 1015 l 63 1022 l 194 1022 l 319 851 l 319 844 m 586 844 l 494 844 l 331 1015 l 331 1022 l 460 1022 l 586 851 l 586 844 z "},"ë":{"ha":776,"x_min":82,"x_max":693,"o":"m 693 301 l 231 301 q 242 181 231 217 q 298 132 254 146 q 446 118 342 118 q 665 132 538 118 l 665 10 q 549 -6 619 0 q 411 -11 478 -11 q 193 23 263 -11 q 103 131 124 57 q 82 353 82 204 q 103 569 82 494 q 192 682 124 644 q 401 719 260 719 q 599 682 538 719 q 677 573 661 644 q 693 353 693 501 l 693 301 m 397 590 q 288 576 322 590 q 243 525 254 561 q 231 408 232 489 l 553 408 l 553 411 q 539 528 553 490 q 494 578 525 565 q 397 590 463 590 m 196 883 l 196 1014 l 328 1014 l 328 883 l 196 883 m 465 883 l 465 1014 l 596 1014 l 596 883 l 465 883 z "},"ė":{"ha":776,"x_min":82,"x_max":693,"o":"m 693 301 l 231 301 q 242 181 231 217 q 298 132 254 146 q 446 118 342 118 q 665 132 538 118 l 665 10 q 549 -6 619 0 q 411 -11 478 -11 q 193 23 263 -11 q 103 131 124 57 q 82 353 82 204 q 103 569 82 494 q 192 682 124 644 q 401 719 260 719 q 599 682 538 719 q 677 573 661 644 q 693 353 693 501 l 693 301 m 397 590 q 288 576 322 590 q 243 525 254 561 q 231 408 232 489 l 553 408 l 553 411 q 539 528 553 490 q 494 578 525 565 q 397 590 463 590 m 322 883 l 322 1014 l 454 1014 l 454 883 l 322 883 z "},"ẹ":{"ha":776,"x_min":82,"x_max":693,"o":"m 693 301 l 231 301 q 242 181 231 217 q 298 132 254 146 q 446 118 342 118 q 665 132 538 118 l 665 10 q 549 -6 619 0 q 411 -11 478 -11 q 193 23 263 -11 q 103 131 124 57 q 82 353 82 204 q 103 569 82 494 q 192 682 124 644 q 401 719 260 719 q 599 682 538 719 q 677 573 661 644 q 693 353 693 501 l 693 301 m 397 590 q 288 576 322 590 q 243 525 254 561 q 231 408 232 489 l 553 408 l 553 411 q 539 528 553 490 q 494 578 525 565 q 397 590 463 590 m 306 -253 l 306 -86 l 472 -86 l 472 -253 l 306 -253 z "},"è":{"ha":776,"x_min":82,"x_max":693,"o":"m 693 301 l 231 301 q 242 181 231 217 q 298 132 254 146 q 446 118 342 118 q 665 132 538 118 l 665 10 q 549 -6 619 0 q 411 -11 478 -11 q 193 23 263 -11 q 103 131 124 57 q 82 353 82 204 q 103 569 82 494 q 192 682 124 644 q 401 719 260 719 q 599 682 538 719 q 677 573 661 644 q 693 353 693 501 l 693 301 m 397 590 q 288 576 322 590 q 243 525 254 561 q 231 408 232 489 l 553 408 l 553 411 q 539 528 553 490 q 494 578 525 565 q 397 590 463 590 m 360 833 l 178 1025 l 178 1032 l 331 1032 l 468 840 l 468 833 l 360 833 z "},"ẻ":{"ha":776,"x_min":82,"x_max":693,"o":"m 693 301 l 231 301 q 242 181 231 217 q 298 132 254 146 q 446 118 342 118 q 665 132 538 118 l 665 10 q 549 -6 619 0 q 411 -11 478 -11 q 193 23 263 -11 q 103 131 124 57 q 82 353 82 204 q 103 569 82 494 q 192 682 124 644 q 401 719 260 719 q 599 682 538 719 q 677 573 661 644 q 693 353 693 501 l 693 301 m 397 590 q 288 576 322 590 q 243 525 254 561 q 231 408 232 489 l 553 408 l 553 411 q 539 528 553 490 q 494 578 525 565 q 397 590 463 590 m 310 856 q 322 911 310 896 q 374 936 335 926 l 403 944 q 456 965 444 956 q 468 997 468 975 q 448 1037 468 1029 q 368 1044 428 1044 q 213 1039 310 1044 l 213 1114 q 379 1126 294 1126 q 486 1119 447 1126 q 546 1086 525 1111 q 567 1008 567 1061 q 548 935 567 957 q 476 899 529 914 l 446 890 q 401 873 408 881 q 393 844 393 865 l 310 844 l 310 856 z "},"ȇ":{"ha":776,"x_min":82,"x_max":693,"o":"m 693 301 l 231 301 q 242 181 231 217 q 298 132 254 146 q 446 118 342 118 q 665 132 538 118 l 665 10 q 549 -6 619 0 q 411 -11 478 -11 q 193 23 263 -11 q 103 131 124 57 q 82 353 82 204 q 103 569 82 494 q 192 682 124 644 q 401 719 260 719 q 599 682 538 719 q 677 573 661 644 q 693 353 693 501 l 693 301 m 397 590 q 288 576 322 590 q 243 525 254 561 q 231 408 232 489 l 553 408 l 553 411 q 539 528 553 490 q 494 578 525 565 q 397 590 463 590 m 190 836 q 203 948 190 906 q 260 1015 217 990 q 390 1040 303 1040 q 520 1015 478 1040 q 575 949 563 990 q 588 836 588 907 l 499 836 q 493 901 499 879 q 465 934 488 922 q 390 946 442 946 q 317 934 340 946 q 288 901 293 922 q 282 836 282 879 l 190 836 z "},"ē":{"ha":776,"x_min":82,"x_max":693,"o":"m 693 301 l 231 301 q 242 181 231 217 q 298 132 254 146 q 446 118 342 118 q 665 132 538 118 l 665 10 q 549 -6 619 0 q 411 -11 478 -11 q 193 23 263 -11 q 103 131 124 57 q 82 353 82 204 q 103 569 82 494 q 192 682 124 644 q 401 719 260 719 q 599 682 538 719 q 677 573 661 644 q 693 353 693 501 l 693 301 m 397 590 q 288 576 322 590 q 243 525 254 561 q 231 408 232 489 l 553 408 l 553 411 q 539 528 553 490 q 494 578 525 565 q 397 590 463 590 m 213 892 l 213 1031 l 565 1031 l 565 892 l 213 892 z "},"ę":{"ha":776,"x_min":82,"x_max":693,"o":"m 693 301 l 231 301 q 242 181 231 217 q 298 132 254 146 q 446 118 342 118 q 665 132 538 118 l 665 10 q 589 -55 624 -15 q 554 -129 554 -94 q 569 -163 554 -150 q 617 -176 583 -176 l 643 -175 l 643 -268 q 620 -270 640 -268 q 575 -272 600 -272 q 428 -167 428 -272 q 515 -8 428 -87 q 411 -11 446 -11 q 193 23 263 -11 q 103 131 124 57 q 82 353 82 204 q 103 569 82 494 q 192 682 124 644 q 401 719 260 719 q 599 682 538 719 q 677 573 661 644 q 693 353 693 501 l 693 301 m 397 590 q 288 576 322 590 q 243 525 254 561 q 231 408 232 489 l 553 408 l 553 411 q 539 528 553 490 q 494 578 525 565 q 397 590 463 590 z "},"ẽ":{"ha":776,"x_min":82,"x_max":693,"o":"m 693 301 l 231 301 q 242 181 231 217 q 298 132 254 146 q 446 118 342 118 q 665 132 538 118 l 665 10 q 549 -6 619 0 q 411 -11 478 -11 q 193 23 263 -11 q 103 131 124 57 q 82 353 82 204 q 103 569 82 494 q 192 682 124 644 q 401 719 260 719 q 599 682 538 719 q 677 573 661 644 q 693 353 693 501 l 693 301 m 397 590 q 288 576 322 590 q 243 525 254 561 q 231 408 232 489 l 553 408 l 553 411 q 539 528 553 490 q 494 578 525 565 q 397 590 463 590 m 646 1033 q 639 931 646 967 q 608 876 632 894 q 535 857 585 857 q 460 865 497 857 q 371 888 422 872 q 307 903 339 896 q 251 910 275 910 q 217 897 224 910 q 211 842 211 885 l 129 842 q 136 944 129 908 q 167 999 143 981 q 242 1018 192 1018 q 317 1010 279 1018 q 406 988 354 1003 q 469 972 438 979 q 525 965 501 965 q 559 978 553 965 q 565 1033 565 990 l 646 1033 z "},"ə":{"ha":776,"x_min":83,"x_max":694,"o":"m 365 719 q 583 685 514 719 q 674 578 653 651 q 694 356 694 504 q 674 139 694 214 q 585 26 653 64 q 375 -11 517 -11 q 177 26 239 -11 q 99 135 115 64 q 83 356 83 207 l 83 407 l 546 407 q 534 527 546 492 q 478 576 522 563 q 331 590 435 590 q 111 576 239 590 l 111 699 q 228 714 157 708 q 365 719 299 719 m 379 118 q 488 133 454 118 q 533 183 522 147 q 546 300 544 219 l 224 300 l 224 297 q 238 181 224 218 q 283 131 251 143 q 379 118 314 118 z "},"f":{"ha":539,"x_min":33,"x_max":501,"o":"m 175 578 l 33 578 l 33 708 l 175 708 l 175 789 q 203 954 175 904 q 295 1017 232 1004 q 501 1031 358 1031 l 501 913 q 384 906 419 913 q 335 880 349 900 q 322 815 322 860 l 322 708 l 501 708 l 501 578 l 322 578 l 322 0 l 175 0 l 175 578 z "},"g":{"ha":817,"x_min":82,"x_max":706,"o":"m 375 -286 q 238 -282 307 -286 q 129 -272 169 -278 l 129 -150 q 340 -156 246 -156 q 488 -140 443 -156 q 545 -83 532 -124 q 558 53 558 -42 l 558 89 l 551 89 q 470 16 524 36 q 335 -4 417 -4 q 183 28 238 -4 q 106 136 129 60 q 82 354 82 213 q 106 576 82 497 q 184 687 129 654 q 336 719 239 719 q 470 697 413 719 q 557 615 528 675 l 565 615 l 571 708 l 706 708 l 706 86 q 684 -137 706 -61 q 592 -249 663 -212 q 375 -286 522 -286 m 396 132 q 485 145 451 132 q 535 185 518 158 q 554 248 550 210 q 558 356 558 286 q 554 463 558 425 q 535 526 550 501 q 485 567 518 554 q 396 581 451 581 q 285 566 318 581 q 242 507 253 551 q 231 356 231 463 q 242 206 231 250 q 285 147 253 161 q 396 132 318 132 z "},"ǵ":{"ha":817,"x_min":82,"x_max":706,"o":"m 375 -286 q 238 -282 307 -286 q 129 -272 169 -278 l 129 -150 q 340 -156 246 -156 q 488 -140 443 -156 q 545 -83 532 -124 q 558 53 558 -42 l 558 89 l 551 89 q 470 16 524 36 q 335 -4 417 -4 q 183 28 238 -4 q 106 136 129 60 q 82 354 82 213 q 106 576 82 497 q 184 687 129 654 q 336 719 239 719 q 470 697 413 719 q 557 615 528 675 l 565 615 l 571 708 l 706 708 l 706 86 q 684 -137 706 -61 q 592 -249 663 -212 q 375 -286 522 -286 m 396 132 q 485 145 451 132 q 535 185 518 158 q 554 248 550 210 q 558 356 558 286 q 554 463 558 425 q 535 526 550 501 q 485 567 518 554 q 396 581 451 581 q 285 566 318 581 q 242 507 253 551 q 231 356 231 463 q 242 206 231 250 q 285 147 253 161 q 396 132 318 132 m 343 833 l 343 840 l 479 1032 l 633 1032 l 633 1025 l 451 833 l 343 833 z "},"ğ":{"ha":817,"x_min":82,"x_max":706,"o":"m 375 -286 q 238 -282 307 -286 q 129 -272 169 -278 l 129 -150 q 340 -156 246 -156 q 488 -140 443 -156 q 545 -83 532 -124 q 558 53 558 -42 l 558 89 l 551 89 q 470 16 524 36 q 335 -4 417 -4 q 183 28 238 -4 q 106 136 129 60 q 82 354 82 213 q 106 576 82 497 q 184 687 129 654 q 336 719 239 719 q 470 697 413 719 q 557 615 528 675 l 565 615 l 571 708 l 706 708 l 706 86 q 684 -137 706 -61 q 592 -249 663 -212 q 375 -286 522 -286 m 396 132 q 485 145 451 132 q 535 185 518 158 q 554 248 550 210 q 558 356 558 286 q 554 463 558 425 q 535 526 550 501 q 485 567 518 554 q 396 581 451 581 q 285 566 318 581 q 242 507 253 551 q 231 356 231 463 q 242 206 231 250 q 285 147 253 161 q 396 132 318 132 m 607 1032 q 594 920 607 963 q 538 853 581 878 q 407 828 494 828 q 277 853 319 828 q 222 919 235 878 q 210 1032 210 961 l 299 1032 q 304 967 299 989 q 333 934 310 946 q 407 922 356 922 q 481 934 457 922 q 510 967 504 946 q 515 1032 515 989 l 607 1032 z "},"ǧ":{"ha":817,"x_min":82,"x_max":706,"o":"m 375 -286 q 238 -282 307 -286 q 129 -272 169 -278 l 129 -150 q 340 -156 246 -156 q 488 -140 443 -156 q 545 -83 532 -124 q 558 53 558 -42 l 558 89 l 551 89 q 470 16 524 36 q 335 -4 417 -4 q 183 28 238 -4 q 106 136 129 60 q 82 354 82 213 q 106 576 82 497 q 184 687 129 654 q 336 719 239 719 q 470 697 413 719 q 557 615 528 675 l 565 615 l 571 708 l 706 708 l 706 86 q 684 -137 706 -61 q 592 -249 663 -212 q 375 -286 522 -286 m 396 132 q 485 145 451 132 q 535 185 518 158 q 554 248 550 210 q 558 356 558 286 q 554 463 558 425 q 535 526 550 501 q 485 567 518 554 q 396 581 451 581 q 285 566 318 581 q 242 507 253 551 q 231 356 231 463 q 242 206 231 250 q 285 147 253 161 q 396 132 318 132 m 333 832 l 196 1022 l 196 1032 l 294 1032 l 407 907 l 519 1032 l 619 1032 l 619 1022 l 482 832 l 333 832 z "},"ĝ":{"ha":817,"x_min":82,"x_max":706,"o":"m 375 -286 q 238 -282 307 -286 q 129 -272 169 -278 l 129 -150 q 340 -156 246 -156 q 488 -140 443 -156 q 545 -83 532 -124 q 558 53 558 -42 l 558 89 l 551 89 q 470 16 524 36 q 335 -4 417 -4 q 183 28 238 -4 q 106 136 129 60 q 82 354 82 213 q 106 576 82 497 q 184 687 129 654 q 336 719 239 719 q 470 697 413 719 q 557 615 528 675 l 565 615 l 571 708 l 706 708 l 706 86 q 684 -137 706 -61 q 592 -249 663 -212 q 375 -286 522 -286 m 396 132 q 485 145 451 132 q 535 185 518 158 q 554 248 550 210 q 558 356 558 286 q 554 463 558 425 q 535 526 550 501 q 485 567 518 554 q 396 581 451 581 q 285 566 318 581 q 242 507 253 551 q 231 356 231 463 q 242 206 231 250 q 285 147 253 161 q 396 132 318 132 m 196 832 l 196 842 l 333 1032 l 482 1032 l 619 842 l 619 832 l 519 832 l 407 957 l 294 832 l 196 832 z "},"ģ":{"ha":817,"x_min":82,"x_max":706,"o":"m 375 -286 q 238 -282 307 -286 q 129 -272 169 -278 l 129 -150 q 340 -156 246 -156 q 488 -140 443 -156 q 545 -83 532 -124 q 558 53 558 -42 l 558 89 l 551 89 q 470 16 524 36 q 335 -4 417 -4 q 183 28 238 -4 q 106 136 129 60 q 82 354 82 213 q 106 576 82 497 q 184 687 129 654 q 336 719 239 719 q 470 697 413 719 q 557 615 528 675 l 565 615 l 571 708 l 706 708 l 706 86 q 684 -137 706 -61 q 592 -249 663 -212 q 375 -286 522 -286 m 396 132 q 485 145 451 132 q 535 185 518 158 q 554 248 550 210 q 558 356 558 286 q 554 463 558 425 q 535 526 550 501 q 485 567 518 554 q 396 581 451 581 q 285 566 318 581 q 242 507 253 551 q 231 356 231 463 q 242 206 231 250 q 285 147 253 161 q 396 132 318 132 m 511 1075 q 441 1064 458 1075 q 424 1017 424 1053 l 424 993 l 489 993 l 489 835 l 329 835 l 329 950 q 342 1072 329 1033 q 392 1126 354 1111 q 511 1142 429 1142 l 511 1075 z "},"ġ":{"ha":817,"x_min":82,"x_max":706,"o":"m 375 -286 q 238 -282 307 -286 q 129 -272 169 -278 l 129 -150 q 340 -156 246 -156 q 488 -140 443 -156 q 545 -83 532 -124 q 558 53 558 -42 l 558 89 l 551 89 q 470 16 524 36 q 335 -4 417 -4 q 183 28 238 -4 q 106 136 129 60 q 82 354 82 213 q 106 576 82 497 q 184 687 129 654 q 336 719 239 719 q 470 697 413 719 q 557 615 528 675 l 565 615 l 571 708 l 706 708 l 706 86 q 684 -137 706 -61 q 592 -249 663 -212 q 375 -286 522 -286 m 396 132 q 485 145 451 132 q 535 185 518 158 q 554 248 550 210 q 558 356 558 286 q 554 463 558 425 q 535 526 550 501 q 485 567 518 554 q 396 581 451 581 q 285 566 318 581 q 242 507 253 551 q 231 356 231 463 q 242 206 231 250 q 285 147 253 161 q 396 132 318 132 m 342 883 l 342 1014 l 474 1014 l 474 883 l 342 883 z "},"h":{"ha":829,"x_min":110,"x_max":718,"o":"m 571 381 q 561 516 571 476 q 522 567 551 556 q 421 579 493 579 q 313 557 349 579 q 267 491 278 535 q 257 365 257 447 l 257 0 l 110 0 l 110 1032 l 257 1032 l 257 622 l 267 622 q 343 694 292 671 q 485 718 394 718 q 633 688 583 718 q 701 600 683 658 q 718 442 718 542 l 718 0 l 571 0 l 571 381 z "},"ħ":{"ha":829,"x_min":18,"x_max":718,"o":"m 485 718 q 633 688 583 718 q 701 600 683 658 q 718 442 718 542 l 718 0 l 571 0 l 571 381 q 561 516 571 476 q 522 567 551 556 q 421 579 493 579 q 313 557 349 579 q 267 491 278 535 q 257 365 257 447 l 257 0 l 110 0 l 110 828 l 18 828 l 18 956 l 110 956 l 110 1032 l 257 1032 l 257 956 l 436 956 l 436 828 l 257 828 l 257 622 l 267 622 q 343 694 292 671 q 485 718 394 718 z "},"ĥ":{"ha":829,"x_min":-29,"x_max":718,"o":"m 571 381 q 561 516 571 476 q 522 567 551 556 q 421 579 493 579 q 313 557 349 579 q 267 491 278 535 q 257 365 257 447 l 257 0 l 110 0 l 110 1032 l 257 1032 l 257 622 l 267 622 q 343 694 292 671 q 485 718 394 718 q 633 688 583 718 q 701 600 683 658 q 718 442 718 542 l 718 0 l 571 0 l 571 381 m -29 1079 l -29 1089 l 108 1279 l 257 1279 l 394 1089 l 394 1079 l 294 1079 l 182 1204 l 69 1079 l -29 1079 z "},"ḥ":{"ha":829,"x_min":110,"x_max":718,"o":"m 571 381 q 561 516 571 476 q 522 567 551 556 q 421 579 493 579 q 313 557 349 579 q 267 491 278 535 q 257 365 257 447 l 257 0 l 110 0 l 110 1032 l 257 1032 l 257 622 l 267 622 q 343 694 292 671 q 485 718 394 718 q 633 688 583 718 q 701 600 683 658 q 718 442 718 542 l 718 0 l 571 0 l 571 381 m 331 -253 l 331 -86 l 497 -86 l 497 -253 l 331 -253 z "},"i":{"ha":368,"x_min":107,"x_max":261,"o":"m 107 882 l 107 1032 l 261 1032 l 261 882 l 107 882 m 110 0 l 110 708 l 257 708 l 257 0 l 110 0 z "},"ı":{"ha":368,"x_min":110,"x_max":257,"o":"m 110 0 l 110 708 l 257 708 l 257 0 l 110 0 z "},"í":{"ha":368,"x_min":110,"x_max":403,"o":"m 110 0 l 110 708 l 257 708 l 257 0 l 110 0 m 113 833 l 113 840 l 249 1032 l 403 1032 l 403 1025 l 221 833 l 113 833 z "},"ĭ":{"ha":368,"x_min":-15,"x_max":382,"o":"m 110 0 l 110 708 l 257 708 l 257 0 l 110 0 m 382 1032 q 369 920 382 963 q 313 853 356 878 q 182 828 269 828 q 52 853 94 828 q -3 919 10 878 q -15 1032 -15 961 l 74 1032 q 79 967 74 989 q 108 934 85 946 q 182 922 131 922 q 256 934 232 922 q 285 967 279 946 q 290 1032 290 989 l 382 1032 z "},"ǐ":{"ha":368,"x_min":-29,"x_max":394,"o":"m 110 0 l 110 708 l 257 708 l 257 0 l 110 0 m 108 832 l -29 1022 l -29 1032 l 69 1032 l 182 907 l 294 1032 l 394 1032 l 394 1022 l 257 832 l 108 832 z "},"î":{"ha":368,"x_min":-28,"x_max":396,"o":"m 110 0 l 110 708 l 257 708 l 257 0 l 110 0 m -28 832 l -28 842 l 110 1032 l 258 1032 l 396 842 l 396 832 l 296 832 l 183 957 l 71 832 l -28 832 z "},"ȉ":{"ha":368,"x_min":-143,"x_max":381,"o":"m 110 0 l 110 708 l 257 708 l 257 0 l 110 0 m 114 844 l 22 844 l -143 1015 l -143 1022 l -11 1022 l 114 851 l 114 844 m 381 844 l 289 844 l 125 1015 l 125 1022 l 254 1022 l 381 851 l 381 844 z "},"ï":{"ha":368,"x_min":-15,"x_max":385,"o":"m 110 0 l 110 708 l 257 708 l 257 0 l 110 0 m -15 883 l -15 1014 l 117 1014 l 117 883 l -15 883 m 254 883 l 254 1014 l 385 1014 l 385 883 l 254 883 z "},"ị":{"ha":368,"x_min":89,"x_max":261,"o":"m 107 882 l 107 1032 l 261 1032 l 261 882 l 107 882 m 110 0 l 110 708 l 257 708 l 257 0 l 110 0 m 89 -253 l 89 -86 l 256 -86 l 256 -253 l 89 -253 z "},"ì":{"ha":368,"x_min":-32,"x_max":258,"o":"m 110 0 l 110 708 l 257 708 l 257 0 l 110 0 m 150 833 l -32 1025 l -32 1032 l 121 1032 l 258 840 l 258 833 l 150 833 z "},"ỉ":{"ha":368,"x_min":7,"x_max":361,"o":"m 110 0 l 110 708 l 257 708 l 257 0 l 110 0 m 104 856 q 117 911 104 896 q 168 936 129 926 l 197 944 q 251 965 239 956 q 263 997 263 975 q 242 1037 263 1029 q 163 1044 222 1044 q 7 1039 104 1044 l 7 1114 q 174 1126 89 1126 q 281 1119 242 1126 q 340 1086 319 1111 q 361 1008 361 1061 q 342 935 361 957 q 271 899 324 914 l 240 890 q 195 873 203 881 q 188 844 188 865 l 104 844 l 104 856 z "},"ȋ":{"ha":368,"x_min":-15,"x_max":382,"o":"m 110 0 l 110 708 l 257 708 l 257 0 l 110 0 m -15 836 q -2 948 -15 906 q 54 1015 11 990 q 185 1040 97 1040 q 315 1015 272 1040 q 369 949 357 990 q 382 836 382 907 l 293 836 q 288 901 293 879 q 259 934 282 922 q 185 946 236 946 q 111 934 135 946 q 82 901 88 922 q 76 836 76 879 l -15 836 z "},"ĳ":{"ha":736,"x_min":107,"x_max":629,"o":"m 107 882 l 107 1032 l 261 1032 l 261 882 l 107 882 m 110 0 l 110 708 l 257 708 l 257 0 l 110 0 m 475 882 l 475 1032 l 629 1032 l 629 882 l 475 882 m 350 -158 q 436 -151 410 -158 q 470 -129 463 -144 q 478 -82 478 -114 l 478 708 l 625 708 l 625 -50 q 601 -203 625 -156 q 523 -264 578 -250 q 350 -278 468 -278 l 350 -158 z "},"ī":{"ha":368,"x_min":7,"x_max":360,"o":"m 110 0 l 110 708 l 257 708 l 257 0 l 110 0 m 7 892 l 7 1031 l 360 1031 l 360 892 l 7 892 z "},"į":{"ha":368,"x_min":43,"x_max":258,"o":"m 249 1014 l 249 883 l 117 883 l 117 1014 l 249 1014 m 258 -175 l 258 -268 q 192 -272 213 -272 q 43 -165 43 -272 q 128 0 43 -85 l 110 0 l 110 708 l 257 708 l 257 0 q 197 -58 225 -21 q 169 -128 169 -96 q 233 -176 169 -176 l 258 -175 z "},"ĩ":{"ha":368,"x_min":-76,"x_max":440,"o":"m 110 0 l 110 708 l 257 708 l 257 0 l 110 0 m 440 1033 q 433 931 440 967 q 403 876 426 894 q 329 857 379 857 q 254 865 292 857 q 165 888 217 872 q 101 903 133 896 q 46 910 69 910 q 12 897 18 910 q 6 842 6 885 l -76 842 q -69 944 -76 908 q -38 999 -62 981 q 36 1018 -14 1018 q 111 1010 74 1018 q 200 988 149 1003 q 264 972 232 979 q 319 965 296 965 q 353 978 347 965 q 360 1033 360 990 l 440 1033 z "},"j":{"ha":368,"x_min":-18,"x_max":261,"o":"m 107 882 l 107 1032 l 261 1032 l 261 882 l 107 882 m -18 -158 q 68 -151 42 -158 q 102 -129 94 -144 q 110 -82 110 -114 l 110 708 l 257 708 l 257 -50 q 233 -203 257 -156 q 155 -264 210 -250 q -18 -278 100 -278 l -18 -158 z "},"ȷ":{"ha":368,"x_min":-18,"x_max":257,"o":"m -18 -158 q 68 -151 42 -158 q 102 -129 94 -144 q 110 -82 110 -114 l 110 708 l 257 708 l 257 -50 q 233 -203 257 -156 q 155 -264 210 -250 q -18 -278 100 -278 l -18 -158 z "},"ĵ":{"ha":368,"x_min":-29,"x_max":394,"o":"m -18 -158 q 68 -151 42 -158 q 102 -129 94 -144 q 110 -82 110 -114 l 110 708 l 257 708 l 257 -50 q 233 -203 257 -156 q 155 -264 210 -250 q -18 -278 100 -278 l -18 -158 m -29 832 l -29 842 l 108 1032 l 257 1032 l 394 842 l 394 832 l 294 832 l 182 957 l 69 832 l -29 832 z "},"k":{"ha":760,"x_min":110,"x_max":725,"o":"m 556 0 l 332 290 l 257 290 l 257 0 l 110 0 l 110 1032 l 257 1032 l 257 422 l 332 422 l 558 708 l 721 708 l 450 367 l 725 0 l 556 0 z "},"ķ":{"ha":760,"x_min":110,"x_max":725,"o":"m 556 0 l 332 290 l 257 290 l 257 0 l 110 0 l 110 1032 l 257 1032 l 257 422 l 332 422 l 558 708 l 721 708 l 450 367 l 725 0 l 556 0 m 289 -326 q 359 -316 342 -326 q 376 -269 376 -306 l 376 -246 l 311 -246 l 311 -86 l 471 -86 l 471 -201 q 458 -324 471 -285 q 408 -378 446 -362 q 289 -393 371 -393 l 289 -326 z "},"ĸ":{"ha":760,"x_min":110,"x_max":725,"o":"m 556 0 l 332 290 l 257 290 l 257 0 l 110 0 l 110 708 l 257 708 l 257 422 l 332 422 l 558 708 l 721 708 l 450 367 l 725 0 l 556 0 z "},"l":{"ha":368,"x_min":110,"x_max":257,"o":"m 110 0 l 110 1032 l 257 1032 l 257 0 l 110 0 z "},"ĺ":{"ha":368,"x_min":110,"x_max":408,"o":"m 110 0 l 110 1032 l 257 1032 l 257 0 l 110 0 m 118 1081 l 118 1088 l 254 1279 l 408 1279 l 408 1272 l 226 1081 l 118 1081 z "},"ľ":{"ha":368,"x_min":110,"x_max":465,"o":"m 110 0 l 110 1032 l 257 1032 l 257 0 l 110 0 m 306 607 l 326 863 l 326 956 l 465 956 l 465 863 l 408 607 l 306 607 z "},"ļ":{"ha":368,"x_min":92,"x_max":274,"o":"m 110 0 l 110 1032 l 257 1032 l 257 0 l 110 0 m 92 -326 q 162 -316 144 -326 q 179 -269 179 -306 l 179 -246 l 114 -246 l 114 -86 l 274 -86 l 274 -201 q 261 -324 274 -285 q 211 -378 249 -362 q 92 -393 174 -393 l 92 -326 z "},"ŀ":{"ha":429,"x_min":110,"x_max":485,"o":"m 110 0 l 110 1032 l 257 1032 l 257 0 l 110 0 m 318 333 l 318 500 l 485 500 l 485 333 l 318 333 z "},"ǉ":{"ha":736,"x_min":110,"x_max":629,"o":"m 110 0 l 110 1032 l 257 1032 l 257 0 l 110 0 m 475 882 l 475 1032 l 629 1032 l 629 882 l 475 882 m 350 -158 q 436 -151 410 -158 q 470 -129 463 -144 q 478 -82 478 -114 l 478 708 l 625 708 l 625 -50 q 601 -203 625 -156 q 523 -264 578 -250 q 350 -278 468 -278 l 350 -158 z "},"ł":{"ha":378,"x_min":38,"x_max":340,"o":"m 115 0 l 115 425 l 38 397 l 38 522 l 115 550 l 115 1032 l 263 1032 l 263 607 l 340 636 l 340 510 l 263 481 l 263 0 l 115 0 z "},"m":{"ha":1219,"x_min":110,"x_max":1107,"o":"m 960 381 q 951 516 960 476 q 917 567 943 556 q 828 579 892 579 q 732 558 763 579 q 692 492 701 536 q 682 365 682 449 l 682 0 l 535 0 l 535 381 q 526 516 535 476 q 492 567 518 556 q 403 579 467 579 q 306 557 338 579 q 266 492 275 535 q 257 365 257 449 l 257 0 l 110 0 l 110 708 l 246 708 l 250 615 l 260 615 q 334 693 283 667 q 469 719 385 719 q 602 694 557 719 q 667 615 647 669 l 676 615 q 893 719 726 719 q 1028 689 982 719 q 1090 600 1074 658 q 1107 442 1107 542 l 1107 0 l 960 0 l 960 381 z "},"n":{"ha":829,"x_min":110,"x_max":718,"o":"m 571 381 q 561 516 571 476 q 522 567 551 556 q 421 579 493 579 q 313 557 349 579 q 267 491 278 535 q 257 365 257 447 l 257 0 l 110 0 l 110 708 l 246 708 l 250 615 l 261 615 q 340 694 286 668 q 486 719 393 719 q 633 689 583 719 q 701 601 683 658 q 718 443 718 543 l 718 0 l 571 0 l 571 381 z "},"ń":{"ha":829,"x_min":110,"x_max":718,"o":"m 571 381 q 561 516 571 476 q 522 567 551 556 q 421 579 493 579 q 313 557 349 579 q 267 491 278 535 q 257 365 257 447 l 257 0 l 110 0 l 110 708 l 246 708 l 250 615 l 261 615 q 340 694 286 668 q 486 719 393 719 q 633 689 583 719 q 701 601 683 658 q 718 443 718 543 l 718 0 l 571 0 l 571 381 m 349 833 l 349 840 l 485 1032 l 639 1032 l 639 1025 l 457 833 l 349 833 z "},"ŉ":{"ha":932,"x_min":14,"x_max":821,"o":"m 14 796 q 83 813 67 796 q 100 882 100 829 l 100 906 l 36 906 l 36 1032 l 196 1032 l 196 950 q 183 809 196 854 q 133 747 171 764 q 14 729 96 729 l 14 796 m 674 381 q 664 516 674 476 q 625 567 654 556 q 524 579 596 579 q 416 557 451 579 q 370 491 381 535 q 360 365 360 447 l 360 0 l 213 0 l 213 708 l 349 708 l 353 615 l 364 615 q 442 694 389 668 q 589 719 496 719 q 736 689 686 719 q 803 601 786 658 q 821 443 821 543 l 821 0 l 674 0 l 674 381 z "},"ň":{"ha":829,"x_min":110,"x_max":718,"o":"m 571 381 q 561 516 571 476 q 522 567 551 556 q 421 579 493 579 q 313 557 349 579 q 267 491 278 535 q 257 365 257 447 l 257 0 l 110 0 l 110 708 l 246 708 l 250 615 l 261 615 q 340 694 286 668 q 486 719 393 719 q 633 689 583 719 q 701 601 683 658 q 718 443 718 543 l 718 0 l 571 0 l 571 381 m 339 832 l 201 1022 l 201 1032 l 300 1032 l 413 907 l 525 1032 l 625 1032 l 625 1022 l 488 832 l 339 832 z "},"ņ":{"ha":829,"x_min":110,"x_max":718,"o":"m 571 381 q 561 516 571 476 q 522 567 551 556 q 421 579 493 579 q 313 557 349 579 q 267 491 278 535 q 257 365 257 447 l 257 0 l 110 0 l 110 708 l 246 708 l 250 615 l 261 615 q 340 694 286 668 q 486 719 393 719 q 633 689 583 719 q 701 601 683 658 q 718 443 718 543 l 718 0 l 571 0 l 571 381 m 322 -326 q 392 -316 375 -326 q 410 -269 410 -306 l 410 -246 l 344 -246 l 344 -86 l 504 -86 l 504 -201 q 492 -324 504 -285 q 442 -378 479 -362 q 322 -393 404 -393 l 322 -326 z "},"ṅ":{"ha":829,"x_min":110,"x_max":718,"o":"m 571 381 q 561 516 571 476 q 522 567 551 556 q 421 579 493 579 q 313 557 349 579 q 267 491 278 535 q 257 365 257 447 l 257 0 l 110 0 l 110 708 l 246 708 l 250 615 l 261 615 q 340 694 286 668 q 486 719 393 719 q 633 689 583 719 q 701 601 683 658 q 718 443 718 543 l 718 0 l 571 0 l 571 381 m 347 883 l 347 1014 l 479 1014 l 479 883 l 347 883 z "},"ŋ":{"ha":829,"x_min":110,"x_max":718,"o":"m 486 719 q 633 689 583 719 q 701 601 683 658 q 718 443 718 543 l 718 -50 q 694 -203 718 -156 q 616 -264 671 -250 q 443 -278 561 -278 l 443 -158 q 529 -151 503 -158 q 563 -129 556 -144 q 571 -82 571 -114 l 571 381 q 561 516 571 476 q 522 567 551 556 q 421 579 493 579 q 313 557 349 579 q 267 491 278 535 q 257 365 257 447 l 257 0 l 110 0 l 110 708 l 246 708 l 250 615 l 261 615 q 340 694 286 668 q 486 719 393 719 z "},"ɲ":{"ha":829,"x_min":-18,"x_max":718,"o":"m -18 -158 q 68 -151 42 -158 q 102 -129 94 -144 q 110 -82 110 -114 l 110 708 l 246 708 l 250 615 l 261 615 q 340 694 286 668 q 486 719 393 719 q 633 689 583 719 q 701 601 683 658 q 718 443 718 543 l 718 0 l 571 0 l 571 381 q 561 516 571 476 q 522 567 551 556 q 421 579 493 579 q 313 557 349 579 q 267 491 278 535 q 257 365 257 447 l 257 -50 q 233 -203 257 -156 q 155 -264 210 -250 q -18 -278 100 -278 l -18 -158 z "},"ǌ":{"ha":1197,"x_min":110,"x_max":1090,"o":"m 571 381 q 561 516 571 476 q 522 567 551 556 q 421 579 493 579 q 313 557 349 579 q 267 491 278 535 q 257 365 257 447 l 257 0 l 110 0 l 110 708 l 246 708 l 250 615 l 261 615 q 340 694 286 668 q 486 719 393 719 q 633 689 583 719 q 701 601 683 658 q 718 443 718 543 l 718 0 l 571 0 l 571 381 m 936 882 l 936 1032 l 1090 1032 l 1090 882 l 936 882 m 811 -158 q 897 -151 871 -158 q 931 -129 924 -144 q 939 -82 939 -114 l 939 708 l 1086 708 l 1086 -50 q 1063 -203 1086 -156 q 984 -264 1039 -250 q 811 -278 929 -278 l 811 -158 z "},"ñ":{"ha":829,"x_min":110,"x_max":718,"o":"m 571 381 q 561 516 571 476 q 522 567 551 556 q 421 579 493 579 q 313 557 349 579 q 267 491 278 535 q 257 365 257 447 l 257 0 l 110 0 l 110 708 l 246 708 l 250 615 l 261 615 q 340 694 286 668 q 486 719 393 719 q 633 689 583 719 q 701 601 683 658 q 718 443 718 543 l 718 0 l 571 0 l 571 381 m 675 1032 q 668 929 675 965 q 638 874 661 893 q 564 856 614 856 q 489 863 526 856 q 400 886 451 871 q 336 901 368 894 q 281 908 304 908 q 247 896 253 908 q 240 840 240 883 l 158 840 q 165 943 158 907 q 197 998 172 979 q 271 1017 221 1017 q 346 1009 308 1017 q 435 986 383 1001 q 499 971 467 978 q 554 964 531 964 q 588 976 582 964 q 594 1032 594 989 l 675 1032 z "},"o":{"ha":800,"x_min":82,"x_max":718,"o":"m 400 -11 q 184 20 250 -11 q 100 123 118 51 q 82 356 82 194 q 100 587 82 515 q 184 689 118 658 q 400 719 250 719 q 616 689 550 719 q 700 587 682 658 q 718 356 718 515 q 700 123 718 194 q 616 20 682 51 q 400 -11 550 -11 m 400 119 q 521 135 488 119 q 562 194 554 151 q 569 356 569 238 q 562 516 569 474 q 521 574 554 558 q 400 589 488 589 q 279 574 313 589 q 238 516 246 558 q 231 356 231 474 q 238 194 231 238 q 279 135 246 151 q 400 119 313 119 z "},"ó":{"ha":800,"x_min":82,"x_max":718,"o":"m 400 -11 q 184 20 250 -11 q 100 123 118 51 q 82 356 82 194 q 100 587 82 515 q 184 689 118 658 q 400 719 250 719 q 616 689 550 719 q 700 587 682 658 q 718 356 718 515 q 700 123 718 194 q 616 20 682 51 q 400 -11 550 -11 m 400 119 q 521 135 488 119 q 562 194 554 151 q 569 356 569 238 q 562 516 569 474 q 521 574 554 558 q 400 589 488 589 q 279 574 313 589 q 238 516 246 558 q 231 356 231 474 q 238 194 231 238 q 279 135 246 151 q 400 119 313 119 m 335 833 l 335 840 l 471 1032 l 625 1032 l 625 1025 l 443 833 l 335 833 z "},"ŏ":{"ha":800,"x_min":82,"x_max":718,"o":"m 400 -11 q 184 20 250 -11 q 100 123 118 51 q 82 356 82 194 q 100 587 82 515 q 184 689 118 658 q 400 719 250 719 q 616 689 550 719 q 700 587 682 658 q 718 356 718 515 q 700 123 718 194 q 616 20 682 51 q 400 -11 550 -11 m 400 119 q 521 135 488 119 q 562 194 554 151 q 569 356 569 238 q 562 516 569 474 q 521 574 554 558 q 400 589 488 589 q 279 574 313 589 q 238 516 246 558 q 231 356 231 474 q 238 194 231 238 q 279 135 246 151 q 400 119 313 119 m 599 1032 q 585 920 599 963 q 529 853 572 878 q 399 828 486 828 q 269 853 311 828 q 214 919 226 878 q 201 1032 201 961 l 290 1032 q 296 967 290 989 q 324 934 301 946 q 399 922 347 922 q 472 934 449 922 q 501 967 496 946 q 507 1032 507 989 l 599 1032 z "},"ǒ":{"ha":800,"x_min":82,"x_max":718,"o":"m 400 -11 q 184 20 250 -11 q 100 123 118 51 q 82 356 82 194 q 100 587 82 515 q 184 689 118 658 q 400 719 250 719 q 616 689 550 719 q 700 587 682 658 q 718 356 718 515 q 700 123 718 194 q 616 20 682 51 q 400 -11 550 -11 m 400 119 q 521 135 488 119 q 562 194 554 151 q 569 356 569 238 q 562 516 569 474 q 521 574 554 558 q 400 589 488 589 q 279 574 313 589 q 238 516 246 558 q 231 356 231 474 q 238 194 231 238 q 279 135 246 151 q 400 119 313 119 m 325 832 l 188 1022 l 188 1032 l 286 1032 l 399 907 l 511 1032 l 611 1032 l 611 1022 l 474 832 l 325 832 z "},"ô":{"ha":800,"x_min":82,"x_max":718,"o":"m 400 -11 q 184 20 250 -11 q 100 123 118 51 q 82 356 82 194 q 100 587 82 515 q 184 689 118 658 q 400 719 250 719 q 616 689 550 719 q 700 587 682 658 q 718 356 718 515 q 700 123 718 194 q 616 20 682 51 q 400 -11 550 -11 m 400 119 q 521 135 488 119 q 562 194 554 151 q 569 356 569 238 q 562 516 569 474 q 521 574 554 558 q 400 589 488 589 q 279 574 313 589 q 238 516 246 558 q 231 356 231 474 q 238 194 231 238 q 279 135 246 151 q 400 119 313 119 m 188 832 l 188 842 l 325 1032 l 474 1032 l 611 842 l 611 832 l 511 832 l 399 957 l 286 832 l 188 832 z "},"ố":{"ha":800,"x_min":82,"x_max":731,"o":"m 400 -11 q 184 20 250 -11 q 100 123 118 51 q 82 356 82 194 q 100 587 82 515 q 184 689 118 658 q 400 719 250 719 q 616 689 550 719 q 700 587 682 658 q 718 356 718 515 q 700 123 718 194 q 616 20 682 51 q 400 -11 550 -11 m 400 119 q 521 135 488 119 q 562 194 554 151 q 569 356 569 238 q 562 516 569 474 q 521 574 554 558 q 400 589 488 589 q 279 574 313 589 q 238 516 246 558 q 231 356 231 474 q 238 194 231 238 q 279 135 246 151 q 400 119 313 119 m 183 832 l 183 842 l 321 1032 l 469 1032 l 607 842 l 607 832 l 507 832 l 394 957 l 282 832 l 183 832 m 440 1069 l 440 1076 l 576 1268 l 731 1268 l 731 1261 l 549 1069 l 440 1069 z "},"ộ":{"ha":800,"x_min":82,"x_max":718,"o":"m 400 -11 q 184 20 250 -11 q 100 123 118 51 q 82 356 82 194 q 100 587 82 515 q 184 689 118 658 q 400 719 250 719 q 616 689 550 719 q 700 587 682 658 q 718 356 718 515 q 700 123 718 194 q 616 20 682 51 q 400 -11 550 -11 m 400 119 q 521 135 488 119 q 562 194 554 151 q 569 356 569 238 q 562 516 569 474 q 521 574 554 558 q 400 589 488 589 q 279 574 313 589 q 238 516 246 558 q 231 356 231 474 q 238 194 231 238 q 279 135 246 151 q 400 119 313 119 m 317 -253 l 317 -86 l 483 -86 l 483 -253 l 317 -253 m 188 832 l 188 842 l 325 1032 l 474 1032 l 611 842 l 611 832 l 511 832 l 399 957 l 286 832 l 188 832 z "},"ồ":{"ha":800,"x_min":82,"x_max":718,"o":"m 400 -11 q 184 20 250 -11 q 100 123 118 51 q 82 356 82 194 q 100 587 82 515 q 184 689 118 658 q 400 719 250 719 q 616 689 550 719 q 700 587 682 658 q 718 356 718 515 q 700 123 718 194 q 616 20 682 51 q 400 -11 550 -11 m 400 119 q 521 135 488 119 q 562 194 554 151 q 569 356 569 238 q 562 516 569 474 q 521 574 554 558 q 400 589 488 589 q 279 574 313 589 q 238 516 246 558 q 231 356 231 474 q 238 194 231 238 q 279 135 246 151 q 400 119 313 119 m 186 832 l 186 842 l 324 1032 l 472 1032 l 610 842 l 610 832 l 510 832 l 397 957 l 285 832 l 186 832 m 499 1069 l 317 1261 l 317 1268 l 469 1268 l 607 1076 l 607 1069 l 499 1069 z "},"ổ":{"ha":800,"x_min":82,"x_max":718,"o":"m 400 -11 q 184 20 250 -11 q 100 123 118 51 q 82 356 82 194 q 100 587 82 515 q 184 689 118 658 q 400 719 250 719 q 616 689 550 719 q 700 587 682 658 q 718 356 718 515 q 700 123 718 194 q 616 20 682 51 q 400 -11 550 -11 m 400 119 q 521 135 488 119 q 562 194 554 151 q 569 356 569 238 q 562 516 569 474 q 521 574 554 558 q 400 589 488 589 q 279 574 313 589 q 238 516 246 558 q 231 356 231 474 q 238 194 231 238 q 279 135 246 151 q 400 119 313 119 m 188 832 l 188 842 l 325 1032 l 474 1032 l 611 842 l 611 832 l 511 832 l 399 957 l 286 832 l 188 832 m 446 1067 q 458 1122 446 1107 q 510 1147 471 1138 l 539 1156 q 592 1176 581 1167 q 604 1208 604 1186 q 584 1248 604 1240 q 504 1256 564 1256 q 349 1250 446 1256 l 349 1325 q 515 1338 431 1338 q 622 1330 583 1338 q 682 1297 661 1322 q 703 1219 703 1272 q 684 1147 703 1168 q 613 1110 665 1125 l 582 1101 q 537 1084 544 1092 q 529 1056 529 1076 l 446 1056 l 446 1067 z "},"ỗ":{"ha":800,"x_min":82,"x_max":718,"o":"m 400 -11 q 184 20 250 -11 q 100 123 118 51 q 82 356 82 194 q 100 587 82 515 q 184 689 118 658 q 400 719 250 719 q 616 689 550 719 q 700 587 682 658 q 718 356 718 515 q 700 123 718 194 q 616 20 682 51 q 400 -11 550 -11 m 400 119 q 521 135 488 119 q 562 194 554 151 q 569 356 569 238 q 562 516 569 474 q 521 574 554 558 q 400 589 488 589 q 279 574 313 589 q 238 516 246 558 q 231 356 231 474 q 238 194 231 238 q 279 135 246 151 q 400 119 313 119 m 185 832 l 185 842 l 322 1032 l 471 1032 l 608 842 l 608 832 l 508 832 l 396 957 l 283 832 l 185 832 m 657 1274 q 650 1171 657 1207 q 619 1116 643 1135 q 546 1097 596 1097 q 471 1105 508 1097 q 382 1128 433 1113 q 318 1143 350 1136 q 263 1150 286 1150 q 228 1138 235 1150 q 222 1082 222 1125 l 140 1082 q 147 1185 140 1149 q 178 1240 154 1221 q 253 1258 203 1258 q 328 1251 290 1258 q 417 1228 365 1243 q 481 1213 449 1219 q 536 1206 513 1206 q 570 1218 564 1206 q 576 1274 576 1231 l 657 1274 z "},"ȍ":{"ha":800,"x_min":74,"x_max":718,"o":"m 400 -11 q 184 20 250 -11 q 100 123 118 51 q 82 356 82 194 q 100 587 82 515 q 184 689 118 658 q 400 719 250 719 q 616 689 550 719 q 700 587 682 658 q 718 356 718 515 q 700 123 718 194 q 616 20 682 51 q 400 -11 550 -11 m 400 119 q 521 135 488 119 q 562 194 554 151 q 569 356 569 238 q 562 516 569 474 q 521 574 554 558 q 400 589 488 589 q 279 574 313 589 q 238 516 246 558 q 231 356 231 474 q 238 194 231 238 q 279 135 246 151 q 400 119 313 119 m 331 844 l 239 844 l 74 1015 l 74 1022 l 206 1022 l 331 851 l 331 844 m 597 844 l 506 844 l 342 1015 l 342 1022 l 471 1022 l 597 851 l 597 844 z "},"ö":{"ha":800,"x_min":82,"x_max":718,"o":"m 400 -11 q 184 20 250 -11 q 100 123 118 51 q 82 356 82 194 q 100 587 82 515 q 184 689 118 658 q 400 719 250 719 q 616 689 550 719 q 700 587 682 658 q 718 356 718 515 q 700 123 718 194 q 616 20 682 51 q 400 -11 550 -11 m 400 119 q 521 135 488 119 q 562 194 554 151 q 569 356 569 238 q 562 516 569 474 q 521 574 554 558 q 400 589 488 589 q 279 574 313 589 q 238 516 246 558 q 231 356 231 474 q 238 194 231 238 q 279 135 246 151 q 400 119 313 119 m 200 883 l 200 1014 l 332 1014 l 332 883 l 200 883 m 469 883 l 469 1014 l 600 1014 l 600 883 l 469 883 z "},"ọ":{"ha":800,"x_min":82,"x_max":718,"o":"m 400 -11 q 184 20 250 -11 q 100 123 118 51 q 82 356 82 194 q 100 587 82 515 q 184 689 118 658 q 400 719 250 719 q 616 689 550 719 q 700 587 682 658 q 718 356 718 515 q 700 123 718 194 q 616 20 682 51 q 400 -11 550 -11 m 400 119 q 521 135 488 119 q 562 194 554 151 q 569 356 569 238 q 562 516 569 474 q 521 574 554 558 q 400 589 488 589 q 279 574 313 589 q 238 516 246 558 q 231 356 231 474 q 238 194 231 238 q 279 135 246 151 q 400 119 313 119 m 317 -253 l 317 -86 l 483 -86 l 483 -253 l 317 -253 z "},"ò":{"ha":800,"x_min":82,"x_max":718,"o":"m 400 -11 q 184 20 250 -11 q 100 123 118 51 q 82 356 82 194 q 100 587 82 515 q 184 689 118 658 q 400 719 250 719 q 616 689 550 719 q 700 587 682 658 q 718 356 718 515 q 700 123 718 194 q 616 20 682 51 q 400 -11 550 -11 m 400 119 q 521 135 488 119 q 562 194 554 151 q 569 356 569 238 q 562 516 569 474 q 521 574 554 558 q 400 589 488 589 q 279 574 313 589 q 238 516 246 558 q 231 356 231 474 q 238 194 231 238 q 279 135 246 151 q 400 119 313 119 m 365 833 l 183 1025 l 183 1032 l 336 1032 l 474 840 l 474 833 l 365 833 z "},"ỏ":{"ha":800,"x_min":82,"x_max":718,"o":"m 400 -11 q 184 20 250 -11 q 100 123 118 51 q 82 356 82 194 q 100 587 82 515 q 184 689 118 658 q 400 719 250 719 q 616 689 550 719 q 700 587 682 658 q 718 356 718 515 q 700 123 718 194 q 616 20 682 51 q 400 -11 550 -11 m 400 119 q 521 135 488 119 q 562 194 554 151 q 569 356 569 238 q 562 516 569 474 q 521 574 554 558 q 400 589 488 589 q 279 574 313 589 q 238 516 246 558 q 231 356 231 474 q 238 194 231 238 q 279 135 246 151 q 400 119 313 119 m 321 856 q 333 911 321 896 q 385 936 346 926 l 414 944 q 467 965 456 956 q 479 997 479 975 q 459 1037 479 1029 q 379 1044 439 1044 q 224 1039 321 1044 l 224 1114 q 390 1126 306 1126 q 497 1119 458 1126 q 557 1086 536 1111 q 578 1008 578 1061 q 559 935 578 957 q 488 899 540 914 l 457 890 q 412 873 419 881 q 404 844 404 865 l 321 844 l 321 856 z "},"ơ":{"ha":800,"x_min":82,"x_max":813,"o":"m 813 838 l 813 808 q 802 713 813 746 q 762 665 792 681 q 672 644 732 649 q 710 542 701 606 q 718 356 718 478 q 700 123 718 194 q 616 20 682 51 q 400 -11 550 -11 q 184 20 250 -11 q 100 123 118 51 q 82 356 82 194 q 100 587 82 515 q 184 689 118 658 q 400 719 250 719 q 553 708 499 719 l 629 708 q 683 716 665 708 q 706 742 700 724 q 711 797 711 760 l 711 838 l 813 838 m 400 119 q 521 135 488 119 q 562 194 554 151 q 569 356 569 238 q 562 516 569 474 q 521 574 554 558 q 400 589 488 589 q 279 574 313 589 q 238 516 246 558 q 231 356 231 474 q 238 194 231 238 q 279 135 246 151 q 400 119 313 119 z "},"ớ":{"ha":800,"x_min":82,"x_max":813,"o":"m 813 838 l 813 808 q 802 713 813 746 q 762 665 792 681 q 672 644 732 649 q 710 542 701 606 q 718 356 718 478 q 700 123 718 194 q 616 20 682 51 q 400 -11 550 -11 q 184 20 250 -11 q 100 123 118 51 q 82 356 82 194 q 100 587 82 515 q 184 689 118 658 q 400 719 250 719 q 553 708 499 719 l 629 708 q 683 716 665 708 q 706 742 700 724 q 711 797 711 760 l 711 838 l 813 838 m 400 119 q 521 135 488 119 q 562 194 554 151 q 569 356 569 238 q 562 516 569 474 q 521 574 554 558 q 400 589 488 589 q 279 574 313 589 q 238 516 246 558 q 231 356 231 474 q 238 194 231 238 q 279 135 246 151 q 400 119 313 119 m 335 833 l 335 840 l 471 1032 l 625 1032 l 625 1025 l 443 833 l 335 833 z "},"ợ":{"ha":800,"x_min":82,"x_max":813,"o":"m 813 838 l 813 808 q 802 713 813 746 q 762 665 792 681 q 672 644 732 649 q 710 542 701 606 q 718 356 718 478 q 700 123 718 194 q 616 20 682 51 q 400 -11 550 -11 q 184 20 250 -11 q 100 123 118 51 q 82 356 82 194 q 100 587 82 515 q 184 689 118 658 q 400 719 250 719 q 553 708 499 719 l 629 708 q 683 716 665 708 q 706 742 700 724 q 711 797 711 760 l 711 838 l 813 838 m 400 119 q 521 135 488 119 q 562 194 554 151 q 569 356 569 238 q 562 516 569 474 q 521 574 554 558 q 400 589 488 589 q 279 574 313 589 q 238 516 246 558 q 231 356 231 474 q 238 194 231 238 q 279 135 246 151 q 400 119 313 119 m 317 -253 l 317 -86 l 483 -86 l 483 -253 l 317 -253 z "},"ờ":{"ha":800,"x_min":82,"x_max":813,"o":"m 813 838 l 813 808 q 802 713 813 746 q 762 665 792 681 q 672 644 732 649 q 710 542 701 606 q 718 356 718 478 q 700 123 718 194 q 616 20 682 51 q 400 -11 550 -11 q 184 20 250 -11 q 100 123 118 51 q 82 356 82 194 q 100 587 82 515 q 184 689 118 658 q 400 719 250 719 q 553 708 499 719 l 629 708 q 683 716 665 708 q 706 742 700 724 q 711 797 711 760 l 711 838 l 813 838 m 400 119 q 521 135 488 119 q 562 194 554 151 q 569 356 569 238 q 562 516 569 474 q 521 574 554 558 q 400 589 488 589 q 279 574 313 589 q 238 516 246 558 q 231 356 231 474 q 238 194 231 238 q 279 135 246 151 q 400 119 313 119 m 361 833 l 179 1025 l 179 1032 l 332 1032 l 469 840 l 469 833 l 361 833 z "},"ở":{"ha":800,"x_min":82,"x_max":813,"o":"m 813 838 l 813 808 q 802 713 813 746 q 762 665 792 681 q 672 644 732 649 q 710 542 701 606 q 718 356 718 478 q 700 123 718 194 q 616 20 682 51 q 400 -11 550 -11 q 184 20 250 -11 q 100 123 118 51 q 82 356 82 194 q 100 587 82 515 q 184 689 118 658 q 400 719 250 719 q 553 708 499 719 l 629 708 q 683 716 665 708 q 706 742 700 724 q 711 797 711 760 l 711 838 l 813 838 m 400 119 q 521 135 488 119 q 562 194 554 151 q 569 356 569 238 q 562 516 569 474 q 521 574 554 558 q 400 589 488 589 q 279 574 313 589 q 238 516 246 558 q 231 356 231 474 q 238 194 231 238 q 279 135 246 151 q 400 119 313 119 m 321 856 q 333 911 321 896 q 385 936 346 926 l 414 944 q 467 965 456 956 q 479 997 479 975 q 459 1037 479 1029 q 379 1044 439 1044 q 224 1039 321 1044 l 224 1114 q 390 1126 306 1126 q 497 1119 458 1126 q 557 1086 536 1111 q 578 1008 578 1061 q 559 935 578 957 q 488 899 540 914 l 457 890 q 412 873 419 881 q 404 844 404 865 l 321 844 l 321 856 z "},"ỡ":{"ha":800,"x_min":82,"x_max":813,"o":"m 813 838 l 813 808 q 802 713 813 746 q 762 665 792 681 q 672 644 732 649 q 710 542 701 606 q 718 356 718 478 q 700 123 718 194 q 616 20 682 51 q 400 -11 550 -11 q 184 20 250 -11 q 100 123 118 51 q 82 356 82 194 q 100 587 82 515 q 184 689 118 658 q 400 719 250 719 q 553 708 499 719 l 629 708 q 683 716 665 708 q 706 742 700 724 q 711 797 711 760 l 711 838 l 813 838 m 400 119 q 521 135 488 119 q 562 194 554 151 q 569 356 569 238 q 562 516 569 474 q 521 574 554 558 q 400 589 488 589 q 279 574 313 589 q 238 516 246 558 q 231 356 231 474 q 238 194 231 238 q 279 135 246 151 q 400 119 313 119 m 657 1033 q 650 931 657 967 q 619 876 643 894 q 546 857 596 857 q 471 865 508 857 q 382 888 433 872 q 318 903 350 896 q 263 910 286 910 q 228 897 235 910 q 222 842 222 885 l 140 842 q 147 944 140 908 q 178 999 154 981 q 253 1018 203 1018 q 328 1010 290 1018 q 417 988 365 1003 q 481 972 449 979 q 536 965 513 965 q 570 978 564 965 q 576 1033 576 990 l 657 1033 z "},"ő":{"ha":800,"x_min":82,"x_max":751,"o":"m 400 -11 q 184 20 250 -11 q 100 123 118 51 q 82 356 82 194 q 100 587 82 515 q 184 689 118 658 q 400 719 250 719 q 616 689 550 719 q 700 587 682 658 q 718 356 718 515 q 700 123 718 194 q 616 20 682 51 q 400 -11 550 -11 m 400 119 q 521 135 488 119 q 562 194 554 151 q 569 356 569 238 q 562 516 569 474 q 521 574 554 558 q 400 589 488 589 q 279 574 313 589 q 238 516 246 558 q 231 356 231 474 q 238 194 231 238 q 279 135 246 151 q 400 119 313 119 m 228 844 l 228 851 l 354 1022 l 483 1022 l 483 1015 l 319 844 l 228 844 m 494 844 l 494 851 l 619 1022 l 751 1022 l 751 1015 l 586 844 l 494 844 z "},"ȏ":{"ha":800,"x_min":82,"x_max":718,"o":"m 400 -11 q 184 20 250 -11 q 100 123 118 51 q 82 356 82 194 q 100 587 82 515 q 184 689 118 658 q 400 719 250 719 q 616 689 550 719 q 700 587 682 658 q 718 356 718 515 q 700 123 718 194 q 616 20 682 51 q 400 -11 550 -11 m 400 119 q 521 135 488 119 q 562 194 554 151 q 569 356 569 238 q 562 516 569 474 q 521 574 554 558 q 400 589 488 589 q 279 574 313 589 q 238 516 246 558 q 231 356 231 474 q 238 194 231 238 q 279 135 246 151 q 400 119 313 119 m 201 836 q 215 948 201 906 q 271 1015 228 990 q 401 1040 314 1040 q 531 1015 489 1040 q 586 949 574 990 q 599 836 599 907 l 510 836 q 504 901 510 879 q 476 934 499 922 q 401 946 453 946 q 328 934 351 946 q 299 901 304 922 q 293 836 293 879 l 201 836 z "},"ō":{"ha":800,"x_min":82,"x_max":718,"o":"m 400 -11 q 184 20 250 -11 q 100 123 118 51 q 82 356 82 194 q 100 587 82 515 q 184 689 118 658 q 400 719 250 719 q 616 689 550 719 q 700 587 682 658 q 718 356 718 515 q 700 123 718 194 q 616 20 682 51 q 400 -11 550 -11 m 400 119 q 521 135 488 119 q 562 194 554 151 q 569 356 569 238 q 562 516 569 474 q 521 574 554 558 q 400 589 488 589 q 279 574 313 589 q 238 516 246 558 q 231 356 231 474 q 238 194 231 238 q 279 135 246 151 q 400 119 313 119 m 224 892 l 224 1031 l 576 1031 l 576 892 l 224 892 z "},"ǫ":{"ha":800,"x_min":82,"x_max":718,"o":"m 400 719 q 616 689 550 719 q 700 587 682 658 q 718 356 718 515 q 703 135 718 206 q 635 32 688 65 q 562 -40 596 7 q 528 -126 528 -87 q 590 -176 528 -176 l 617 -175 l 617 -268 q 596 -270 615 -268 q 549 -272 576 -272 q 401 -164 401 -272 q 469 -8 401 -90 q 400 -11 449 -11 q 184 20 250 -11 q 100 123 118 51 q 82 356 82 194 q 100 587 82 515 q 184 689 118 658 q 400 719 250 719 m 400 119 q 521 135 488 119 q 562 194 554 151 q 569 356 569 238 q 562 516 569 474 q 521 574 554 558 q 400 589 488 589 q 279 574 313 589 q 238 516 246 558 q 231 356 231 474 q 238 194 231 238 q 279 135 246 151 q 400 119 313 119 z "},"ø":{"ha":800,"x_min":82,"x_max":718,"o":"m 647 669 q 706 567 693 635 q 718 356 718 499 q 700 123 718 194 q 616 20 682 51 q 400 -11 550 -11 q 243 1 304 -11 l 196 -76 l 82 -76 l 153 40 q 94 145 107 76 q 82 356 82 214 q 100 587 82 515 q 184 689 118 658 q 400 719 250 719 q 556 708 500 719 l 601 785 l 717 785 l 647 669 m 231 356 q 232 247 231 282 q 240 186 233 211 l 481 585 q 400 589 449 589 q 279 574 313 589 q 238 516 246 558 q 231 356 231 474 m 400 119 q 521 135 488 119 q 562 194 554 151 q 569 356 569 238 q 568 465 569 429 q 560 525 567 501 l 317 124 q 400 119 350 119 z "},"ǿ":{"ha":800,"x_min":82,"x_max":718,"o":"m 647 669 q 706 567 693 635 q 718 356 718 499 q 700 123 718 194 q 616 20 682 51 q 400 -11 550 -11 q 243 1 304 -11 l 196 -76 l 82 -76 l 153 40 q 94 145 107 76 q 82 356 82 214 q 100 587 82 515 q 184 689 118 658 q 400 719 250 719 q 556 708 500 719 l 601 785 l 717 785 l 647 669 m 231 356 q 232 247 231 282 q 240 186 233 211 l 481 585 q 400 589 449 589 q 279 574 313 589 q 238 516 246 558 q 231 356 231 474 m 400 119 q 521 135 488 119 q 562 194 554 151 q 569 356 569 238 q 568 465 569 429 q 560 525 567 501 l 317 124 q 400 119 350 119 m 335 833 l 335 840 l 471 1032 l 625 1032 l 625 1025 l 443 833 l 335 833 z "},"õ":{"ha":800,"x_min":82,"x_max":718,"o":"m 400 -11 q 184 20 250 -11 q 100 123 118 51 q 82 356 82 194 q 100 587 82 515 q 184 689 118 658 q 400 719 250 719 q 616 689 550 719 q 700 587 682 658 q 718 356 718 515 q 700 123 718 194 q 616 20 682 51 q 400 -11 550 -11 m 400 119 q 521 135 488 119 q 562 194 554 151 q 569 356 569 238 q 562 516 569 474 q 521 574 554 558 q 400 589 488 589 q 279 574 313 589 q 238 516 246 558 q 231 356 231 474 q 238 194 231 238 q 279 135 246 151 q 400 119 313 119 m 658 1032 q 651 929 658 965 q 621 874 644 893 q 547 856 597 856 q 472 863 510 856 q 383 886 435 871 q 319 901 351 894 q 264 908 288 908 q 230 896 236 908 q 224 840 224 883 l 142 840 q 149 943 142 907 q 180 998 156 979 q 254 1017 204 1017 q 329 1009 292 1017 q 418 986 367 1001 q 482 971 450 978 q 538 964 514 964 q 572 976 565 964 q 578 1032 578 989 l 658 1032 z "},"œ":{"ha":1268,"x_min":82,"x_max":1183,"o":"m 1183 301 l 719 301 q 731 181 719 217 q 787 132 743 146 q 935 118 831 118 q 1156 132 1025 118 l 1156 10 q 1038 -6 1110 0 q 901 -11 967 -11 q 742 4 803 -11 q 644 54 681 19 q 554 4 613 19 q 400 -11 496 -11 q 184 20 250 -11 q 100 123 118 51 q 82 356 82 194 q 100 587 82 515 q 184 689 118 658 q 400 719 250 719 q 554 703 496 719 q 646 653 613 688 q 739 703 681 688 q 890 719 797 719 q 1089 682 1026 719 q 1167 572 1151 644 q 1183 353 1183 500 l 1183 301 m 888 590 q 777 576 811 590 q 732 525 743 561 q 719 408 721 489 l 1042 408 l 1042 411 q 1028 528 1042 490 q 983 578 1015 565 q 888 590 951 590 m 400 119 q 521 135 488 119 q 562 194 554 151 q 569 356 569 238 q 562 516 569 474 q 521 574 554 558 q 400 589 488 589 q 279 574 313 589 q 238 516 246 558 q 231 356 231 474 q 238 194 231 238 q 279 135 246 151 q 400 119 313 119 z "},"p":{"ha":817,"x_min":110,"x_max":733,"o":"m 110 708 l 246 708 l 250 615 l 260 615 q 347 697 289 675 q 481 719 404 719 q 632 687 578 719 q 710 576 686 654 q 733 356 733 499 q 710 134 733 213 q 635 22 688 56 q 486 -11 582 -11 q 350 9 404 -11 q 267 82 296 29 l 257 82 l 257 -276 l 110 -276 l 110 708 m 421 129 q 531 144 499 129 q 575 203 564 158 q 586 354 586 247 q 575 506 586 461 q 531 566 564 551 q 421 581 499 581 q 328 565 363 581 q 278 519 293 550 q 261 454 265 493 q 257 354 257 415 q 261 255 257 293 q 276 190 265 217 q 326 144 292 158 q 421 129 361 129 z "},"þ":{"ha":817,"x_min":110,"x_max":733,"o":"m 110 1032 l 257 1032 l 257 621 l 267 621 q 349 699 296 678 q 481 719 401 719 q 632 687 578 719 q 710 576 686 654 q 733 356 733 499 q 710 134 733 213 q 635 22 688 56 q 486 -11 582 -11 q 350 9 404 -11 q 267 82 296 29 l 257 82 l 257 -262 l 110 -262 l 110 1032 m 421 129 q 531 144 499 129 q 575 203 564 158 q 586 354 586 247 q 575 506 586 461 q 531 566 564 551 q 421 581 499 581 q 281 526 314 581 q 262 460 267 500 q 257 354 257 421 q 260 258 257 294 q 275 196 264 221 q 325 145 290 161 q 421 129 360 129 z "},"q":{"ha":818,"x_min":82,"x_max":706,"o":"m 558 82 l 551 82 q 467 9 521 29 q 331 -11 413 -11 q 182 22 235 -11 q 106 132 129 54 q 82 353 82 210 q 106 574 82 496 q 183 686 129 653 q 335 719 238 719 q 470 697 413 719 q 557 615 528 675 l 565 615 l 571 708 l 706 708 l 706 -276 l 558 -276 l 558 82 m 396 129 q 491 145 457 129 q 540 196 525 161 q 555 256 551 221 q 558 354 558 292 q 554 463 558 424 q 533 529 550 503 q 483 568 517 556 q 396 581 450 581 q 285 566 318 581 q 242 506 253 551 q 231 354 231 461 q 242 203 231 247 q 285 144 253 158 q 396 129 318 129 z "},"r":{"ha":529,"x_min":110,"x_max":493,"o":"m 110 708 l 244 708 l 250 582 l 261 582 q 342 690 286 660 q 493 719 399 719 l 493 567 q 348 540 399 567 q 277 455 297 513 q 257 294 257 397 l 257 0 l 110 0 l 110 708 z "},"ŕ":{"ha":529,"x_min":110,"x_max":493,"o":"m 110 708 l 244 708 l 250 582 l 261 582 q 342 690 286 660 q 493 719 399 719 l 493 567 q 348 540 399 567 q 277 455 297 513 q 257 294 257 397 l 257 0 l 110 0 l 110 708 m 199 833 l 199 840 l 335 1032 l 489 1032 l 489 1025 l 307 833 l 199 833 z "},"ř":{"ha":529,"x_min":51,"x_max":493,"o":"m 110 708 l 244 708 l 250 582 l 261 582 q 342 690 286 660 q 493 719 399 719 l 493 567 q 348 540 399 567 q 277 455 297 513 q 257 294 257 397 l 257 0 l 110 0 l 110 708 m 189 832 l 51 1022 l 51 1032 l 150 1032 l 263 907 l 375 1032 l 475 1032 l 475 1022 l 338 832 l 189 832 z "},"ŗ":{"ha":529,"x_min":92,"x_max":493,"o":"m 110 708 l 244 708 l 250 582 l 261 582 q 342 690 286 660 q 493 719 399 719 l 493 567 q 348 540 399 567 q 277 455 297 513 q 257 294 257 397 l 257 0 l 110 0 l 110 708 m 92 -326 q 162 -316 144 -326 q 179 -269 179 -306 l 179 -246 l 114 -246 l 114 -86 l 274 -86 l 274 -201 q 261 -324 274 -285 q 211 -378 249 -362 q 92 -393 174 -393 l 92 -326 z "},"ȑ":{"ha":529,"x_min":-62,"x_max":493,"o":"m 110 708 l 244 708 l 250 582 l 261 582 q 342 690 286 660 q 493 719 399 719 l 493 567 q 348 540 399 567 q 277 455 297 513 q 257 294 257 397 l 257 0 l 110 0 l 110 708 m 194 844 l 103 844 l -62 1015 l -62 1022 l 69 1022 l 194 851 l 194 844 m 461 844 l 369 844 l 206 1015 l 206 1022 l 335 1022 l 461 851 l 461 844 z "},"ṛ":{"ha":529,"x_min":100,"x_max":493,"o":"m 110 708 l 244 708 l 250 582 l 261 582 q 342 690 286 660 q 493 719 399 719 l 493 567 q 348 540 399 567 q 277 455 297 513 q 257 294 257 397 l 257 0 l 110 0 l 110 708 m 100 -253 l 100 -86 l 267 -86 l 267 -253 l 100 -253 z "},"ȓ":{"ha":529,"x_min":65,"x_max":493,"o":"m 110 708 l 244 708 l 250 582 l 261 582 q 342 690 286 660 q 493 719 399 719 l 493 567 q 348 540 399 567 q 277 455 297 513 q 257 294 257 397 l 257 0 l 110 0 l 110 708 m 65 836 q 78 948 65 906 q 135 1015 92 990 q 265 1040 178 1040 q 395 1015 353 1040 q 450 949 438 990 q 463 836 463 907 l 374 836 q 368 901 374 879 q 340 934 363 922 q 265 946 317 946 q 192 934 215 946 q 163 901 168 922 q 157 836 157 879 l 65 836 z "},"s":{"ha":693,"x_min":69,"x_max":622,"o":"m 357 -11 q 221 -6 296 -11 q 92 8 146 0 l 92 133 q 338 119 219 119 q 433 127 403 119 q 473 152 464 135 q 482 203 482 169 q 476 252 482 238 q 455 272 469 267 q 401 282 440 278 l 229 303 q 129 335 164 311 q 82 401 94 360 q 69 508 69 443 q 103 644 69 599 q 197 705 138 690 q 351 719 256 719 q 474 713 408 719 q 583 697 540 707 l 583 574 q 363 589 476 589 q 272 584 303 589 q 226 562 242 579 q 211 508 211 544 q 217 463 211 478 q 237 443 222 449 q 286 433 251 438 l 474 410 q 561 386 531 403 q 607 328 592 369 q 622 206 622 286 q 592 68 622 115 q 506 5 563 21 q 357 -11 450 -11 z "},"ś":{"ha":693,"x_min":69,"x_max":622,"o":"m 357 -11 q 221 -6 296 -11 q 92 8 146 0 l 92 133 q 338 119 219 119 q 433 127 403 119 q 473 152 464 135 q 482 203 482 169 q 476 252 482 238 q 455 272 469 267 q 401 282 440 278 l 229 303 q 129 335 164 311 q 82 401 94 360 q 69 508 69 443 q 103 644 69 599 q 197 705 138 690 q 351 719 256 719 q 474 713 408 719 q 583 697 540 707 l 583 574 q 363 589 476 589 q 272 584 303 589 q 226 562 242 579 q 211 508 211 544 q 217 463 211 478 q 237 443 222 449 q 286 433 251 438 l 474 410 q 561 386 531 403 q 607 328 592 369 q 622 206 622 286 q 592 68 622 115 q 506 5 563 21 q 357 -11 450 -11 m 282 833 l 282 840 l 418 1032 l 572 1032 l 572 1025 l 390 833 l 282 833 z "},"ꞌ":{"ha":231,"x_min":46,"x_max":185,"o":"m 46 385 l 46 1032 l 185 1032 l 185 708 l 149 385 l 46 385 z "},"š":{"ha":693,"x_min":69,"x_max":622,"o":"m 357 -11 q 221 -6 296 -11 q 92 8 146 0 l 92 133 q 338 119 219 119 q 433 127 403 119 q 473 152 464 135 q 482 203 482 169 q 476 252 482 238 q 455 272 469 267 q 401 282 440 278 l 229 303 q 129 335 164 311 q 82 401 94 360 q 69 508 69 443 q 103 644 69 599 q 197 705 138 690 q 351 719 256 719 q 474 713 408 719 q 583 697 540 707 l 583 574 q 363 589 476 589 q 272 584 303 589 q 226 562 242 579 q 211 508 211 544 q 217 463 211 478 q 237 443 222 449 q 286 433 251 438 l 474 410 q 561 386 531 403 q 607 328 592 369 q 622 206 622 286 q 592 68 622 115 q 506 5 563 21 q 357 -11 450 -11 m 278 832 l 140 1022 l 140 1032 l 239 1032 l 351 907 l 464 1032 l 564 1032 l 564 1022 l 426 832 l 278 832 z "},"ş":{"ha":693,"x_min":69,"x_max":622,"o":"m 622 206 q 597 76 622 122 q 522 10 571 29 q 396 -11 474 -8 l 344 -264 l 201 -264 l 201 -257 l 290 -10 q 92 8 181 -6 l 92 133 q 338 119 219 119 q 433 127 403 119 q 473 152 464 135 q 482 203 482 169 q 476 252 482 238 q 455 272 469 267 q 401 282 440 278 l 229 303 q 129 335 164 311 q 82 401 94 360 q 69 508 69 443 q 103 644 69 599 q 197 705 138 690 q 351 719 256 719 q 474 713 408 719 q 583 697 540 707 l 583 574 q 363 589 476 589 q 272 584 303 589 q 226 562 242 579 q 211 508 211 544 q 217 463 211 478 q 237 443 222 449 q 286 433 251 438 l 474 410 q 561 386 531 403 q 607 328 592 369 q 622 206 622 286 z "},"ŝ":{"ha":693,"x_min":69,"x_max":622,"o":"m 357 -11 q 221 -6 296 -11 q 92 8 146 0 l 92 133 q 338 119 219 119 q 433 127 403 119 q 473 152 464 135 q 482 203 482 169 q 476 252 482 238 q 455 272 469 267 q 401 282 440 278 l 229 303 q 129 335 164 311 q 82 401 94 360 q 69 508 69 443 q 103 644 69 599 q 197 705 138 690 q 351 719 256 719 q 474 713 408 719 q 583 697 540 707 l 583 574 q 363 589 476 589 q 272 584 303 589 q 226 562 242 579 q 211 508 211 544 q 217 463 211 478 q 237 443 222 449 q 286 433 251 438 l 474 410 q 561 386 531 403 q 607 328 592 369 q 622 206 622 286 q 592 68 622 115 q 506 5 563 21 q 357 -11 450 -11 m 135 832 l 135 842 l 272 1032 l 421 1032 l 558 842 l 558 832 l 458 832 l 346 957 l 233 832 l 135 832 z "},"ș":{"ha":693,"x_min":69,"x_max":622,"o":"m 357 -11 q 221 -6 296 -11 q 92 8 146 0 l 92 133 q 338 119 219 119 q 433 127 403 119 q 473 152 464 135 q 482 203 482 169 q 476 252 482 238 q 455 272 469 267 q 401 282 440 278 l 229 303 q 129 335 164 311 q 82 401 94 360 q 69 508 69 443 q 103 644 69 599 q 197 705 138 690 q 351 719 256 719 q 474 713 408 719 q 583 697 540 707 l 583 574 q 363 589 476 589 q 272 584 303 589 q 226 562 242 579 q 211 508 211 544 q 217 463 211 478 q 237 443 222 449 q 286 433 251 438 l 474 410 q 561 386 531 403 q 607 328 592 369 q 622 206 622 286 q 592 68 622 115 q 506 5 563 21 q 357 -11 450 -11 m 256 -326 q 326 -316 308 -326 q 343 -269 343 -306 l 343 -246 l 278 -246 l 278 -86 l 438 -86 l 438 -201 q 425 -324 438 -285 q 375 -378 413 -362 q 256 -393 338 -393 l 256 -326 z "},"ṣ":{"ha":693,"x_min":69,"x_max":622,"o":"m 357 -11 q 221 -6 296 -11 q 92 8 146 0 l 92 133 q 338 119 219 119 q 433 127 403 119 q 473 152 464 135 q 482 203 482 169 q 476 252 482 238 q 455 272 469 267 q 401 282 440 278 l 229 303 q 129 335 164 311 q 82 401 94 360 q 69 508 69 443 q 103 644 69 599 q 197 705 138 690 q 351 719 256 719 q 474 713 408 719 q 583 697 540 707 l 583 574 q 363 589 476 589 q 272 584 303 589 q 226 562 242 579 q 211 508 211 544 q 217 463 211 478 q 237 443 222 449 q 286 433 251 438 l 474 410 q 561 386 531 403 q 607 328 592 369 q 622 206 622 286 q 592 68 622 115 q 506 5 563 21 q 357 -11 450 -11 m 264 -253 l 264 -86 l 431 -86 l 431 -253 l 264 -253 z "},"ß":{"ha":842,"x_min":110,"x_max":757,"o":"m 371 0 l 371 129 l 432 129 q 552 141 518 129 q 598 193 586 153 q 610 336 610 233 q 594 465 610 424 q 544 521 579 507 q 436 535 508 535 l 400 535 l 400 665 l 436 665 q 534 675 500 665 q 583 708 568 685 q 597 776 597 732 q 583 863 597 835 q 533 901 568 890 q 426 911 497 911 q 326 899 361 911 q 274 851 292 888 q 257 739 257 814 l 257 0 l 110 0 l 110 763 q 140 921 110 860 q 241 1012 171 982 q 433 1042 311 1042 q 624 1015 556 1042 q 718 934 692 988 q 744 796 744 881 q 706 667 744 711 q 583 608 667 622 l 583 603 q 715 526 672 586 q 757 333 757 465 q 735 136 757 206 q 649 33 713 67 q 460 0 586 0 l 371 0 z "},"ſ":{"ha":507,"x_min":33,"x_max":501,"o":"m 175 578 l 33 578 l 33 708 l 175 708 l 175 789 q 203 954 175 904 q 295 1017 232 1004 q 501 1031 358 1031 l 501 913 q 384 906 419 913 q 335 880 349 900 q 322 815 322 860 l 322 0 l 175 0 l 175 578 z "},"t":{"ha":521,"x_min":32,"x_max":486,"o":"m 174 0 l 174 578 l 32 578 l 32 708 l 174 708 l 174 914 l 321 914 l 321 708 l 486 708 l 486 578 l 321 578 l 321 0 l 174 0 z "},"ŧ":{"ha":521,"x_min":32,"x_max":489,"o":"m 489 393 l 489 264 l 321 264 l 321 0 l 174 0 l 174 264 l 33 264 l 33 393 l 174 393 l 174 578 l 32 578 l 32 708 l 174 708 l 174 914 l 321 914 l 321 708 l 486 708 l 486 578 l 321 578 l 321 393 l 489 393 z "},"ť":{"ha":521,"x_min":32,"x_max":694,"o":"m 174 0 l 174 578 l 32 578 l 32 708 l 174 708 l 174 914 l 321 914 l 321 708 l 486 708 l 486 578 l 321 578 l 321 0 l 174 0 m 535 607 l 556 863 l 556 956 l 694 956 l 694 863 l 638 607 l 535 607 z "},"ţ":{"ha":521,"x_min":32,"x_max":486,"o":"m 321 708 l 486 708 l 486 578 l 321 578 l 321 0 l 297 0 l 244 -264 l 101 -264 l 101 -257 l 193 0 l 174 0 l 174 578 l 32 578 l 32 708 l 174 708 l 174 914 l 321 914 l 321 708 z "},"ț":{"ha":521,"x_min":32,"x_max":486,"o":"m 174 0 l 174 578 l 32 578 l 32 708 l 174 708 l 174 914 l 321 914 l 321 708 l 486 708 l 486 578 l 321 578 l 321 0 l 174 0 m 156 -326 q 226 -316 208 -326 q 243 -269 243 -306 l 243 -246 l 178 -246 l 178 -86 l 338 -86 l 338 -201 q 325 -324 338 -285 q 275 -378 313 -362 q 156 -393 238 -393 l 156 -326 z "},"ṭ":{"ha":521,"x_min":32,"x_max":486,"o":"m 174 0 l 174 578 l 32 578 l 32 708 l 174 708 l 174 914 l 321 914 l 321 708 l 486 708 l 486 578 l 321 578 l 321 0 l 174 0 m 164 -253 l 164 -86 l 331 -86 l 331 -253 l 164 -253 z "},"u":{"ha":829,"x_min":110,"x_max":718,"o":"m 578 93 l 568 93 q 489 15 542 40 q 343 -11 436 -11 q 195 19 246 -11 q 127 108 144 50 q 110 265 110 167 l 110 708 l 257 708 l 257 328 q 267 192 257 232 q 307 141 278 153 q 408 129 336 129 q 515 151 481 129 q 560 217 550 174 q 571 343 571 261 l 571 708 l 718 708 l 718 0 l 583 0 l 578 93 z "},"ú":{"ha":829,"x_min":110,"x_max":718,"o":"m 578 93 l 568 93 q 489 15 542 40 q 343 -11 436 -11 q 195 19 246 -11 q 127 108 144 50 q 110 265 110 167 l 110 708 l 257 708 l 257 328 q 267 192 257 232 q 307 141 278 153 q 408 129 336 129 q 515 151 481 129 q 560 217 550 174 q 571 343 571 261 l 571 708 l 718 708 l 718 0 l 583 0 l 578 93 m 361 833 l 361 840 l 497 1032 l 651 1032 l 651 1025 l 469 833 l 361 833 z "},"ŭ":{"ha":829,"x_min":110,"x_max":718,"o":"m 578 93 l 568 93 q 489 15 542 40 q 343 -11 436 -11 q 195 19 246 -11 q 127 108 144 50 q 110 265 110 167 l 110 708 l 257 708 l 257 328 q 267 192 257 232 q 307 141 278 153 q 408 129 336 129 q 515 151 481 129 q 560 217 550 174 q 571 343 571 261 l 571 708 l 718 708 l 718 0 l 583 0 l 578 93 m 613 1032 q 599 920 613 963 q 543 853 586 878 q 413 828 500 828 q 283 853 325 828 q 228 919 240 878 q 215 1032 215 961 l 304 1032 q 310 967 304 989 q 338 934 315 946 q 413 922 361 922 q 486 934 463 922 q 515 967 510 946 q 521 1032 521 989 l 613 1032 z "},"ǔ":{"ha":829,"x_min":110,"x_max":718,"o":"m 578 93 l 568 93 q 489 15 542 40 q 343 -11 436 -11 q 195 19 246 -11 q 127 108 144 50 q 110 265 110 167 l 110 708 l 257 708 l 257 328 q 267 192 257 232 q 307 141 278 153 q 408 129 336 129 q 515 151 481 129 q 560 217 550 174 q 571 343 571 261 l 571 708 l 718 708 l 718 0 l 583 0 l 578 93 m 339 832 l 201 1022 l 201 1032 l 300 1032 l 413 907 l 525 1032 l 625 1032 l 625 1022 l 488 832 l 339 832 z "},"û":{"ha":829,"x_min":110,"x_max":718,"o":"m 578 93 l 568 93 q 489 15 542 40 q 343 -11 436 -11 q 195 19 246 -11 q 127 108 144 50 q 110 265 110 167 l 110 708 l 257 708 l 257 328 q 267 192 257 232 q 307 141 278 153 q 408 129 336 129 q 515 151 481 129 q 560 217 550 174 q 571 343 571 261 l 571 708 l 718 708 l 718 0 l 583 0 l 578 93 m 203 832 l 203 842 l 340 1032 l 489 1032 l 626 842 l 626 832 l 526 832 l 414 957 l 301 832 l 203 832 z "},"ȕ":{"ha":829,"x_min":88,"x_max":718,"o":"m 578 93 l 568 93 q 489 15 542 40 q 343 -11 436 -11 q 195 19 246 -11 q 127 108 144 50 q 110 265 110 167 l 110 708 l 257 708 l 257 328 q 267 192 257 232 q 307 141 278 153 q 408 129 336 129 q 515 151 481 129 q 560 217 550 174 q 571 343 571 261 l 571 708 l 718 708 l 718 0 l 583 0 l 578 93 m 344 844 l 253 844 l 88 1015 l 88 1022 l 219 1022 l 344 851 l 344 844 m 611 844 l 519 844 l 356 1015 l 356 1022 l 485 1022 l 611 851 l 611 844 z "},"ü":{"ha":829,"x_min":110,"x_max":718,"o":"m 578 93 l 568 93 q 489 15 542 40 q 343 -11 436 -11 q 195 19 246 -11 q 127 108 144 50 q 110 265 110 167 l 110 708 l 257 708 l 257 328 q 267 192 257 232 q 307 141 278 153 q 408 129 336 129 q 515 151 481 129 q 560 217 550 174 q 571 343 571 261 l 571 708 l 718 708 l 718 0 l 583 0 l 578 93 m 214 883 l 214 1014 l 346 1014 l 346 883 l 214 883 m 483 883 l 483 1014 l 614 1014 l 614 883 l 483 883 z "}}}
